<svg width="24" height="24" viewBox="0 0 24 24" fill="none" xmlns="http://www.w3.org/2000/svg">
<path d="M12 0.375C5.53125 0.375 0.375 5.57812 0.375 12C0.375 18.4688 5.53125 23.625 12 23.625C14.25 23.625 16.4531 22.9688 18.3281 21.75C18.8906 21.375 19.0312 20.625 18.5625 20.1094L18.0938 19.5C17.7656 19.0781 17.1094 18.9844 16.6406 19.2656C15.2344 20.1562 13.6406 20.625 12 20.625C7.21875 20.625 3.375 16.7812 3.375 12C3.375 7.26562 7.21875 3.375 12 3.375C16.6875 3.375 20.625 6.09375 20.625 10.875C20.625 12.7031 19.5938 14.625 17.8594 14.8125C17.0625 14.8125 17.0625 14.2031 17.25 13.4062L18.3281 7.73438C18.4688 7.03125 17.9531 6.375 17.25 6.375H15.1406C14.8125 6.375 14.5312 6.65625 14.4844 6.9375V6.98438C13.8281 6.14062 12.6094 5.95312 11.6719 5.95312C8.20312 5.95312 5.25 8.85938 5.25 13.0312C5.25 16.125 6.9375 18 9.75 18C10.9688 18 12.4219 17.2969 13.2188 16.2188C13.6875 17.8125 15.1406 17.8125 16.5469 17.8125C21.6562 17.8125 23.625 14.4375 23.625 10.875C23.625 4.5 18.4688 0.375 12 0.375ZM10.9688 14.6719C9.9375 14.6719 9.28125 13.9219 9.28125 12.75C9.28125 10.6406 10.7344 9.32812 12 9.32812C13.0781 9.32812 13.6875 10.0781 13.6875 11.25C13.6875 13.3594 12.0938 14.6719 10.9688 14.6719Z" fill="#858D9D"/>
</svg>
