<svg width="45" height="44" viewBox="0 0 45 44" fill="none" xmlns="http://www.w3.org/2000/svg">
<rect x="0.357422" y="0.000244141" width="44" height="44" fill="white"/>
<path d="M18.8241 4.31226H25.7996C26.8104 4.31226 27.6283 5.13017 27.6283 6.14093V12.3252C27.6283 12.6709 27.3424 12.9569 26.9966 12.9569H17.6205C17.2747 12.9569 16.9888 12.6709 16.9888 12.3252V6.14093C16.9888 5.13017 17.8067 4.31226 18.8174 4.31226H18.8241Z" fill="#FFDED9"/>
<path d="M18.8241 4.31226H25.7996C26.8104 4.31226 27.6283 5.13017 27.6283 6.14093V12.3252C27.6283 12.6709 27.3424 12.9569 26.9966 12.9569H17.6205C17.2747 12.9569 16.9888 12.6709 16.9888 12.3252V6.14093C16.9888 5.13017 17.8067 4.31226 18.8174 4.31226H18.8241Z" stroke="#FF6E5B" stroke-width="1.2" stroke-linecap="round" stroke-linejoin="round"/>
<path d="M26.7106 36.8959H13.5575C11.782 36.8959 10.3457 35.4596 10.3457 33.6841V12.8439C10.3457 11.0684 11.782 9.63208 13.5575 9.63208H16.9954" stroke="#FF6E5B" stroke-width="1.2" stroke-linecap="round" stroke-linejoin="round"/>
<path d="M27.6348 9.63208H31.0727C32.8481 9.63208 34.2845 11.0684 34.2845 12.8439V24.9264" stroke="#FF6E5B" stroke-width="1.2" stroke-linecap="round" stroke-linejoin="round"/>
<path d="M16.6631 19.6062H27.9676" stroke="#FF6E5B" stroke-width="1.2" stroke-linecap="round" stroke-linejoin="round"/>
<path d="M17.9199 25.7766C17.4079 25.7766 16.9956 25.3643 16.9956 24.8523C16.9956 24.3403 17.4079 23.928 17.9199 23.928C18.4319 23.928 18.8442 24.3403 18.8442 24.8523C18.8442 25.3643 18.4319 25.7766 17.9199 25.7766Z" fill="#FF6E5B"/>
<path d="M22.3154 25.7764C21.8034 25.7764 21.3911 25.3641 21.3911 24.852C21.3911 24.34 21.8034 23.9277 22.3154 23.9277C22.8275 23.9277 23.2397 24.34 23.2397 24.852C23.2397 25.3641 22.8275 25.7764 22.3154 25.7764Z" fill="#FF6E5B"/>
<path d="M26.7109 25.7764C26.1989 25.7764 25.7866 25.3641 25.7866 24.852C25.7866 24.34 26.1989 23.9277 26.7109 23.9277C27.223 23.9277 27.6352 24.34 27.6352 24.852C27.6352 25.3641 27.223 25.7764 26.7109 25.7764Z" fill="#FF6E5B"/>
<path d="M17.9199 30.1721C17.4079 30.1721 16.9956 29.7598 16.9956 29.2478C16.9956 28.7358 17.4079 28.3235 17.9199 28.3235C18.4319 28.3235 18.8442 28.7358 18.8442 29.2478C18.8442 29.7598 18.4319 30.1721 17.9199 30.1721Z" fill="#FF6E5B"/>
<path d="M22.3154 30.1721C21.8034 30.1721 21.3911 29.7598 21.3911 29.2478C21.3911 28.7358 21.8034 28.3235 22.3154 28.3235C22.8275 28.3235 23.2397 28.7358 23.2397 29.2478C23.2397 29.7598 22.8275 30.1721 22.3154 30.1721Z" fill="#FF6E5B"/>
<path d="M26.7109 30.1721C26.1989 30.1721 25.7866 29.7598 25.7866 29.2478C25.7866 28.7358 26.1989 28.3235 26.7109 28.3235C27.223 28.3235 27.6352 28.7358 27.6352 29.2478C27.6352 29.7598 27.223 30.1721 26.7109 30.1721Z" fill="#FF6E5B"/>
<path d="M35.9406 31.3963C35.9406 31.3963 35.5017 29.8203 33.1145 29.8203C30.7272 29.8203 30.1753 30.984 30.1753 32.0812C30.1753 33.6173 31.6183 33.9232 33.0546 34.2889" stroke="#FF6E5B" stroke-width="1.2" stroke-linecap="round" stroke-linejoin="round"/>
<path d="M33.1143 28.2515V29.8208" stroke="#FF6E5B" stroke-width="1.2" stroke-linecap="round" stroke-linejoin="round"/>
<path d="M30.1816 37.1814C30.1816 37.1814 30.6205 38.7574 33.0078 38.7574C35.395 38.7574 35.9469 37.5937 35.9469 36.4965C35.9469 34.9604 34.504 34.6546 33.0676 34.2888" stroke="#FF6E5B" stroke-width="1.2" stroke-linecap="round" stroke-linejoin="round"/>
<path d="M33.0078 40.3274V38.7581" stroke="#FF6E5B" stroke-width="1.2" stroke-linecap="round" stroke-linejoin="round"/>
</svg>
