<svg width="35" height="36" viewBox="0 0 35 36" fill="none" xmlns="http://www.w3.org/2000/svg">
<path d="M1.63379 11.438C1.81197 9.2107 8.81102 7.8371 12.2883 7.42871C12.8822 9.06238 14.1816 10.1014 16.8174 10.4355C18.926 10.7028 20.7896 8.69068 21.4578 7.65122C22.7324 7.70072 25.2816 7.88881 25.2816 8.2452C24.7989 10.7696 26.321 12.1432 28.6969 12.3288C30.5977 12.4773 31.8401 10.6335 32.2237 9.69302C32.8671 9.64352 34.1393 9.90091 34.0799 11.3265C34.0205 12.752 29.2538 14.0984 26.8779 14.5933L21.2351 15.0388L11.5087 14.5933C11.9047 13.4054 11.9319 10.9626 8.87291 10.6954C5.81392 10.4281 4.95018 12.4897 4.90068 13.5539C3.81172 13.1455 1.63379 12.1506 1.63379 11.438Z" fill="#FFDED9"/>
<path d="M25.3262 7.89572C24.0145 7.73083 22.593 7.61613 21.1055 7.54443" stroke="#FF6E5B" stroke-width="1.2" stroke-linecap="round" stroke-linejoin="round"/>
<path d="M25.3262 14.6064C30.5214 13.9755 34.0607 12.7137 34.0607 11.2584C34.0607 10.5773 33.2839 9.93923 31.9283 9.38721" stroke="#FF6E5B" stroke-width="1.2" stroke-linecap="round" stroke-linejoin="round"/>
<path d="M9.34449 7.99609C4.55958 8.65566 1.35742 9.86725 1.35742 11.2509C1.35742 11.5233 1.48199 11.7886 1.71647 12.0467C2.23673 12.6131 3.31389 13.1364 4.80871 13.5737C6.53802 14.0899 8.83889 14.4986 11.4841 14.7566C13.404 14.9359 15.507 15.0362 17.7126 15.0362C18.3135 15.0362 18.907 15.0291 19.4859 15.0147C20.0354 15.0004 20.5704 14.9789 21.1053 14.9574" stroke="#FF6E5B" stroke-width="1.2" stroke-linecap="round" stroke-linejoin="round"/>
<path d="M1.71631 12.1401L12.5465 27.2026C13.3525 28.321 13.8508 29.6186 14.012 30.9736L14.437 33.7983C14.5542 34.5869 15.2504 35.1748 16.0637 35.1748H19.3538C20.1892 35.1748 20.8926 34.5582 20.9879 33.7481L21.3176 30.9736C21.3616 30.5578 21.4422 30.1491 21.5594 29.7548" stroke="#FF6E5B" stroke-width="1.2" stroke-linecap="round" stroke-linejoin="round"/>
<path d="M33.6576 12.0542L29.6055 17.6964" stroke="#FF6E5B" stroke-width="1.2" stroke-linecap="round" stroke-linejoin="round"/>
<path d="M11.484 14.7569C11.5793 14.4487 11.6306 14.126 11.6306 13.7891C11.6306 13.3733 11.55 12.9718 11.4107 12.599C10.9198 11.3372 9.67411 10.4482 8.21592 10.4482C6.40601 10.4482 4.91851 11.8247 4.80859 13.574" stroke="#FF6E5B" stroke-width="1.2" stroke-linecap="round" stroke-linejoin="round"/>
<path d="M16.7307 10.4552C19.3288 10.4552 21.435 8.39458 21.435 5.85262C21.435 3.31066 19.3288 1.25 16.7307 1.25C14.1326 1.25 12.0264 3.31066 12.0264 5.85262C12.0264 8.39458 14.1326 10.4552 16.7307 10.4552Z" stroke="#FF6E5B" stroke-width="1.2" stroke-linecap="round" stroke-linejoin="round"/>
<path d="M28.5353 12.355C30.4211 12.355 31.9499 10.8593 31.9499 9.01418C31.9499 7.16909 30.4211 5.67334 28.5353 5.67334C26.6494 5.67334 25.1206 7.16909 25.1206 9.01418C25.1206 10.8593 26.6494 12.355 28.5353 12.355Z" stroke="#FF6E5B" stroke-width="1.2" stroke-linecap="round" stroke-linejoin="round"/>
<path d="M33.2766 26.3351C33.3059 26.12 33.3206 25.9049 33.3206 25.6898C33.3206 25.4748 33.3059 25.2597 33.2766 25.0446L34.0314 24.3635C34.2732 24.1413 34.3318 23.7972 34.1633 23.5176L33.3133 22.0766C33.1447 21.797 32.815 21.6679 32.4999 21.7683L31.518 22.0694C31.1663 21.8041 30.7852 21.5819 30.3749 21.4242L30.1551 20.442C30.0818 20.1265 29.8033 19.9043 29.4736 19.9043H27.7663C27.4365 19.9043 27.1508 20.1265 27.0848 20.442L26.865 21.4242C26.4546 21.5891 26.0663 21.8041 25.7219 22.0694L24.74 21.7683C24.4249 21.6679 24.0878 21.797 23.9266 22.0766L23.0766 23.5176C22.9081 23.7972 22.9667 24.1485 23.2085 24.3635L23.9633 25.0446C23.934 25.2597 23.9193 25.4748 23.9193 25.6898C23.9193 25.9049 23.934 26.12 23.9633 26.3351L23.2085 27.0161C22.9667 27.2384 22.9081 27.5825 23.0766 27.8621L23.9266 29.3031C24.0952 29.5827 24.4249 29.7118 24.74 29.6114L25.7219 29.3103C26.0736 29.5755 26.4546 29.7978 26.865 29.9555L27.0848 30.9377C27.1581 31.2531 27.4365 31.4754 27.7663 31.4754H29.4736C29.8033 31.4754 30.0891 31.2531 30.1551 30.9377L30.3749 29.9555C30.7852 29.7906 31.1736 29.5755 31.518 29.3103L32.4999 29.6114C32.815 29.7118 33.1521 29.5827 33.3133 29.3031L34.1633 27.8621C34.3318 27.5825 34.2732 27.2312 34.0314 27.0161L33.2766 26.3351ZM28.609 27.6614C27.4952 27.6614 26.5865 26.7724 26.5865 25.6827C26.5865 24.593 27.4952 23.704 28.609 23.704C29.7227 23.704 30.6314 24.593 30.6314 25.6827C30.6314 26.7724 29.7227 27.6614 28.609 27.6614Z" stroke="#FF6E5B" stroke-width="1.2" stroke-linecap="round" stroke-linejoin="round"/>
</svg>
