<svg width="45" height="46" viewBox="0 0 45 46" fill="none" xmlns="http://www.w3.org/2000/svg">
<rect x="0.357422" y="0.728027" width="44" height="44.557" fill="white"/>
<path d="M14.0431 32.3921H7.57525C6.69473 32.3921 6.04634 31.5572 6.25446 30.6898L9.59245 17.0392L10.9052 11.6811C11.0573 11.065 11.6016 10.6354 12.226 10.6354H18.934" stroke="#FF6E5B" stroke-width="1.2" stroke-linecap="round" stroke-linejoin="round"/>
<path d="M28.7881 32.3921H37.6894C38.5699 32.3921 39.2183 31.5572 39.0102 30.6898L37.4572 24.359L34.3594 11.6811C34.2073 11.065 33.663 10.6354 33.0386 10.6354H32.6544" stroke="#FF6E5B" stroke-width="1.2" stroke-linecap="round" stroke-linejoin="round"/>
<path d="M16.5327 22.3892L17.093 17.0392L17.7654 10.6354" stroke="#FF6E5B" stroke-width="1.2" stroke-linecap="round" stroke-linejoin="round"/>
<path d="M29.7724 32.4002L28.6357 21.8704" stroke="#FF6E5B" stroke-width="1.2" stroke-linecap="round" stroke-linejoin="round"/>
<path d="M9.59229 17.0474H17.1008" stroke="#FF6E5B" stroke-width="1.2" stroke-linecap="round" stroke-linejoin="round"/>
<path d="M28.9321 24.359H37.4572" stroke="#FF6E5B" stroke-width="1.2" stroke-linecap="round" stroke-linejoin="round"/>
<path d="M24.0653 11.7864C24.0653 10.3192 25.242 9.13567 26.6828 9.13567C28.1237 9.13567 29.3004 10.3273 29.3004 11.7864C29.3004 13.2455 28.1237 14.4371 26.6828 14.4371C25.242 14.4371 24.0653 13.2455 24.0653 11.7864ZM26.0905 20.8328C26.4347 21.1408 26.939 21.1489 27.2912 20.8409C28.8281 19.5034 32.7665 15.7016 32.7665 11.7783C32.7665 8.3818 30.0448 5.62573 26.6909 5.62573C23.3369 5.62573 20.6152 8.3818 20.6152 11.7783C20.6152 15.5152 24.5696 19.4466 26.0985 20.8247L26.0905 20.8328Z" fill="#FFDED9" stroke="#FF6E5B" stroke-width="1.2" stroke-linecap="round" stroke-linejoin="round"/>
<path d="M9.87978 40.7715C9.33074 40.2155 9.32508 39.3041 9.87978 38.7424L14.6287 33.9333L16.6268 35.9567L11.8778 40.7657C11.3288 41.3217 10.4288 41.3275 9.87412 40.7657L9.87978 40.7715Z" fill="#FFDED9"/>
<path d="M20.3988 37.0851C24.0903 37.0851 27.0828 34.0547 27.0828 30.3166C27.0828 26.5784 24.0903 23.548 20.3988 23.548C16.7074 23.548 13.7148 26.5784 13.7148 30.3166C13.7148 34.0547 16.7074 37.0851 20.3988 37.0851Z" stroke="#FF6E5B" stroke-width="1.2" stroke-linecap="round" stroke-linejoin="round"/>
<path d="M15.6121 36.8744L11.7138 40.8221C11.1614 41.3814 10.2649 41.3814 9.71259 40.8221C9.16026 40.2628 9.16026 39.3549 9.71259 38.7956L14.5635 33.8833" stroke="#FF6E5B" stroke-width="1.2" stroke-linecap="round" stroke-linejoin="round"/>
</svg>
