<svg width="45" height="44" viewBox="0 0 45 44" fill="none" xmlns="http://www.w3.org/2000/svg">
<rect x="0.348145" width="44" height="44" fill="white"/>
<path d="M26.372 13.3391V7H24.3481V13.2522C24.3481 15.3217 25.9893 17 28.0131 17H34.3481V14.7826H27.7835C27.0012 14.7826 26.372 14.1391 26.372 13.3391Z" fill="#FFDED9"/>
<path d="M17.8022 6H24.7489C25.8352 6 26.8793 6.44767 27.6371 7.24832L33.2703 13.1886C33.9608 13.9118 34.3481 14.8846 34.3481 15.9005V34.3584C34.3481 36.3729 32.7483 38 30.7863 38H12.9099C10.9396 38 9.34814 36.3643 9.34814 34.3584V30.9836" stroke="#FF806E" stroke-width="1.2" stroke-linecap="round" stroke-linejoin="round"/>
<path d="M9.34814 24V9.70093C9.34814 7.74953 10.9103 6.14299 12.8891 6.00841C12.9412 6.00841 15.9875 6.00841 18.3481 6" stroke="#FF806E" stroke-width="1.2" stroke-linecap="round" stroke-linejoin="round"/>
<path d="M9.34814 27V26" stroke="#FF806E" stroke-width="1.2" stroke-linecap="round" stroke-linejoin="round"/>
<path d="M26.3481 7V12.207C26.3481 13.7489 27.479 15 28.8726 15H33.3481" stroke="#FF806E" stroke-width="1.2" stroke-linecap="round" stroke-linejoin="round"/>
<path d="M23.3481 19H29.3481" stroke="#FF806E" stroke-width="1.2" stroke-linecap="round" stroke-linejoin="round"/>
<path d="M14.3481 18.1649L16.164 20L19.3481 17" stroke="#FF806E" stroke-width="1.2" stroke-linecap="round" stroke-linejoin="round"/>
<path d="M23.3481 25H29.3481" stroke="#FF806E" stroke-width="1.2" stroke-linecap="round" stroke-linejoin="round"/>
<path d="M14.3481 24.1649L16.164 26L19.3481 23" stroke="#FF806E" stroke-width="1.2" stroke-linecap="round" stroke-linejoin="round"/>
<path d="M23.3481 32H29.3481" stroke="#FF806E" stroke-width="1.2" stroke-linecap="round" stroke-linejoin="round"/>
<path d="M14.3481 31.1649L16.164 33L19.3481 30" stroke="#FF806E" stroke-width="1.2" stroke-linecap="round" stroke-linejoin="round"/>
</svg>
