<svg width="45" height="45" viewBox="0 0 45 45" fill="none" xmlns="http://www.w3.org/2000/svg">
<rect x="0.348145" y="0.500488" width="44" height="44" fill="white"/>
<path d="M17.6624 21.5978L6.53357 15.0885V15.2993C6.45555 17.9004 6.34631 23.8715 6.53357 26.9463C6.72083 30.0212 8.86261 31.0611 9.91009 31.1967H19.0216H23.1357C23.2299 31.4386 23.3617 31.7387 23.1357 31.0041C22.9097 30.2695 23.0415 29.5914 23.1357 29.3442C22.8885 29.3206 22.3517 29.0334 22.1821 28.0728C22.0126 27.1121 23.43 24.8707 24.1599 23.87C24.6779 23.267 25.9682 21.8998 26.9853 21.2552C28.0024 20.6105 29.0808 20.7285 29.4928 20.868L30.5827 22.0609L32.4823 21.2552V14.6929C29.4698 16.5157 23.0764 20.3802 21.6028 21.2552C20.1291 22.1301 18.3618 21.8481 17.6624 21.5978Z" fill="#FFDED9"/>
<path d="M33.0301 27.9067C33.1436 27.8924 33.2571 27.8924 33.3564 27.9067C33.4132 27.7703 33.4274 27.5332 33.3706 27.2819C33.2926 26.9012 33.1862 26.6714 32.9662 26.7073C32.7463 26.7432 32.7392 27.0161 32.8172 27.3968C32.8598 27.6122 32.9378 27.7918 33.0301 27.9067Z" fill="#FF806E"/>
<path d="M31.1425 28.2085C31.2986 28.2803 31.398 28.3234 31.4335 28.2875C31.4547 28.2587 31.4476 28.2157 31.4122 28.151C31.3341 28.0217 31.178 27.8925 31.0077 27.8206C30.6601 27.6698 30.2485 27.7201 29.9293 27.9499C29.8228 28.0289 29.7235 28.1366 29.7377 28.2013C29.7377 28.2228 29.759 28.2372 29.7944 28.2444C29.8796 28.2516 30.1847 28.1007 30.5324 28.0792C30.7807 28.0648 30.9794 28.1438 31.1425 28.2085Z" fill="#FF806E"/>
<path d="M30.8236 28.3952C30.6178 28.4311 30.5043 28.4958 30.4333 28.5604C30.3695 28.6179 30.334 28.6753 30.334 28.7184C30.334 28.7399 30.3411 28.7471 30.3482 28.7543C30.3553 28.7615 30.3695 28.7687 30.3837 28.7687C30.4333 28.7687 30.5327 28.7256 30.5327 28.7256C30.8165 28.625 31.008 28.6322 31.1925 28.6538C31.2989 28.6681 31.3415 28.6753 31.3699 28.6394C31.3699 28.6322 31.3841 28.6035 31.3699 28.5748C31.3202 28.4958 31.1145 28.3665 30.8307 28.3952H30.8236Z" fill="#FF806E"/>
<path d="M32.3914 29.0632C32.5333 29.135 32.6823 29.1063 32.732 29.0057C32.7816 28.9052 32.7107 28.7615 32.5688 28.6969C32.4269 28.6251 32.2779 28.6538 32.2282 28.7543C32.1785 28.8549 32.2495 28.9985 32.3914 29.0632Z" fill="#FF806E"/>
<path d="M33.2853 28.2732C33.1718 28.2732 33.0796 28.3953 33.0796 28.5533C33.0796 28.7113 33.1647 28.8406 33.2783 28.8406C33.3918 28.8406 33.484 28.7185 33.484 28.5605C33.484 28.4025 33.3989 28.2732 33.2853 28.2732Z" fill="#FF806E"/>
<path d="M25.7008 31.1029C25.7008 31.1029 25.6298 31.0814 25.5802 31.0886C25.5518 31.0958 25.5163 31.1029 25.4737 31.1029C25.3886 31.1029 25.3177 31.067 25.2822 31.0024C25.2325 30.9234 25.2325 30.8013 25.2893 30.6648C25.2964 30.6433 25.3035 30.6289 25.3177 30.6002C25.4099 30.3919 25.5589 30.0472 25.3886 29.724C25.2609 29.4798 25.0551 29.3218 24.7997 29.293C24.5585 29.2643 24.3101 29.3505 24.154 29.53C23.9057 29.8101 23.8631 30.1908 23.9128 30.3201C23.927 30.3704 23.9554 30.3847 23.9766 30.3847C24.0192 30.3847 24.0831 30.356 24.1186 30.2554C24.1186 30.2483 24.1186 30.2339 24.1327 30.2195C24.1469 30.1621 24.1824 30.0543 24.2392 29.9753C24.303 29.8748 24.4024 29.803 24.523 29.7742C24.6436 29.7455 24.7642 29.7742 24.8707 29.8389C25.048 29.9538 25.1119 30.1693 25.0409 30.3775C25.0055 30.4853 24.9416 30.6864 24.9558 30.8587C24.9842 31.1963 25.1899 31.3328 25.3744 31.3471C25.5518 31.3471 25.6795 31.2538 25.715 31.1748C25.7363 31.1317 25.715 31.1029 25.7079 31.0886L25.7008 31.1029Z" fill="#FF806E"/>
<path d="M36.1378 30.478C36.1378 30.478 36.0881 30.2841 36.0242 30.0902C35.9604 29.8963 35.8965 29.7526 35.8965 29.7526C36.1448 29.3792 36.1448 29.0416 36.1165 28.8549C36.081 28.6179 35.9817 28.4168 35.7901 28.2157C35.5985 28.0074 35.1941 27.7991 34.6336 27.6339C34.5697 27.6124 34.3568 27.5549 34.3427 27.5549C34.3427 27.5405 34.3285 26.851 34.3143 26.5566C34.3072 26.3411 34.2859 26.0107 34.1866 25.6803C34.0659 25.235 33.8531 24.8472 33.5906 24.5958C34.3214 23.8273 34.7826 22.9798 34.7755 22.2544C34.7755 20.8611 33.0797 20.4373 30.9937 21.3136L30.5538 21.5003C30.5538 21.5003 29.752 20.7031 29.7449 20.6959C27.368 18.5987 19.9251 26.966 22.3091 28.9985L22.8271 29.4438C22.6923 29.7957 22.6426 30.2051 22.6852 30.6361C22.7419 31.1963 23.0257 31.7349 23.4869 32.1443C23.9268 32.5393 24.5015 32.7835 25.0621 32.7835C25.9845 34.9454 28.0988 36.2669 30.5822 36.3387C33.2429 36.4177 35.4708 35.1536 36.4074 32.8841C36.4712 32.7261 36.7267 32.0079 36.7267 31.3758C36.7267 30.7438 36.3719 30.478 36.1449 30.478H36.1378ZM25.2536 32.173C25.1756 32.1874 25.0905 32.1946 25.0053 32.1874C24.2035 32.1659 23.3379 31.4333 23.2457 30.5642C23.1534 29.6018 23.6359 28.8692 24.4945 28.6897C24.5938 28.6681 24.7215 28.6538 24.8563 28.661C25.3388 28.6897 26.0412 29.0632 26.2044 30.1189C26.3463 31.0598 26.1193 32.015 25.2536 32.1659V32.173ZM24.3596 28.1223C23.8275 28.23 23.3521 28.5317 23.0683 28.9554C22.898 28.8118 22.5787 28.5317 22.522 28.4168C22.0608 27.5333 23.0257 25.8168 23.6927 24.8472C25.353 22.4484 27.9498 20.6384 29.1489 20.9688C29.3476 21.0263 29.9933 21.7876 29.9933 21.7876C29.9933 21.7876 28.7942 22.4627 27.6802 23.4036C26.176 24.5743 25.0408 26.2765 24.3667 28.1223H24.3596ZM32.7888 31.8139C32.7888 31.8139 32.8172 31.7852 32.8172 31.7637C32.8172 31.7421 32.7959 31.7206 32.7675 31.7206C32.7675 31.7206 31.5117 31.9073 30.3197 31.4692C30.4474 31.0454 30.795 31.1963 31.313 31.2394C32.2496 31.2968 33.0939 31.1604 33.7112 30.9736C34.2504 30.8156 34.9599 30.5068 35.5063 30.0687C35.6908 30.478 35.7546 30.9305 35.7546 30.9305C35.7546 30.9305 35.8965 30.9018 36.0171 30.9808C36.1307 31.0526 36.2158 31.1963 36.159 31.5769C36.0455 32.288 35.7475 32.8625 35.2438 33.3868C34.9387 33.7172 34.5697 34.0045 34.1511 34.2128C33.924 34.3349 33.6899 34.4354 33.4345 34.5216C31.5471 35.1465 29.6243 34.457 28.9999 32.9918C28.9503 32.8841 28.9077 32.762 28.8722 32.6471C28.6097 31.6775 28.8296 30.514 29.5321 29.7814C29.5747 29.7383 29.6172 29.6808 29.6172 29.609C29.6172 29.5515 29.5817 29.4869 29.5463 29.4438C29.2979 29.0847 28.4465 28.467 28.6168 27.2748C28.7374 26.4201 29.4753 25.8168 30.1706 25.8527C30.2274 25.8527 30.2842 25.8527 30.348 25.8599C30.646 25.8743 30.9086 25.9174 31.1498 25.9245C31.5613 25.9461 31.9303 25.8814 32.3702 25.5152C32.5192 25.3931 32.6398 25.2853 32.8385 25.2494C32.8598 25.2494 32.9094 25.2279 33.0158 25.235C33.1223 25.235 33.2216 25.271 33.3138 25.3356C33.6686 25.5726 33.7183 26.1472 33.7325 26.5638C33.7396 26.8008 33.7679 27.3825 33.7821 27.5477C33.8034 27.9284 33.9028 27.9786 34.1014 28.0505C34.2149 28.0864 34.3214 28.1151 34.4704 28.1582C34.9387 28.2875 35.2083 28.4239 35.3857 28.5963C35.4921 28.704 35.5347 28.819 35.5559 28.9267C35.6127 29.3289 35.2438 29.8316 34.2788 30.2841C33.2216 30.7797 31.9374 30.909 31.0505 30.8084C30.9795 30.8012 30.7383 30.7725 30.7383 30.7725C30.0287 30.6791 29.6243 31.6056 30.05 32.2377C30.3267 32.6471 31.0717 32.9128 31.8167 32.9128C33.5338 32.9128 34.8464 32.173 35.336 31.5338C35.3502 31.5123 35.3502 31.5123 35.3786 31.4764C35.3998 31.4405 35.3786 31.4189 35.3502 31.4405C34.9528 31.7206 33.1719 32.8194 31.2704 32.4891C31.2704 32.4891 31.0363 32.4531 30.8305 32.367C30.6602 32.3023 30.3126 32.1371 30.27 31.7708C31.8026 32.252 32.7746 31.7996 32.7746 31.7996L32.7888 31.8139ZM27.4177 24.8472C28.0066 24.1577 28.7303 23.5544 29.3831 23.224C29.4044 23.2097 29.4327 23.2384 29.4186 23.2599C29.3689 23.3533 29.2696 23.5544 29.2341 23.7124C29.2341 23.734 29.2554 23.7555 29.2766 23.7412C29.6811 23.461 30.3835 23.1666 31.0008 23.1235C31.0292 23.1235 31.0434 23.1594 31.0221 23.1738C30.9298 23.2456 30.8234 23.3461 30.7525 23.4467C30.7383 23.461 30.7525 23.4898 30.7737 23.4898C31.2066 23.4898 31.8167 23.6478 32.2141 23.8704C32.2425 23.8848 32.2212 23.9351 32.1928 23.9351C31.5897 23.7986 30.6035 23.6909 29.5817 23.9351C28.6665 24.1577 27.9711 24.5096 27.4603 24.8831C27.4319 24.9047 27.4035 24.8688 27.4248 24.84L27.4177 24.8472Z" fill="#FF806E"/>
<path d="M20.8759 31.1031H10.3892C8.11869 31.1031 6.27393 29.2357 6.27393 26.9374V13.0973C6.27393 10.799 8.11869 8.93164 10.3892 8.93164H28.2834C30.5539 8.93164 32.3986 10.799 32.3986 13.0973V18.6884" stroke="#FF806E" stroke-width="1.2" stroke-linecap="round" stroke-linejoin="round"/>
<path d="M8.23242 16.0293L17.066 21.1933C18.4709 22.0121 20.2021 22.0121 21.607 21.1933L30.3128 16.1083" stroke="#FF806E" stroke-width="1.2" stroke-linecap="round" stroke-linejoin="round"/>
</svg>
