<svg width="45" height="44" viewBox="0 0 45 44" fill="none" xmlns="http://www.w3.org/2000/svg">
<rect width="44" height="44" transform="translate(0.660645)" fill="white"/>
<path d="M31.6979 39.0874C35.5097 39.0874 38.5998 36.0002 38.5998 32.1919C38.5998 28.3836 35.5097 25.2964 31.6979 25.2964C27.886 25.2964 24.7959 28.3836 24.7959 32.1919C24.7959 36.0002 27.886 39.0874 31.6979 39.0874Z" fill="#FFDED9" stroke="#FF806E" stroke-width="1.13054" stroke-linecap="round" stroke-linejoin="round"/>
<path d="M17.3021 21.1138C19.208 21.1138 20.753 19.5702 20.753 17.666C20.753 15.7619 19.208 14.2183 17.3021 14.2183C15.3961 14.2183 13.8511 15.7619 13.8511 17.666C13.8511 19.5702 15.3961 21.1138 17.3021 21.1138Z" stroke="#FF6E5B" stroke-width="1.13054" stroke-linecap="round" stroke-linejoin="round"/>
<path d="M23.0965 27.2363V26.7286C23.0965 25.1071 21.7768 23.7886 20.1537 23.7886H17.3019H14.4501C12.827 23.7886 11.5073 25.1071 11.5073 26.7286V27.2363" stroke="#FF6E5B" stroke-width="1.13054" stroke-linecap="round" stroke-linejoin="round"/>
<path d="M23.0967 14.5972C24.798 14.5972 26.1684 15.9731 26.1684 17.6661C26.1684 19.359 24.798 20.7349 23.0967 20.7349" stroke="#FF6E5B" stroke-width="1.13054" stroke-linecap="round" stroke-linejoin="round"/>
<path d="M28.4058 14.5972C30.107 14.5972 31.4775 15.9731 31.4775 17.6661C31.4775 19.359 30.107 20.7349 28.4058 20.7349" stroke="#FF6E5B" stroke-width="1.13054" stroke-linecap="round" stroke-linejoin="round"/>
<path d="M22.8994 37.3672H12.9864C9.18653 37.3672 6.09961 34.2908 6.09961 30.4869V13.4678C6.09961 9.66387 9.17895 6.5874 12.9864 6.5874H29.9C33.6999 6.5874 36.7868 9.66387 36.7868 13.4678V23.6216" stroke="#FF6E5B" stroke-width="1.13054" stroke-linecap="round" stroke-linejoin="round"/>
<path d="M31.6978 28.6348V35.7487" stroke="#FF6E5B" stroke-width="1.13054" stroke-linecap="round" stroke-linejoin="round"/>
<path d="M28.1372 32.1919L35.2577 32.1919" stroke="#FF6E5B" stroke-width="1.13054" stroke-linecap="round" stroke-linejoin="round"/>
</svg>
