<svg width="45" height="44" viewBox="0 0 45 44" fill="none" xmlns="http://www.w3.org/2000/svg">
<rect x="0.348145" y="0.000488281" width="44" height="44" fill="white"/>
<g clip-path="url(#clip0_376_8384)">
<path d="M30.079 17.5665L22.5661 21.8112C21.554 22.3837 20.3115 22.3837 19.2993 21.8112L11.7865 17.5665C10.8895 17.0594 10.8895 15.7754 11.7865 15.2683L19.2993 11.0236C20.3115 10.4511 21.554 10.4511 22.5661 11.0236L30.079 15.2683C30.9759 15.7754 30.9759 17.0594 30.079 17.5665Z" stroke="#FF806E" stroke-width="1.2" stroke-linecap="round" stroke-linejoin="round"/>
<path d="M30.079 20.0693C30.9759 20.5764 30.9759 21.8604 30.079 22.3593L22.5579 26.6122C21.554 27.1765 20.3115 27.1765 19.2993 26.6122L11.7865 22.3593C10.8895 21.8604 10.8895 20.5764 11.7865 20.0693" stroke="#FF806E" stroke-width="1.2" stroke-linecap="round" stroke-linejoin="round"/>
<path d="M25.7589 29.5972L22.5579 31.4047C21.554 31.969 20.3115 31.969 19.2993 31.4047L11.7865 27.1518C10.8895 26.6529 10.8895 25.3689 11.7865 24.8618" stroke="#FF806E" stroke-width="1.2" stroke-linecap="round" stroke-linejoin="round"/>
<path d="M25.1666 38.5938C24.7634 38.6919 24.3602 38.7819 23.9487 38.8555" stroke="#FF806E" stroke-width="1.2" stroke-linecap="round" stroke-linejoin="round"/>
<path d="M19.9495 39.0926C19.6533 39.0763 19.3488 39.0517 19.0526 39.0272C9.2357 38.0539 2.07669 29.3519 3.05591 19.603C4.03513 9.84593 12.7905 2.73055 22.6074 3.7038C31.3217 4.57073 37.9458 11.5225 38.6288 19.9056" stroke="#FF806E" stroke-width="1.2" stroke-linecap="round" stroke-linejoin="round"/>
<path d="M38.678 21.9014C38.678 22.0159 38.678 22.1304 38.6615 22.2449C38.6451 22.5393 38.6204 22.8419 38.5957 23.1363" stroke="#FF806E" stroke-width="1.2" stroke-linecap="round" stroke-linejoin="round"/>
<path d="M40.6116 29.5399H40.4964C40.1261 29.5153 39.7888 29.319 39.616 28.9919C39.5337 28.8283 39.4432 28.6729 39.3362 28.5175C39.1387 28.2067 39.1305 27.8142 39.3033 27.4952L39.3609 27.3889C39.5995 26.9391 39.4761 26.3911 39.0729 26.0803L38.431 25.5896C38.0278 25.2788 37.46 25.3033 37.0897 25.6468L37.0239 25.7041L36.9992 25.7286C36.7277 25.974 36.3409 26.0721 35.9953 25.9658C35.8225 25.9086 35.6415 25.8595 35.4604 25.8186C35.0984 25.745 34.8186 25.4669 34.7116 25.1152L34.6787 25.0007C34.5306 24.5182 34.0451 24.2074 33.5431 24.2728L32.7285 24.3792C32.2265 24.4446 31.8398 24.8699 31.8233 25.3769V25.4996C31.8069 25.8677 31.6094 26.203 31.2802 26.3666C31.1157 26.4483 30.9593 26.5465 30.803 26.6446C30.4903 26.8409 30.0953 26.8491 29.7744 26.6773L29.6674 26.6201C29.2148 26.3829 28.6635 26.5056 28.3508 26.9063L27.8571 27.5443C27.5444 27.945 27.5691 28.5093 27.9229 28.8856L28.0052 28.9755C28.252 29.2454 28.3508 29.6298 28.2438 29.9733C28.1862 30.1451 28.1368 30.325 28.0957 30.5049C28.0216 30.8648 27.7419 31.1429 27.388 31.2492L27.2728 31.2819C26.7873 31.4291 26.4746 31.9116 26.5405 32.4105L26.6474 33.2202C26.7133 33.7273 27.1412 34.1035 27.6513 34.1199H27.7665C28.1368 34.1362 28.4742 34.3325 28.647 34.6597C28.7293 34.8232 28.8198 34.9786 28.9268 35.134C29.1243 35.4448 29.1325 35.8374 28.9597 36.1563L28.9021 36.2627C28.6635 36.7043 28.7869 37.2605 29.1901 37.5712L29.8402 38.0701C30.2434 38.3727 30.8606 38.3319 31.1897 38.0047L31.2802 37.9229C31.5436 37.6694 31.9385 37.5794 32.2841 37.6857C32.4569 37.743 32.638 37.7921 32.819 37.833C33.1811 37.9147 33.4609 38.1928 33.5678 38.5363L33.6007 38.6508C33.7489 39.1334 34.2344 39.436 34.7363 39.3705L35.551 39.2642C36.0529 39.1988 36.4397 38.7735 36.4561 38.2746V38.1519C36.4726 37.7839 36.6701 37.4486 36.9992 37.2768C37.1638 37.195 37.3201 37.1051 37.4765 36.9987C37.7892 36.8025 38.1842 36.7943 38.5051 36.9742L38.6121 37.0315C39.0564 37.2686 39.616 37.146 39.9287 36.7452L40.4224 36.0991C40.7351 35.6983 40.7104 35.134 40.3648 34.7578L40.2825 34.6678C40.0356 34.3979 39.9369 34.0135 40.0439 33.67C40.1015 33.4983 40.1508 33.3184 40.192 33.1384C40.266 32.7786 40.554 32.5005 40.8996 32.3942L41.0149 32.3615C41.5004 32.2143 41.813 31.7399 41.7472 31.2328L41.6402 30.4231C41.5744 29.9242 41.1465 29.5399 40.6363 29.5235L40.6116 29.5399ZM34.4894 34.5861C32.9836 34.7823 31.6012 33.7437 31.3707 32.2633C31.3707 32.2388 31.3625 32.2143 31.3543 32.1897C31.1568 30.6685 32.2348 29.27 33.7571 29.0737C34.9749 28.9183 36.1105 29.5562 36.6289 30.5949C36.7606 30.8566 36.8511 31.151 36.8922 31.4618C37.0897 32.983 36.0118 34.3816 34.4894 34.5779V34.5861Z" fill="#FFDED9" stroke="#FF806E" stroke-width="1.2" stroke-linecap="round" stroke-linejoin="round"/>
</g>
<defs>
<clipPath id="clip0_376_8384">
<rect width="40" height="37" fill="white" transform="translate(2.34814 3.00049)"/>
</clipPath>
</defs>
</svg>
