<svg width="45" height="44" viewBox="0 0 45 44" fill="none" xmlns="http://www.w3.org/2000/svg">
<rect width="44" height="44" transform="translate(0.660645 0.000488281)" fill="white"/>
<path d="M6.1958 9.74121C6.1958 7.53207 7.98666 5.74121 10.1958 5.74121H34.0964C36.3056 5.74121 38.0964 7.53207 38.0964 9.74121V13.7356H6.1958V9.74121Z" fill="#FFDED9"/>
<path d="M26.9282 36.9055H10.876C8.3097 36.9055 6.2251 34.855 6.2251 32.3308V10.1305C6.2251 7.60618 8.3097 5.55566 10.876 5.55566H33.4529C36.0192 5.55566 38.1038 7.60618 38.1038 10.1305V27.1045" stroke="#FF6E5B" stroke-width="1.2" stroke-linecap="round" stroke-linejoin="round"/>
<path d="M6.2251 13.7354H38.0962" stroke="#FF6E5B" stroke-width="1.2" stroke-linecap="round" stroke-linejoin="round"/>
<path d="M11.5374 10.8258C12.0399 10.8258 12.4473 10.425 12.4473 9.93071C12.4473 9.43638 12.0399 9.03564 11.5374 9.03564C11.0348 9.03564 10.6274 9.43638 10.6274 9.93071C10.6274 10.425 11.0348 10.8258 11.5374 10.8258Z" fill="#FF6E5B"/>
<path d="M15.0267 10.8258C15.5292 10.8258 15.9366 10.425 15.9366 9.93071C15.9366 9.43638 15.5292 9.03564 15.0267 9.03564C14.5241 9.03564 14.1167 9.43638 14.1167 9.93071C14.1167 10.425 14.5241 10.8258 15.0267 10.8258Z" fill="#FF6E5B"/>
<path d="M18.5159 10.8258C19.0185 10.8258 19.4259 10.425 19.4259 9.93071C19.4259 9.43638 19.0185 9.03564 18.5159 9.03564C18.0134 9.03564 17.606 9.43638 17.606 9.93071C17.606 10.425 18.0134 10.8258 18.5159 10.8258Z" fill="#FF6E5B"/>
<path d="M27.8687 25.0986C27.9063 24.8321 27.9289 24.5657 27.9289 24.2992C27.9289 24.0327 27.9063 23.7662 27.8687 23.4997L28.7944 22.6632C29.0954 22.3967 29.1631 21.9674 28.9599 21.6194L27.9139 19.8428C27.7107 19.4949 27.2968 19.3394 26.913 19.4579L25.7164 19.828C25.2874 19.4949 24.8208 19.2284 24.3166 19.0285L24.0457 17.8219C23.9554 17.4296 23.6167 17.1631 23.2103 17.1631H21.1257C20.7193 17.1631 20.3732 17.437 20.2904 17.8219L20.0195 19.0285C19.5152 19.2284 19.0411 19.4949 18.6197 19.828L17.4231 19.4579C17.0393 19.3394 16.6254 19.4949 16.4222 19.8428L15.3761 21.6194C15.1729 21.9674 15.2407 22.3967 15.5417 22.6632L16.4673 23.4997C16.4297 23.7662 16.4071 24.0327 16.4071 24.2992C16.4071 24.5657 16.4297 24.8321 16.4673 25.0986L15.5417 25.9351C15.2407 26.2016 15.1729 26.631 15.3761 26.9789L16.4222 28.7555C16.6254 29.1034 17.0393 29.2589 17.4231 29.1404L18.6197 28.7703C19.0486 29.1034 19.5152 29.3699 20.0195 29.5698L20.2904 30.7764C20.3807 31.1687 20.7193 31.4352 21.1257 31.4352H23.2103C23.6167 31.4352 23.9629 31.1613 24.0457 30.7764L24.3166 29.5698C24.8208 29.3699 25.2949 29.1034 25.7164 28.7703L26.913 29.1404C27.2968 29.2589 27.7107 29.1034 27.9139 28.7555L28.9599 26.9789C29.1631 26.631 29.0954 26.2016 28.7944 25.9351L27.8687 25.0986ZM22.1643 26.7346C20.8021 26.7346 19.6959 25.6464 19.6959 24.3066C19.6959 22.9667 20.8021 21.8785 22.1643 21.8785C23.5264 21.8785 24.6327 22.9667 24.6327 24.3066C24.6327 25.6464 23.5264 26.7346 22.1643 26.7346Z" fill="#FFDED9" stroke="#FF6E5B" stroke-width="1.2" stroke-linecap="round" stroke-linejoin="round"/>
<path d="M31.2256 38.4455V36.6763" stroke="#FF6E5B" stroke-width="1.2" stroke-linecap="round" stroke-linejoin="round"/>
<path d="M31.2256 33.7299V28.896" stroke="#FF6E5B" stroke-width="1.2" stroke-linecap="round" stroke-linejoin="round"/>
<path d="M36.29 38.4451V33.7148" stroke="#FF6E5B" stroke-width="1.2" stroke-linecap="round" stroke-linejoin="round"/>
<path d="M36.29 30.7688V28.896" stroke="#FF6E5B" stroke-width="1.2" stroke-linecap="round" stroke-linejoin="round"/>
<path d="M31.233 36.6762C32.0601 36.6762 32.7306 36.0167 32.7306 35.2031C32.7306 34.3895 32.0601 33.73 31.233 33.73C30.4059 33.73 29.7354 34.3895 29.7354 35.2031C29.7354 36.0167 30.4059 36.6762 31.233 36.6762Z" stroke="#FF6E5B" stroke-width="1.2" stroke-linecap="round" stroke-linejoin="round"/>
<path d="M36.2901 33.7153C37.1172 33.7153 37.7877 33.0557 37.7877 32.2422C37.7877 31.4286 37.1172 30.769 36.2901 30.769C35.463 30.769 34.7925 31.4286 34.7925 32.2422C34.7925 33.0557 35.463 33.7153 36.2901 33.7153Z" stroke="#FF6E5B" stroke-width="1.2" stroke-linecap="round" stroke-linejoin="round"/>
</svg>
