<svg width="52" height="52" viewBox="0 0 52 52" fill="none" xmlns="http://www.w3.org/2000/svg">
<path d="M46.3109 16.951L32.4874 5.2028C29.042 2.26573 23.958 2.26573 20.4916 5.2028L6.66807 16.951C4.98739 18.3776 4 20.4965 4 22.6993V39.1469C4 44.035 7.97059 48 12.8655 48H40.1345C45.0294 48 49 44.035 49 39.1469V22.6993C49 20.4755 48.0336 18.3776 46.3319 16.951H46.3109Z" fill="#FF7F6E"/>
<path d="M22.8363 19.0274L19.4931 13.3821C19.4931 13.3821 20.5903 12.5224 21.9005 13.3821C23.2171 14.2417 23.0364 14.8447 23.9916 14.6458C24.9468 14.447 25.6051 13.1511 26.5022 13.0036C27.3993 13.1511 28.0576 14.447 29.0128 14.6458C29.968 14.8447 29.7873 14.2481 31.1039 13.3821C32.4205 12.5224 33.5112 13.3821 33.5112 13.3821L30.1681 19.0338C29.968 19.3674 29.6066 19.5727 29.2193 19.5727H23.7915C23.3978 19.5727 23.0364 19.3674 22.8428 19.0338L22.8363 19.0274ZM32.8723 42H20.1256C14.1944 42 12.5099 34.135 15.3368 28.1305C16.705 25.2052 18.6928 23.1138 20.3709 21.7217C20.6807 21.4651 21.0679 21.324 21.4681 21.324H31.5299C31.93 21.324 32.3173 21.4651 32.6271 21.7217C34.3051 23.1138 36.2929 25.2052 37.6676 28.1305C40.488 34.135 38.8035 42 32.8723 42ZM24.6693 29.9267C24.6693 29.4969 24.6693 28.7014 26.5538 28.7014C28.0124 28.7014 28.3351 29.4392 28.3739 29.5418C28.5288 30.0422 29.0515 30.3244 29.5614 30.1897C30.0713 30.0486 30.3746 29.5161 30.2326 29.0029C30.2068 28.9259 29.7098 27.2516 27.5219 26.8603V26.2252C27.5219 25.6927 27.0895 25.2629 26.5538 25.2629C26.0181 25.2629 25.5857 25.6927 25.5857 26.2252V26.8474C23.0364 27.2259 22.7331 29.0799 22.7331 29.9267C22.7331 32.1079 24.7725 32.6146 26.1279 32.9547L26.2634 32.9867L26.4054 33.0252C27.9866 33.4165 28.3287 33.6218 28.3287 34.1864C28.3287 34.6098 28.3287 35.4116 26.4441 35.4116C24.9855 35.4116 24.6628 34.6675 24.6241 34.5649C24.4692 34.0709 23.9464 33.7822 23.443 33.9233C22.9267 34.0645 22.6233 34.5905 22.7653 35.1037C22.7911 35.1871 23.2881 36.8551 25.476 37.2528V37.8879C25.476 38.4204 25.9084 38.8502 26.4441 38.8502C26.9798 38.8502 27.4122 38.4204 27.4122 37.8879V37.2592C29.9615 36.8871 30.2649 35.0332 30.2649 34.1864C30.2649 32.0052 28.2254 31.492 26.8701 31.1584L26.7345 31.1199L26.599 31.0878C25.0113 30.6901 24.6693 30.4848 24.6693 29.9267Z" fill="white"/>
</svg>
