<svg width="52" height="52" viewBox="0 0 52 52" fill="none" xmlns="http://www.w3.org/2000/svg">
<rect width="52" height="52" fill="white"/>
<path d="M45.3109 16.951L31.4874 5.2028C28.042 2.26573 22.958 2.26573 19.4916 5.2028L5.66807 16.951C3.98739 18.3776 3 20.4965 3 22.6993V39.1469C3 44.035 6.97059 48 11.8655 48H39.1345C44.0294 48 48 44.035 48 39.1469V22.6993C48 20.4755 47.0336 18.3776 45.3319 16.951H45.3109Z" fill="#FF7F6E"/>
<path fill-rule="evenodd" clip-rule="evenodd" d="M17 22.5C17 17.8043 20.8043 14 25.5 14C30.1957 14 34 17.8043 34 22.5C34 27.1957 30.1957 31 25.5 31C20.8043 31 17 27.1957 17 22.5ZM26.1528 28.2486V27.4133L26.1598 27.4063C28.6585 27.1325 28.9533 25.3848 28.9533 24.5917C28.9533 22.6334 27.1424 22.1771 25.8159 21.8472L25.6825 21.8121L25.5421 21.777C23.9558 21.384 23.4645 21.1383 23.4645 20.3943C23.4645 19.9591 23.4645 18.9414 25.5562 18.9414C27.1916 18.9414 27.5425 19.8328 27.5776 19.9451C27.6899 20.3101 28.076 20.5277 28.441 20.4224C28.813 20.3171 29.0306 19.931 28.9253 19.559C28.9042 19.4818 28.4199 17.8885 26.2581 17.5937V16.7514C26.2581 16.3654 25.9422 16.0495 25.5562 16.0495C25.1701 16.0495 24.8543 16.3654 24.8543 16.7514V17.5867C22.3555 17.8604 22.0607 19.6082 22.0607 20.4013C22.0607 22.3596 23.8716 22.8159 25.1982 23.1457L25.3315 23.1808L25.4649 23.2159C27.0512 23.609 27.5425 23.8547 27.5425 24.5987C27.5425 25.0339 27.5425 26.0516 25.4509 26.0516C23.8154 26.0516 23.4645 25.1672 23.4294 25.0549C23.3171 24.6899 22.931 24.4723 22.5661 24.5776C22.1941 24.6829 21.9765 25.069 22.0818 25.441C22.1028 25.5182 22.5871 27.1115 24.749 27.4063V28.2486C24.749 28.6346 25.0648 28.9505 25.4509 28.9505C25.8369 28.9505 26.1528 28.6346 26.1528 28.2486ZM15.4485 35.2091L17.0903 34.0632C18.0753 33.3746 19.2813 33 20.517 33H30.4931C31.4245 33 32.1766 33.6941 32.1766 34.5536C32.1766 35.413 31.4245 36.1071 30.4931 36.1071H25.2692C24.8037 36.1071 24.4273 36.4542 24.4273 36.8839C24.4273 37.3136 24.8037 37.6607 25.2692 37.6607H30.8514C31.711 37.6607 32.5468 37.3907 33.2155 36.8949L37.2573 33.909C37.9558 33.3966 38.9647 33.4683 39.5617 34.0853H39.5679C40.2185 34.7629 40.1229 35.7986 39.3588 36.355L33.4604 40.6466C32.7917 41.1314 31.9679 41.3958 31.114 41.3958H20.087C19.8483 41.3958 19.6276 41.2967 19.4783 41.1204L15.305 36.2228C15.0363 35.9088 15.1022 35.4515 15.4485 35.2147V35.2091ZM13.6991 37.2585L17.7707 41.8035C17.9558 42.0129 17.926 42.3214 17.6989 42.4921L15.8365 43.8914C15.6036 44.0622 15.2692 44.0292 15.0841 43.8088L11.1079 39.0049C10.9289 38.7845 10.9767 38.4705 11.2213 38.3108L12.9887 37.1704C13.2155 37.0271 13.5198 37.0657 13.693 37.2585H13.6991Z" fill="white"/>
</svg>
