<svg width="52" height="52" viewBox="0 0 52 52" fill="none" xmlns="http://www.w3.org/2000/svg">
<path d="M46.3109 16.951L32.4874 5.2028C29.042 2.26573 23.958 2.26573 20.4916 5.2028L6.66807 16.951C4.98739 18.3776 4 20.4965 4 22.6993V39.1469C4 44.035 7.97059 48 12.8655 48H40.1345C45.0294 48 49 44.035 49 39.1469V22.6993C49 20.4755 48.0336 18.3776 46.3319 16.951H46.3109Z" fill="#FF7F6E"/>
<path d="M23.1338 19.8646C23.1338 17.9929 24.6401 16.4769 26.4997 16.4769C28.3594 16.4769 29.8656 17.9929 29.8656 19.8646C29.8656 21.7362 28.3594 23.2522 26.4997 23.2522C24.6401 23.2522 23.1338 21.7362 23.1338 19.8646ZM25.74 31.4235C26.1773 31.8148 26.8354 31.8237 27.2772 31.4369C29.2516 29.7297 34.3137 24.8749 34.3137 19.8646C34.3137 15.521 30.8153 12 26.4997 12C22.1841 12 18.6857 15.521 18.6857 19.8646C18.6857 24.6349 23.7699 29.6586 25.7356 31.4235H25.74ZM41.7567 38.9369L36.1513 28.3604C35.7935 27.6802 35.0912 27.2579 34.327 27.2579H33.4435C31.7562 29.743 29.6624 31.7303 28.4345 32.7884C27.9044 33.2463 27.2241 33.4997 26.5218 33.4997C25.8195 33.4997 25.1083 33.233 24.5694 32.7484C23.3679 31.6725 21.336 29.6852 19.6663 27.2579H18.6857C17.9216 27.2579 17.2192 27.6802 16.8614 28.3604L11.2472 38.9369C10.5095 40.3239 11.5122 42 13.0715 42H39.928C41.4916 42 42.4899 40.3239 41.7523 38.9369H41.7567Z" fill="white"/>
</svg>
