<svg width="52" height="52" viewBox="0 0 52 52" fill="none" xmlns="http://www.w3.org/2000/svg">
<path d="M46.3109 16.951L32.4874 5.2028C29.042 2.26573 23.958 2.26573 20.4916 5.2028L6.66807 16.951C4.98739 18.3776 4 20.4965 4 22.6993V39.1469C4 44.035 7.97059 48 12.8655 48H40.1345C45.0294 48 49 44.035 49 39.1469V22.6993C49 20.4755 48.0336 18.3776 46.3319 16.951H46.3109Z" fill="#FF7F6E"/>
<path d="M41.8117 30.5867L39.0889 28.3349C38.9382 28.2098 38.7552 28.1446 38.5615 28.1446H24.248C23.1127 25.5828 20.4975 23.8314 17.5003 24.0109C14.0618 24.2176 11.2583 27.0241 11.0161 30.4997C10.7363 34.5898 13.9326 38 17.9254 38C20.7612 38 23.1934 36.2759 24.2642 33.812L29.064 33.7576L30.0111 32.1205C30.2156 31.7669 30.6891 31.6962 30.9851 31.9736L32.7447 33.6108C33.0245 33.8718 33.4657 33.7903 33.6379 33.4476L34.2836 32.1803C34.4666 31.8159 34.9401 31.718 35.2522 31.9791L37.1732 33.5944C37.3239 33.7195 37.5122 33.7903 37.706 33.7903H38.6207C38.8144 33.7903 38.9974 33.725 39.1481 33.5999L41.8063 31.408C42.0646 31.1958 42.0646 30.7988 41.8063 30.5867H41.8117ZM15.859 33.2518C14.6268 33.2518 13.6313 32.2456 13.6313 31C13.6313 29.7545 14.6268 28.7483 15.859 28.7483C17.0913 28.7483 18.0868 29.7545 18.0868 31C18.0868 32.2456 17.0913 33.2518 15.859 33.2518Z" fill="white"/>
</svg>
