<svg width="52" height="52" viewBox="0 0 52 52" fill="none" xmlns="http://www.w3.org/2000/svg">
<path d="M46.3109 16.951L32.4874 5.2028C29.042 2.26573 23.958 2.26573 20.4916 5.2028L6.66807 16.951C4.98739 18.3776 4 20.4965 4 22.6993V39.1469C4 44.035 7.97059 48 12.8655 48H40.1345C45.0294 48 49 44.035 49 39.1469V22.6993C49 20.4755 48.0336 18.3776 46.3319 16.951H46.3109Z" fill="#FF7F6E"/>
<path d="M35.4727 20.4116H31.3904V19.3251C31.3904 17.4875 29.957 16 28.1863 16H24.8137C23.043 16 21.6096 17.4875 21.6096 19.3251V20.4116H17.5273C15.5809 20.4116 14 22.0522 14 24.0757V27.5976C14 29.7196 15.6547 31.4368 17.6994 31.4368L17.6327 30.4888C17.601 30.0149 17.9629 29.6102 18.4231 29.6102H21.1529C21.6131 29.6102 21.9785 30.0149 21.9434 30.4888L21.8801 31.4368H31.1128L31.0496 30.4888C31.0145 30.0149 31.3798 29.6102 31.8401 29.6102H34.5698C35.0301 29.6102 35.3919 30.0149 35.3603 30.4888L35.2936 31.4368C37.3383 31.4368 38.993 29.7196 38.993 27.5976V24.0757C38.993 22.0522 37.412 20.4116 35.4657 20.4116H35.4727ZM29.6338 20.4116H23.3662V19.3251C23.3662 18.4974 24.0162 17.823 24.8137 17.823H28.1863C28.9838 17.823 29.6338 18.4974 29.6338 19.3251V20.4116ZM38.3922 31.6482L39 31.0722V37.3395C39 39.363 37.4191 41 35.4727 41H17.5273C15.5809 41 14 39.363 14 37.3395V31.0722L14.6078 31.6482C15.4615 32.4576 16.5787 32.9024 17.7345 32.8951H17.8013L17.8751 33.9597C17.9032 34.39 18.2475 34.7217 18.6655 34.7217H20.921C21.3356 34.7217 21.6799 34.39 21.708 33.9597L21.7818 32.8951H31.2182L31.292 33.9597C31.3201 34.39 31.6644 34.7217 32.079 34.7217H34.3345C34.7525 34.7217 35.0968 34.39 35.1249 33.9597L35.1987 32.8951H35.2655C36.4213 32.9024 37.5385 32.4576 38.3922 31.6482Z" fill="white"/>
</svg>
