<svg width="52" height="52" viewBox="0 0 52 52" fill="none" xmlns="http://www.w3.org/2000/svg">
<rect width="52" height="52" fill="white"/>
<path d="M45.3109 16.951L31.4874 5.2028C28.042 2.26573 22.958 2.26573 19.4916 5.2028L5.66807 16.951C3.98739 18.3776 3 20.4965 3 22.6993V39.1469C3 44.035 6.97059 48 11.8655 48H39.1345C44.0294 48 48 44.035 48 39.1469V22.6993C48 20.4755 47.0336 18.3776 45.3319 16.951H45.3109Z" fill="#FF7F6E"/>
<path d="M36.5033 37.5382C30.7884 35.9509 29.0725 33.9192 29.0725 33.9192C29.0725 33.9192 29.0204 31.7749 29.2258 30.658C30.7623 29.6537 30.7884 27.4401 30.7884 27.4401C30.7884 27.4401 32.3191 27.3506 32.5014 25.7864C32.6837 24.2251 31.9314 24 31.9314 24C31.9314 24 32.1744 22.4214 32.1744 20.3348C32.241 16.0462 29.6743 14.3781 26.3467 14.0202C26.2252 14.0087 26.1181 14.0087 25.9995 14C25.8837 14.0087 25.7738 14.0058 25.6522 14.0202C22.3246 14.3781 19.7608 16.0462 19.8274 20.3348C19.8274 22.4214 20.0704 24 20.0704 24C20.0704 24 19.3181 24.2251 19.5004 25.7864C19.6798 27.3506 21.2134 27.4401 21.2134 27.4401C21.2134 27.4401 21.2395 29.6537 22.776 30.658C22.9814 31.7749 22.9293 33.9192 22.9293 33.9192C22.9293 33.9192 21.2134 35.9509 15.4985 37.5382C14.1096 37.9683 12.7785 38.8802 12.0783 40.5714C11.7976 41.2525 12.3069 42 13.0448 42H38.9542C39.692 42 40.2042 41.2496 39.9206 40.5714C39.2204 38.8773 37.8893 37.9683 36.5004 37.5382H36.5033Z" fill="white"/>
</svg>
