<svg width="116" height="36" viewBox="0 0 116 36" fill="none" xmlns="http://www.w3.org/2000/svg">
<g clip-path="url(#clip0_459_409)">
<path d="M42.7753 19.7688C40.8559 17.6813 40.3807 14.9448 40.3807 12.6641C40.3807 11.0561 40.8356 8.24849 42.5961 6.11184C44.365 4.26493 46.259 3.53125 49.3048 3.53125C50.0962 3.53125 51.2039 3.60242 52.1729 3.8193C52.9255 3.98705 53.5377 4.05991 54.2699 4.17851C54.4086 4.20224 54.4475 4.29882 54.4475 4.44284C54.4475 4.63431 54.3883 4.92236 54.3494 5.78651C54.3105 6.5778 54.3105 7.89944 54.2902 8.25866C54.2699 8.61957 54.231 8.76359 54.1126 8.76359C53.974 8.76359 53.9537 8.59584 53.9537 8.25866C53.9537 7.32334 53.6374 6.33889 53.1233 5.81023C52.43 5.09011 50.908 4.44284 49.1661 4.44284C46.5347 4.44284 45.3086 5.37816 44.6153 6.19486C43.171 7.87572 42.8345 10.0107 42.8345 12.4591C42.8345 17.0442 45.7432 21.2446 49.9761 21.2446C51.4593 21.2446 52.6278 21.0294 53.4193 20.045C53.8353 19.5163 54.0923 18.4607 54.1515 18.0286C54.1904 17.7643 54.231 17.6677 54.3494 17.6677C54.4475 17.6677 54.4881 17.8355 54.4881 18.0286C54.4881 18.1964 54.2513 20.2856 54.0534 21.1006C53.9351 21.5564 53.8945 21.6038 53.5393 21.797C52.7479 22.1816 51.2445 22.3494 49.9778 22.3494C47.0099 22.3494 44.3379 21.4734 42.7736 19.7688H42.7753Z" fill="#7396B9"/>
<path d="M59.646 16.9341C59.5547 16.9341 59.4989 16.9968 59.4617 17.1019L58.6533 19.7265C58.469 20.3145 58.3404 20.8804 58.3404 21.2176C58.3404 21.5954 58.5434 21.7632 58.9476 21.7632H59.0761C59.2418 21.7632 59.2959 21.8259 59.2959 21.9106C59.2959 22.0156 59.1488 22.058 59.0203 22.058C58.6161 22.058 57.7705 21.9953 57.5676 21.9953C57.3833 21.9953 56.5749 22.058 55.8021 22.058C55.5991 22.058 55.5078 22.0156 55.5078 21.9106C55.5078 21.8259 55.5805 21.7632 55.7277 21.7632C55.819 21.7632 55.9847 21.7632 56.0946 21.7428C56.8844 21.6581 57.1972 20.9668 57.5101 20.084L61.1866 9.02121C61.3895 8.41291 61.4437 8.30786 61.5722 8.30786C61.6635 8.30786 61.7379 8.39258 61.9392 8.98054C62.1962 9.67356 64.6974 16.9985 65.6715 19.6231C66.2786 21.282 66.8113 21.5548 67.0684 21.6598C67.3068 21.7649 67.5639 21.7649 67.6941 21.7649C67.8243 21.7649 67.9139 21.8072 67.9139 21.9123C67.9139 22.0173 67.8412 22.0597 67.6383 22.0597C67.4539 22.0597 66.0757 22.0597 64.8445 22.0173C64.4945 21.997 64.3845 21.975 64.3845 21.8699C64.3845 21.8072 64.4403 21.7445 64.5131 21.7225C64.5875 21.6801 64.6974 21.5751 64.5875 21.2616L63.1348 17.0425C63.0976 16.9799 63.0621 16.9375 62.9877 16.9375H59.6409L59.646 16.9341ZM62.7712 16.1987C62.8456 16.1987 62.8456 16.136 62.827 16.0733L61.3743 11.434C61.283 11.1409 61.2644 11.1409 61.1714 11.434L59.7931 16.0733C59.7559 16.1581 59.7931 16.1987 59.8303 16.1987H62.7712Z" fill="#7396B9"/>
<path d="M71.9777 16.912C71.9777 19.3266 72.0504 20.5432 72.3633 20.8787C72.6575 21.1718 73.0245 21.2989 74.2945 21.2989C75.1029 21.2989 75.8385 21.2989 76.2427 20.7109C76.4271 20.3957 76.5556 19.9755 76.5928 19.6621C76.6114 19.4943 76.6486 19.4096 76.7399 19.4096C76.8126 19.4096 76.8498 19.4723 76.8498 19.6824C76.8498 19.8925 76.7399 21.0888 76.63 21.5717C76.5201 21.9919 76.5387 22.0969 75.6559 22.0969C74.4062 22.0969 73.0262 21.9919 71.1879 21.9919C70.5808 21.9919 70.2139 22.0546 69.5695 22.0546C69.3852 22.0546 69.2753 22.0122 69.2753 21.8868C69.2753 21.8241 69.3311 21.7614 69.4782 21.7614C69.6253 21.7614 69.7725 21.7614 69.9196 21.7191C70.2325 21.6564 70.3424 21.2362 70.3982 20.7329C70.5081 19.9349 70.4726 18.4861 70.4726 16.8697V13.7215C70.4726 10.9511 70.4726 10.4885 70.4354 9.92259C70.3982 9.33463 70.3255 8.95678 69.6998 8.87375C69.5898 8.85342 69.3869 8.85342 69.2398 8.85342C69.1112 8.85342 69.0368 8.79073 69.0368 8.70601C69.0368 8.60095 69.1282 8.55859 69.3125 8.55859C70.0853 8.55859 71.1879 8.62129 71.2252 8.62129C71.4822 8.62129 72.6034 8.55859 73.1192 8.55859C73.3035 8.55859 73.3577 8.62129 73.3577 8.70601C73.3577 8.79073 73.2663 8.85342 73.1547 8.85342C73.0262 8.85342 72.8419 8.87375 72.6575 8.89578C72.1434 8.9805 72.0318 9.316 71.9963 9.92429C71.9591 10.4902 71.9777 10.9528 71.9777 13.7232V16.9137V16.912Z" fill="#7396B9"/>
<path d="M79.4102 21.8242C79.1718 21.6988 79.1718 21.6141 79.1718 21.1108C79.1718 20.145 79.2276 19.4317 79.2462 19.1368C79.2648 18.9487 79.302 18.8437 79.3933 18.8437C79.4846 18.8437 79.5218 18.9064 79.5218 19.0538C79.5218 19.1792 79.5218 19.4317 79.5776 19.6841C79.8161 21.0481 80.9018 21.5734 81.9672 21.5734C83.4926 21.5734 84.2282 20.3771 84.2282 19.3266C84.2282 18.1303 83.7496 17.395 82.4086 16.1564L81.6729 15.5057C79.9074 13.8892 79.5404 12.776 79.5404 11.5391C79.5404 9.60746 80.8832 8.30615 82.9413 8.30615C83.5839 8.30615 84.0253 8.36885 84.4312 8.4739C84.7812 8.55862 84.9267 8.57895 85.0569 8.57895C85.1871 8.57895 85.2226 8.62131 85.2226 8.70434C85.2226 8.78736 85.1499 9.52274 85.1499 10.741C85.1499 11.0562 85.1127 11.1816 85.0214 11.1816C84.93 11.1816 84.9114 11.0968 84.8928 10.9511C84.8742 10.763 84.837 10.3208 84.673 9.96498C84.5817 9.7769 84.1589 8.97883 82.6132 8.97883C81.5106 8.97883 80.6836 9.73454 80.6836 10.9935C80.6836 11.9796 81.125 12.5896 82.6504 13.9113L83.0732 14.2891C84.9858 15.9683 85.4813 17.0815 85.4813 18.5709C85.4813 19.3266 85.2057 20.6703 84.0845 21.5514C83.3674 22.0766 82.4847 22.2867 81.6019 22.2867C80.8291 22.2867 80.112 22.1817 79.4136 21.8242H79.4102Z" fill="#7396B9"/>
<path d="M88.106 15.2753C88.106 12.4829 89.8901 8.30615 94.172 8.30615C97.6033 8.30615 100.22 10.7834 100.22 15.0025C100.22 19.2215 97.7758 22.2867 94.0841 22.2867C89.8377 22.2867 88.106 18.4658 88.106 15.2753ZM98.591 15.5277C98.591 11.3086 96.4415 8.95681 94.0672 8.95681C91.6929 8.95681 89.7176 10.7614 89.7176 14.7297C89.7176 18.698 91.6066 21.5734 94.517 21.5734C95.6788 21.5734 98.5893 20.86 98.5893 15.5277H98.591Z" fill="#7396B9"/>
<path d="M104.17 9.16691C104.17 8.51626 104.221 8.30615 104.358 8.30615C104.478 8.30615 104.767 8.72637 104.887 8.87378C105.041 9.08389 107.414 12.0644 109.803 15.0669C111.134 16.663 112.842 18.8251 113.285 19.3283L113.097 10.5953C113.081 9.46174 112.977 9.08389 112.517 8.93647C112.227 8.87378 111.971 8.85175 111.851 8.85175C111.68 8.85175 111.646 8.76703 111.646 8.68401C111.646 8.57895 111.783 8.55862 111.954 8.55862C112.688 8.55862 113.405 8.62131 113.559 8.62131C113.73 8.62131 114.259 8.55862 114.926 8.55862C115.113 8.55862 115.164 8.57895 115.164 8.68401C115.164 8.76873 115.113 8.83142 115.01 8.85175C114.907 8.87209 114.772 8.87209 114.584 8.91445C114.192 9.0195 114.072 9.22961 114.072 10.4886L114.038 21.0261C114.038 22.0749 114.004 22.18 113.884 22.18C113.764 22.18 113.593 22.0326 112.758 21.0668C112.69 21.0244 110.316 18.1287 108.831 16.3427C107.055 14.0756 105.349 11.8932 104.921 11.3459L105.142 19.5537C105.176 21.0024 105.279 21.548 105.706 21.6734C105.979 21.7581 106.269 21.7581 106.406 21.7581C106.543 21.7581 106.61 21.8208 106.61 21.9055C106.61 22.0105 106.526 22.0529 106.336 22.0529C105.415 22.0529 104.799 21.9902 104.681 21.9902C104.562 21.9902 103.93 22.0529 103.196 22.0529C103.042 22.0529 102.941 22.0326 102.941 21.9055C102.941 21.8208 103.008 21.7581 103.179 21.7581C103.299 21.7581 103.487 21.7581 103.708 21.6734C104.084 21.5259 104.17 20.96 104.17 19.4266C104.17 9.4143 104.187 12.6455 104.17 9.16183V9.16691Z" fill="#7396B9"/>
<path d="M46.6345 28.2424C46.6345 27.3122 46.6345 27.0987 46.6193 26.8852C46.604 26.6802 46.5432 26.5734 46.3453 26.5344C46.2844 26.5192 46.1779 26.5107 46.0798 26.5039C46.0105 26.5039 45.9648 26.4819 45.9648 26.4362C45.9648 26.3904 46.0105 26.3667 46.117 26.3667C46.4603 26.3667 46.9237 26.3887 47.0978 26.3887C47.3803 26.3887 47.7675 26.3667 48.0787 26.3667C48.9243 26.3667 49.227 26.6022 49.4029 26.77C49.5466 26.9072 49.7292 27.1665 49.7292 27.6172C49.7292 28.4559 48.9835 29.1032 48.0398 29.1032C48.0094 29.1032 47.9265 29.1032 47.8876 29.0964C47.8572 29.0811 47.803 29.0659 47.803 29.0201C47.803 28.9744 47.8572 28.9591 47.9857 28.9591C48.3966 28.9591 48.8685 28.5542 48.8685 27.9069C48.8685 27.6477 48.8617 27.2207 48.5116 26.9157C48.2749 26.7107 47.9941 26.6785 47.8267 26.6785C47.7286 26.6785 47.6373 26.6852 47.5832 26.7005C47.546 26.709 47.5223 26.7462 47.5223 26.831V29.3844C47.5223 29.9639 47.5223 30.474 47.5612 30.7484C47.5764 30.9382 47.6221 31.0755 47.82 31.0992C47.918 31.1212 48.055 31.1212 48.1463 31.1297C48.2309 31.1297 48.2597 31.1602 48.2597 31.1907C48.2597 31.2364 48.2055 31.2669 48.1379 31.2669C47.688 31.2669 47.2095 31.2449 47.0573 31.2449C46.927 31.2449 46.4485 31.2669 46.1829 31.2669C46.0984 31.2669 46.0527 31.2449 46.0527 31.1992C46.0527 31.1687 46.0832 31.1297 46.1677 31.1297C46.259 31.1229 46.3352 31.1229 46.4028 31.1077C46.5313 31.0772 46.5702 30.9467 46.5922 30.7417C46.6294 30.4739 46.6294 29.986 46.6294 29.3844V28.2407L46.6345 28.2424Z" fill="#7396B9"/>
<path d="M51.1853 28.2424C51.1853 27.2512 51.1853 27.1072 51.1701 26.9004C51.1549 26.6717 51.094 26.5734 50.8877 26.5344C50.8031 26.5192 50.7118 26.5107 50.6289 26.5039C50.5528 26.5039 50.5139 26.4819 50.5139 26.4362C50.5139 26.3904 50.5596 26.3667 50.6594 26.3667C51.001 26.3667 51.466 26.3887 51.5962 26.3887C51.8009 26.3887 52.342 26.3667 52.5703 26.3667C53.0269 26.3667 53.4751 26.4124 53.8184 26.6344C54.0315 26.7717 54.3122 27.1004 54.3122 27.5409C54.3122 28.0289 54.0839 28.4627 53.4227 28.9591C53.9858 29.6606 54.4576 30.2621 54.8534 30.6671C55.2186 31.0551 55.4689 31.0856 55.5924 31.1178C55.66 31.1246 55.7141 31.1246 55.7666 31.1331C55.8274 31.1331 55.8579 31.1636 55.8579 31.1941C55.8579 31.2483 55.8122 31.2703 55.7294 31.2703H55.0901C54.6487 31.2703 54.4593 31.2246 54.2682 31.1263C54.001 30.9806 53.7507 30.6841 53.4007 30.2028C53.1267 29.8216 52.8443 29.4183 52.7462 29.3031C52.7242 29.2726 52.6853 29.2658 52.6397 29.2658L52.1002 29.2506C52.0698 29.2506 52.0461 29.2658 52.0461 29.3031V29.4404C52.0461 30.0283 52.0461 30.4773 52.0765 30.7451C52.0917 30.9348 52.1374 31.0805 52.3437 31.1043C52.435 31.1263 52.572 31.1263 52.6633 31.1348C52.7242 31.1348 52.7479 31.1653 52.7479 31.1958C52.7479 31.2415 52.7022 31.272 52.6194 31.272C52.2169 31.272 51.6825 31.25 51.5844 31.25C51.4711 31.25 51.006 31.272 50.7405 31.272C50.656 31.272 50.6103 31.25 50.6103 31.2042C50.6103 31.1737 50.6408 31.1348 50.7169 31.1348C50.8166 31.128 50.8995 31.128 50.9604 31.1127C51.0889 31.0822 51.1363 30.945 51.1498 30.7467C51.187 30.479 51.187 29.991 51.187 29.3895V28.2458L51.1853 28.2424ZM52.0444 28.7372C52.0444 28.7982 52.0596 28.8287 52.1053 28.8439C52.2423 28.8981 52.4401 28.9202 52.6143 28.9202C52.8578 28.9202 52.9644 28.8897 53.0794 28.8066C53.2688 28.6694 53.4531 28.3881 53.4531 27.8679C53.4531 26.9462 52.8206 26.7022 52.4401 26.7022C52.2811 26.7022 52.1577 26.7107 52.0985 26.7327C52.0596 26.7479 52.0444 26.77 52.0444 26.8242V28.7372Z" fill="#7396B9"/>
<path d="M55.8799 28.8218C55.8799 27.6781 56.6409 26.2751 58.6415 26.2751C60.3157 26.2751 61.3354 27.3053 61.3354 28.6998C61.3354 30.1858 60.292 31.3533 58.5806 31.3533C56.6713 31.3533 55.8799 29.974 55.8799 28.8218ZM60.3461 28.9438C60.3461 27.5646 59.5547 26.6191 58.4436 26.6191C57.6978 26.6191 56.8607 27.0004 56.8607 28.6016C56.8607 29.9283 57.5845 30.9958 58.8478 30.9958C59.3112 30.9958 60.3461 30.806 60.3461 28.9455V28.9438Z" fill="#7396B9"/>
<path d="M62.9657 28.2424C62.9657 27.3122 62.9657 27.0987 62.9505 26.8852C62.9352 26.6802 62.8744 26.5734 62.6765 26.5344C62.6156 26.5192 62.5091 26.5107 62.411 26.5039C62.3417 26.5039 62.296 26.4819 62.296 26.4362C62.296 26.3904 62.3417 26.3667 62.4482 26.3667C62.7915 26.3667 63.2549 26.3887 63.4291 26.3887C63.7115 26.3887 64.0987 26.3667 64.4099 26.3667C65.2555 26.3667 65.5582 26.6022 65.7341 26.77C65.8778 26.9072 66.0604 27.1665 66.0604 27.6172C66.0604 28.4559 65.3147 29.1032 64.371 29.1032C64.3406 29.1032 64.2577 29.1032 64.2188 29.0964C64.1884 29.0811 64.1343 29.0659 64.1343 29.0201C64.1343 28.9744 64.1884 28.9591 64.3169 28.9591C64.7278 28.9591 65.1997 28.5542 65.1997 27.9069C65.1997 27.6477 65.1929 27.2207 64.8428 26.9157C64.6061 26.7107 64.3254 26.6785 64.1579 26.6785C64.0598 26.6785 63.9685 26.6852 63.9144 26.7005C63.8772 26.709 63.8535 26.7462 63.8535 26.831V29.3844C63.8535 29.9639 63.8535 30.474 63.8924 30.7484C63.9076 30.9382 63.9533 31.0755 64.1512 31.0992C64.2492 31.1212 64.3862 31.1212 64.4776 31.1297C64.5621 31.1297 64.5909 31.1602 64.5909 31.1907C64.5909 31.2364 64.5384 31.2669 64.4691 31.2669C64.0193 31.2669 63.5407 31.2449 63.3885 31.2449C63.2582 31.2449 62.7797 31.2669 62.5142 31.2669C62.4296 31.2669 62.3839 31.2449 62.3839 31.1992C62.3839 31.1687 62.4144 31.1297 62.4989 31.1297C62.5903 31.1229 62.6664 31.1229 62.734 31.1077C62.8625 31.0772 62.9014 30.9467 62.9234 30.7417C62.9606 30.4739 62.9606 29.986 62.9606 29.3844V28.2407L62.9657 28.2424Z" fill="#7396B9"/>
<path d="M67.5165 28.2425C67.5165 27.2512 67.5165 27.0767 67.5013 26.8632C67.4861 26.6497 67.432 26.5667 67.2273 26.5209C67.1664 26.5057 67.0599 26.5057 66.9686 26.4972C66.8925 26.4972 66.8553 26.4752 66.8553 26.4294C66.8553 26.3837 66.9009 26.3684 67.0075 26.3684C67.3271 26.3684 67.6315 26.3905 67.9663 26.3905C68.171 26.3905 69.5645 26.3905 69.6862 26.3837C69.8148 26.3684 69.9297 26.3532 69.9906 26.3464C70.0278 26.3396 70.0667 26.3159 70.0972 26.3159C70.1344 26.3159 70.1428 26.3464 70.1428 26.3769C70.1428 26.4227 70.0972 26.5142 70.082 26.7887C70.0752 26.9107 70.0667 27.0411 70.0515 27.2394C70.0515 27.2766 70.0363 27.3461 69.9754 27.3461C69.9297 27.3461 69.9145 27.3088 69.9061 27.2241C69.9061 27.1936 69.9061 27.0937 69.8672 27.0106C69.8215 26.8886 69.7606 26.8209 69.4342 26.7819C69.3057 26.7666 68.6208 26.7514 68.4686 26.7514C68.4382 26.7514 68.423 26.7734 68.423 26.8209V28.3983C68.423 28.4441 68.4297 28.4661 68.4686 28.4661C68.6293 28.4661 69.3581 28.4661 69.5256 28.4593C69.715 28.4441 69.8148 28.4221 69.8756 28.3526C69.9213 28.2916 69.9517 28.2679 69.9822 28.2679C70.0126 28.2679 70.0278 28.2831 70.0278 28.3221C70.0278 28.3678 69.9974 28.5119 69.9754 28.8253C69.9754 28.9541 69.9517 29.2286 69.9517 29.2828C69.9517 29.3371 69.945 29.4048 69.8841 29.4048C69.8384 29.4048 69.8148 29.3354 69.8148 29.2981C69.808 29.2371 69.808 29.1998 69.7928 29.1219C69.7539 28.9778 69.6795 28.8779 69.4123 28.8541C69.2753 28.8389 68.636 28.8321 68.4686 28.8321C68.4314 28.8321 68.423 28.8626 68.423 28.9016V29.3964C68.423 29.6166 68.4162 30.1521 68.423 30.3486C68.4382 30.7976 68.5363 30.8976 69.2364 30.8976C69.4123 30.8976 69.693 30.8976 69.8604 30.8214C70.0363 30.7366 70.1124 30.6079 70.1648 30.3334C70.18 30.2639 70.1953 30.2266 70.2477 30.2266C70.3001 30.2266 70.3018 30.2876 70.3018 30.3554C70.3018 30.5231 70.2477 30.9874 70.2105 31.1179C70.1648 31.2856 70.1039 31.2856 69.852 31.2856C69.1907 31.2856 68.6191 31.2483 67.9427 31.2483C67.6687 31.2483 67.3948 31.2704 67.0751 31.2704C66.9838 31.2704 66.9381 31.2483 66.9381 31.2026C66.9381 31.1721 66.9618 31.1331 67.0531 31.1331C67.1445 31.1263 67.2273 31.1263 67.2882 31.1111C67.4252 31.0806 67.4641 30.9349 67.4861 30.7061C67.5165 30.4401 67.5165 29.9437 67.5165 29.3879V28.2442V28.2425Z" fill="#7396B9"/>
<path d="M71.8915 28.2424C71.8915 27.2512 71.8915 27.1072 71.8762 26.9004C71.861 26.6717 71.8001 26.5734 71.5938 26.5344C71.5093 26.5192 71.4179 26.5107 71.3351 26.5039C71.259 26.5039 71.2201 26.4819 71.2201 26.4362C71.2201 26.3904 71.2657 26.3667 71.3655 26.3667C71.7071 26.3667 72.1722 26.3887 72.3024 26.3887C72.507 26.3887 73.0482 26.3667 73.2765 26.3667C73.7331 26.3667 74.1812 26.4124 74.5245 26.6344C74.7376 26.7717 75.0183 27.1004 75.0183 27.5409C75.0183 28.0289 74.79 28.4627 74.1288 28.9591C74.692 29.6606 75.1638 30.2621 75.5595 30.6671C75.9248 31.0551 76.1751 31.0856 76.2985 31.1178C76.3662 31.1246 76.4203 31.1246 76.4727 31.1331C76.5336 31.1331 76.564 31.1636 76.564 31.1941C76.564 31.2483 76.5184 31.2703 76.4355 31.2703H75.7963C75.3549 31.2703 75.1655 31.2246 74.9744 31.1263C74.7072 30.9806 74.4569 30.6841 74.1068 30.2028C73.8329 29.8216 73.5504 29.4183 73.4524 29.3031C73.4304 29.2726 73.3915 29.2658 73.3458 29.2658L72.8064 29.2506C72.7759 29.2506 72.7522 29.2658 72.7522 29.3031V29.4404C72.7522 30.0283 72.7522 30.4773 72.7827 30.7451C72.7979 30.9348 72.8436 31.0805 73.0499 31.1043C73.1412 31.1263 73.2782 31.1263 73.3695 31.1348C73.4304 31.1348 73.4541 31.1653 73.4541 31.1958C73.4541 31.2415 73.4084 31.272 73.3255 31.272C72.923 31.272 72.3886 31.25 72.2906 31.25C72.1773 31.25 71.7122 31.272 71.4467 31.272C71.3621 31.272 71.3165 31.25 71.3165 31.2042C71.3165 31.1737 71.3469 31.1348 71.423 31.1348C71.5211 31.128 71.6057 31.128 71.6665 31.1127C71.7951 31.0822 71.8424 30.945 71.8559 30.7467C71.8931 30.479 71.8931 29.991 71.8931 29.3895V28.2458L71.8915 28.2424ZM72.7505 28.7372C72.7505 28.7982 72.7658 28.8287 72.8114 28.8439C72.9484 28.8981 73.1463 28.9202 73.3205 28.9202C73.564 28.9202 73.6705 28.8897 73.7855 28.8066C73.9749 28.6694 74.1593 28.3881 74.1593 27.8679C74.1593 26.9462 73.5268 26.7022 73.1463 26.7022C72.9873 26.7022 72.8639 26.7107 72.8047 26.7327C72.7658 26.7479 72.7505 26.77 72.7505 26.8242V28.7372Z" fill="#7396B9"/>
<path d="M78.7253 29.3861C78.7253 29.9656 78.7253 30.4756 78.7557 30.7586C78.7777 30.9348 78.8166 31.0788 79.0212 31.1025C79.1126 31.1178 79.2495 31.1246 79.3493 31.133C79.4254 31.133 79.4626 31.1635 79.4626 31.194C79.4626 31.2398 79.417 31.2703 79.3256 31.2703C78.8843 31.2703 78.4192 31.2483 78.2535 31.2483C78.1013 31.2483 77.6362 31.2703 77.3792 31.2703C77.2878 31.2703 77.2422 31.2398 77.2422 31.194C77.2422 31.1635 77.2726 31.133 77.3555 31.133C77.4468 31.1263 77.5229 31.1263 77.5838 31.111C77.7275 31.0805 77.7664 30.9433 77.7884 30.7518C77.8188 30.4773 77.8188 29.9893 77.8188 29.3878V26.7496C77.5686 26.7496 77.0646 26.7496 76.7619 26.7716C76.3746 26.8021 76.2596 26.8326 76.1683 27.0004C76.1226 27.0851 76.1074 27.1376 76.077 27.2139C76.0618 27.2596 76.0398 27.2901 76.0009 27.2901C75.9552 27.2901 75.94 27.2528 75.94 27.1766C75.9468 27.0393 76.0685 26.4988 76.0837 26.4141C76.099 26.3226 76.1226 26.2769 76.1599 26.2769C76.214 26.2769 76.2732 26.3379 76.4423 26.3531C76.6249 26.3751 76.8989 26.3904 77.1272 26.3904H79.8211C80.0342 26.3904 80.178 26.3684 80.2777 26.3531C80.3775 26.3379 80.4299 26.3226 80.4672 26.3226C80.5128 26.3226 80.5213 26.3599 80.5213 26.4751C80.5213 26.6039 80.4908 27.0766 80.4908 27.2444C80.4824 27.3138 80.4671 27.3511 80.4215 27.3511C80.3674 27.3511 80.3606 27.3138 80.3522 27.2223C80.3522 27.2003 80.3454 27.1681 80.3454 27.1376C80.3302 26.9614 80.1695 26.7869 79.6064 26.7784C79.4237 26.7631 79.143 26.7564 78.7236 26.7479V29.3861H78.7253Z" fill="#7396B9"/>
<path d="M82.0128 28.2424C82.0128 27.2512 82.0128 27.0987 81.9976 26.8852C81.9824 26.6717 81.9131 26.5649 81.7693 26.5344C81.7 26.5192 81.6171 26.5107 81.5326 26.5039C81.4649 26.5039 81.426 26.4819 81.426 26.4277C81.426 26.3887 81.4717 26.3667 81.5782 26.3667C81.8454 26.3667 82.3003 26.3887 82.4678 26.3887C82.62 26.3887 83.0681 26.3667 83.3269 26.3667C83.4182 26.3667 83.4554 26.3887 83.4554 26.4277C83.4554 26.4802 83.4182 26.5039 83.3488 26.5039C83.2795 26.5107 83.2508 26.5107 83.173 26.5277C82.9903 26.5582 82.9379 26.6717 82.9227 26.8937C82.899 27.1004 82.899 27.2529 82.899 28.2424V29.3861C82.899 29.9961 82.9075 30.4909 82.9379 30.7654C82.9531 30.9416 83.0072 31.0772 83.2051 31.1009C83.3032 31.1229 83.3945 31.1229 83.4943 31.1314C83.5771 31.1314 83.6076 31.1687 83.6076 31.2009C83.6076 31.2466 83.5535 31.2686 83.4774 31.2686C83.0292 31.2686 82.5946 31.2466 82.4356 31.2466C82.3054 31.2466 81.8505 31.2686 81.5833 31.2686C81.492 31.2686 81.4463 31.2466 81.4463 31.2009C81.4463 31.1704 81.4768 31.1314 81.5596 31.1314C81.6509 31.1246 81.7034 31.1246 81.7643 31.1094C81.8928 31.0789 81.9537 30.9636 81.9689 30.7806C82.0061 30.5061 82.0061 30.0182 82.0061 29.3861V28.2424H82.0128Z" fill="#7396B9"/>
<path d="M85.3089 28.2425C85.3089 27.2512 85.3089 27.0767 85.2936 26.8632C85.2784 26.6497 85.2243 26.5667 85.0197 26.5209C84.9588 26.5057 84.8523 26.5057 84.7609 26.4972C84.6848 26.4972 84.6476 26.4752 84.6476 26.4294C84.6476 26.3837 84.6933 26.3684 84.7998 26.3684C85.1195 26.3684 85.4239 26.3905 85.7587 26.3905C85.9633 26.3905 87.3568 26.3905 87.4786 26.3837C87.6071 26.3684 87.7221 26.3532 87.783 26.3464C87.8202 26.3396 87.8591 26.3159 87.8895 26.3159C87.9267 26.3159 87.9352 26.3464 87.9352 26.3769C87.9352 26.4227 87.8895 26.5142 87.8743 26.7887C87.8675 26.9107 87.8591 27.0411 87.8439 27.2394C87.8439 27.2766 87.8286 27.3461 87.7678 27.3461C87.7221 27.3461 87.7069 27.3088 87.6984 27.2241C87.6984 27.1936 87.6984 27.0937 87.6595 27.0106C87.6139 26.8886 87.553 26.8209 87.2266 26.7819C87.0981 26.7666 86.4132 26.7514 86.261 26.7514C86.2305 26.7514 86.2153 26.7734 86.2153 26.8209V28.3983C86.2153 28.4441 86.2221 28.4661 86.261 28.4661C86.4216 28.4661 87.1505 28.4661 87.3179 28.4593C87.5073 28.4441 87.6071 28.4221 87.668 28.3526C87.7136 28.2916 87.7441 28.2679 87.7745 28.2679C87.805 28.2679 87.8202 28.2831 87.8202 28.3221C87.8202 28.3678 87.7897 28.5119 87.7678 28.8253C87.7678 28.9541 87.7441 29.2286 87.7441 29.2828C87.7441 29.3371 87.7373 29.4048 87.6764 29.4048C87.6308 29.4048 87.6071 29.3354 87.6071 29.2981C87.6003 29.2371 87.6003 29.1998 87.5851 29.1219C87.5462 28.9778 87.4718 28.8779 87.2046 28.8541C87.0676 28.8389 86.4284 28.8321 86.261 28.8321C86.2238 28.8321 86.2153 28.8626 86.2153 28.9016V29.3964C86.2153 29.6166 86.2085 30.1521 86.2153 30.3486C86.2305 30.7976 86.3286 30.8976 87.0287 30.8976C87.2046 30.8976 87.4853 30.8976 87.6528 30.8214C87.8286 30.7366 87.9047 30.6079 87.9572 30.3334C87.9724 30.2639 87.9876 30.2266 88.04 30.2266C88.0925 30.2266 88.0941 30.2876 88.0941 30.3554C88.0941 30.5231 88.04 30.9874 88.0028 31.1179C87.9572 31.2856 87.8963 31.2856 87.6443 31.2856C86.9831 31.2856 86.4115 31.2483 85.735 31.2483C85.4611 31.2483 85.1871 31.2704 84.8675 31.2704C84.7762 31.2704 84.7305 31.2483 84.7305 31.2026C84.7305 31.1721 84.7542 31.1331 84.8455 31.1331C84.9368 31.1263 85.0197 31.1263 85.0806 31.1111C85.2175 31.0806 85.2564 30.9349 85.2784 30.7061C85.3089 30.4401 85.3089 29.9437 85.3089 29.3879V28.2442V28.2425Z" fill="#7396B9"/>
<path d="M89.4031 31.1856C89.2965 31.1398 89.2746 31.0941 89.2746 30.9653C89.2746 30.5773 89.2965 30.196 89.305 30.0808C89.3118 29.974 89.3354 29.913 89.3895 29.913C89.4504 29.913 89.4589 29.9673 89.4656 30.0198C89.4724 30.1045 89.4724 30.218 89.5113 30.3248C89.6483 30.8196 90.0677 31.0263 90.5006 31.0263C91.1094 31.0263 91.3834 30.6518 91.3834 30.3163C91.3834 30.0113 91.2921 29.7216 90.7289 29.3098L90.4093 29.0658C89.6567 28.4931 89.4132 28.0594 89.4132 27.5256C89.4132 26.8089 90.0288 26.2751 90.9809 26.2751C91.2853 26.2751 91.4679 26.3124 91.6574 26.3446C91.7639 26.3599 91.8552 26.3819 91.9313 26.3904C91.9922 26.3971 92.0074 26.4293 92.0074 26.4751C92.0074 26.5818 91.977 26.7648 91.977 27.2833C91.977 27.429 91.955 27.4816 91.9009 27.4816C91.8552 27.4816 91.8315 27.4358 91.8248 27.3528C91.818 27.2698 91.7707 27.0851 91.6726 26.9411C91.5593 26.7648 91.3462 26.5971 90.9116 26.5971C90.4093 26.5971 90.1201 26.8716 90.1201 27.246C90.1201 27.529 90.2571 27.7798 90.805 28.1526L91.0181 28.2983C91.8704 28.8778 92.1444 29.3268 92.1444 29.9452C92.1444 30.3417 91.977 30.7908 91.4899 31.0957C91.1466 31.3025 90.7594 31.355 90.4093 31.355C89.9984 31.355 89.694 31.3092 89.4048 31.1872L89.4031 31.1856Z" fill="#7396B9"/>
<path d="M96.3435 28.2424C96.3435 27.2512 96.3435 27.0987 96.3282 26.8852C96.313 26.6717 96.2437 26.5649 96.0999 26.5344C96.0306 26.5192 95.9477 26.5107 95.8632 26.5039C95.7955 26.5039 95.7566 26.4819 95.7566 26.4277C95.7566 26.3887 95.8023 26.3667 95.9088 26.3667C96.176 26.3667 96.6309 26.3887 96.7984 26.3887C96.9506 26.3887 97.3987 26.3667 97.6575 26.3667C97.7488 26.3667 97.786 26.3887 97.786 26.4277C97.786 26.4802 97.7488 26.5039 97.6794 26.5039C97.6101 26.5107 97.5814 26.5107 97.5036 26.5277C97.3209 26.5582 97.2685 26.6717 97.2533 26.8937C97.2296 27.1004 97.2296 27.2529 97.2296 28.2424V29.3861C97.2296 29.9961 97.2381 30.4909 97.2685 30.7654C97.2837 30.9416 97.3378 31.0772 97.5357 31.1009C97.6338 31.1229 97.7251 31.1229 97.8249 31.1314C97.9077 31.1314 97.9382 31.1687 97.9382 31.2009C97.9382 31.2466 97.8841 31.2686 97.808 31.2686C97.3598 31.2686 96.9252 31.2466 96.7662 31.2466C96.636 31.2466 96.1811 31.2686 95.9139 31.2686C95.8226 31.2686 95.7769 31.2466 95.7769 31.2009C95.7769 31.1704 95.8074 31.1314 95.8902 31.1314C95.9816 31.1246 96.034 31.1246 96.0949 31.1094C96.2234 31.0789 96.2843 30.9636 96.2995 30.7806C96.3367 30.5061 96.3367 30.0182 96.3367 29.3861V28.2424H96.3435Z" fill="#7396B9"/>
<path d="M99.5228 26.4955C99.5228 26.3515 99.5448 26.26 99.6209 26.26C99.6902 26.26 99.7511 26.3363 99.8644 26.4498C99.9861 26.5565 100.876 27.4783 101.965 28.5C102.459 28.9728 103.311 29.842 103.433 29.9487L103.372 27.1275C103.365 26.7395 103.311 26.6091 103.128 26.5413C103.03 26.5108 102.878 26.5108 102.787 26.5023C102.702 26.5023 102.673 26.465 102.673 26.4261C102.673 26.3718 102.749 26.3651 102.841 26.3651C103.176 26.3651 103.517 26.3871 103.686 26.3871C103.771 26.3871 104.045 26.3651 104.363 26.3651C104.447 26.3651 104.507 26.3803 104.507 26.4345C104.507 26.4718 104.476 26.5023 104.393 26.5023C104.324 26.5091 104.271 26.5091 104.204 26.526C104.006 26.5786 103.945 26.709 103.937 27.075C103.906 28.051 103.891 29.7505 103.869 31.1077C103.869 31.2822 103.83 31.3432 103.771 31.3432C103.686 31.3432 103.588 31.2585 103.443 31.1297C103.017 30.7417 102.203 29.9555 101.571 29.3455C100.901 28.7203 100.155 27.9273 99.9726 27.7358L100.04 30.3808C100.055 30.8756 100.132 31.0366 100.269 31.0823C100.382 31.1213 100.512 31.1213 100.625 31.1281C100.695 31.1281 100.74 31.1501 100.74 31.189C100.74 31.2433 100.68 31.2653 100.588 31.2653C100.192 31.2653 99.9253 31.2433 99.7511 31.2433C99.6665 31.2433 99.3165 31.2653 98.9901 31.2653C98.9055 31.2653 98.8446 31.2585 98.8446 31.1975C98.8446 31.1586 98.8835 31.1281 98.9512 31.1281C99.0357 31.1213 99.149 31.1213 99.2404 31.0976C99.4298 31.0433 99.4619 30.8756 99.4687 30.3113C99.4839 28.9389 99.5211 27.3461 99.5211 26.4921L99.5228 26.4955Z" fill="#7396B9"/>
<path d="M106.289 30.6518C105.628 30.0944 105.452 29.3793 105.452 28.7388C105.452 28.2966 105.596 27.5273 106.243 26.9546C106.746 26.5209 107.392 26.2769 108.381 26.2769C108.792 26.2769 109.051 26.2989 109.355 26.3463C109.614 26.3836 109.812 26.431 110.018 26.4531C110.086 26.4599 110.116 26.4903 110.116 26.5293C110.116 26.5818 110.101 26.6733 110.086 26.9021C110.079 27.1156 110.079 27.4884 110.064 27.6273C110.057 27.7256 110.042 27.7798 109.979 27.7798C109.927 27.7798 109.896 27.7273 109.896 27.6358C109.888 27.446 109.827 27.2173 109.644 27.0343C109.424 26.797 108.914 26.631 108.298 26.631C107.742 26.631 107.37 26.7598 107.08 27.0122C106.615 27.4307 106.472 28.034 106.472 28.6744C106.472 30.1757 107.591 30.9534 108.55 30.9534C109.144 30.9534 109.478 30.8924 109.737 30.6027C109.85 30.4807 109.927 30.2977 109.957 30.1604C109.987 30.0469 110.011 30.0232 110.064 30.0232C110.109 30.0232 110.133 30.0689 110.133 30.1215C110.133 30.2062 110.048 30.7857 109.981 31.0212C109.95 31.1347 109.92 31.1652 109.807 31.211C109.539 31.3177 109.039 31.355 108.611 31.355C107.698 31.355 106.915 31.1788 106.291 30.6535L106.289 30.6518Z" fill="#7396B9"/>
<path d="M11.9495 0.542236V23.8099C4.50512 24.4707 0.164001 29.6251 0.164001 29.6251V0.542236H11.9495Z" fill="#7396B9"/>
<path d="M20.4 13.706V24.9264C18.3724 24.1961 16.1029 23.7403 13.5239 23.7403C13.4613 23.7403 13.3971 23.7403 13.3345 23.7403V13.7043H20.4V13.706Z" fill="#96B0CA"/>
<path d="M37.5903 18.0793V35.4132H37.5108C35.4206 35.4132 33.4183 33.895 31.0964 31.9532V18.0793H37.5903Z" fill="#96B0CA"/>
<path d="M29.8568 7.78589V30.9112C27.5805 28.9931 24.9661 26.8751 21.6904 25.4399V7.78589H29.8568Z" fill="#7396B9"/>
</g>
<defs>
<clipPath id="clip0_459_409">
<rect width="115" height="34.871" fill="white" transform="translate(0.164001 0.542236)"/>
</clipPath>
</defs>
</svg>
