<svg width="93" height="24" viewBox="0 0 93 24" fill="none" xmlns="http://www.w3.org/2000/svg">
<g clip-path="url(#clip0_459_407)">
<path fill-rule="evenodd" clip-rule="evenodd" d="M42.3511 11.6056C45.2451 10.641 45.7692 8.21792 45.7616 6.23543C45.754 3.21233 43.6196 0.591797 37.2999 0.591797H25.5113V23.3183H37.2695C43.6272 23.3183 45.9667 20.0521 45.9667 16.7859C45.9515 14.4768 44.5159 12.4108 42.3511 11.6056ZM31.1094 5.53663H39.0773C39.966 5.68854 40.6193 6.45571 40.6269 7.3596C40.6193 8.30148 39.9357 9.10663 39.0014 9.25854L31.1094 9.27373V5.53663ZM38.6672 18.024H31.1094V14.2186H38.8647C39.8217 14.3173 40.5509 15.1225 40.5585 16.0795C40.5585 17.1277 39.7154 17.986 38.6672 18.024ZM72.3771 0.591797H92.3084V5.55182H77.9144L77.9296 9.22056H90.8956V14.2034H77.9296V18.1683H92.316V23.3638H72.3771V0.591797ZM60.786 0.62218H48.7315V23.3562H54.2688V14.1578H60.3606C62.1077 14.1882 63.4901 15.6238 63.4673 17.3708V23.341H68.8831L68.8755 15.996C68.8755 12.6007 65.5865 11.598 65.5865 11.598C67.683 10.8385 69.0502 8.8028 68.9438 6.56965C68.9438 1.6552 64.7206 0.62218 60.786 0.62218ZM63.8091 7.67863C63.6496 8.55214 62.9128 9.19777 62.0241 9.23575H54.2461V5.59739H62.0317C62.9356 5.59739 63.7028 6.27341 63.8091 7.17731V7.67863ZM21.9185 17.8645C21.8426 17.8645 14.3532 18.0088 11.7706 17.7582C7.60812 17.348 6.13454 14.2717 6.13454 11.7499C6.13454 8.6129 8.26895 6.3038 11.5883 5.87084C13.1606 5.66575 21.7818 5.7645 21.8729 5.7645H22.0552L22.0704 0.591797H21.8881L12.1352 0.614584C10.5173 0.660159 8.91459 0.971584 7.40304 1.54126C5.63322 2.35401 4.09888 3.59212 2.93673 5.14924C1.47835 7.10894 0.695984 9.48641 0.695984 11.9246C0.695984 12.6842 0.75675 13.4514 0.878282 14.2034C1.58469 17.6518 3.8862 20.561 7.08401 22.0422C9.05131 22.8397 11.1477 23.2651 13.267 23.2879L15.0975 23.3259H21.9033L22.078 23.3335L22.1008 17.8645H21.9185Z" fill="#7396B9"/>
</g>
<defs>
<clipPath id="clip0_459_407">
<rect width="91.62" height="22.772" fill="white" transform="translate(0.695984 0.591797)"/>
</clipPath>
</defs>
</svg>
