<svg width="70" height="47" viewBox="0 0 70 47" fill="none" xmlns="http://www.w3.org/2000/svg">
<g clip-path="url(#clip0_459_271)">
<path d="M65.8456 0H4.15435C1.85652 0 0 1.85726 0 4.13903V42.8761C0 45.0745 1.72717 46.8711 3.90326 47H66.1043C68.2804 46.8711 70 45.0745 70 42.8761V4.13903C70 1.85726 68.1435 0 65.8456 0Z" fill="white"/>
<path d="M68.7522 39.9727H1.25543V42.8609H68.7522V39.9727Z" fill="#96B0CA"/>
<path d="M68.7522 37.0315H1.25543V39.9728H68.7522V37.0315Z" fill="#B9CBDC"/>
<path d="M3.97934 45.7493H66.0283C67.5424 45.6583 68.7522 44.4075 68.7522 42.8687L1.25543 42.8611C1.25543 44.4075 2.45761 45.6583 3.97934 45.7493Z" fill="#7396B9"/>
<path d="M65.8456 1.25073H4.15434C2.55652 1.25073 1.25543 2.54702 1.25543 4.14654V37.0465H68.7522V4.14654C68.7522 2.53944 67.4511 1.25073 65.8456 1.25073Z" fill="#7396B9"/>
<path d="M26.2728 18.0267C26.2728 16.1164 25.2609 15.0096 24.462 15.0096C24.013 15.0096 23.663 15.1537 23.3663 15.4797C22.8261 16.0861 22.6207 16.8138 22.6207 18.0722C22.6207 19.0805 22.6891 19.74 23.1609 20.4829C23.4576 20.9529 23.838 21.2334 24.5304 21.2334C25.687 21.2334 26.2728 19.793 26.2728 18.0267ZM27.2011 15.3432C28.0152 16.1543 28.4033 17.0564 28.4033 18.0798C28.4033 19.0501 27.9848 19.9901 27.3228 20.7179C26.6076 21.5138 25.5652 21.9687 24.4011 21.9687C23.3054 21.9687 22.362 21.6579 21.5859 20.7179C20.8174 19.8158 20.6424 19.088 20.6424 18.0343C20.6424 17.2005 21.0609 15.9876 22.1033 15.1613C22.9554 14.4638 23.8609 14.3274 24.5685 14.3274C25.7326 14.3274 26.6076 14.7747 27.2011 15.3432Z" fill="white"/>
<path d="M46.5272 16.7456C46.8924 16.7456 47.1054 16.6395 47.1054 16.5031C47.1054 15.9876 46.9304 14.9642 46.025 14.9642C45.1728 14.9642 44.6478 15.5858 44.4272 16.7456H46.5272ZM44.3739 17.9055C44.3739 19.6718 45.6446 20.7103 46.6337 20.7103C47.7141 20.7103 48.3685 20.2555 48.7413 19.7021C48.8098 19.5808 48.8783 19.5808 48.9543 19.6187L49.213 19.7703C49.2967 19.8234 49.3348 19.8916 49.213 20.119C48.8478 20.7785 47.9652 21.9535 46.0478 21.9535C44.937 21.9535 44.1533 21.711 43.5446 21.0211C42.7456 20.1039 42.5706 19.2321 42.5706 18.1632C42.5706 17.2156 42.6772 16.5713 43.4228 15.601C44.1533 14.6685 44.937 14.3198 46.4511 14.3198C48.437 14.3198 49.0761 16.3818 49.0761 17.0943C49.0761 17.3521 48.9011 17.3748 48.5891 17.3748H44.3815V17.9055H44.3739Z" fill="white"/>
<path d="M51.1304 17.2989C51.1304 16.503 50.9935 16.2225 50.4685 15.9496L50.1565 15.7752C50.0576 15.7373 50.0195 15.707 50.0195 15.6388V15.5326C50.0195 15.4644 50.05 15.4341 50.1565 15.381L52.2641 14.3955C52.3706 14.3652 52.4391 14.3273 52.5456 14.3273C52.6522 14.3273 52.6826 14.4334 52.7054 14.5396L52.8576 15.7828H52.9261C53.5195 14.8125 54.25 14.2212 55.0109 14.2212C55.5663 14.2212 55.9163 14.6078 55.9163 15.093C55.9163 15.5781 55.4293 16.0254 54.9804 16.0254C54.7369 16.0254 54.5315 15.9572 54.3869 15.8889C54.25 15.7828 54.075 15.7449 53.9 15.7449C53.6945 15.7449 53.3826 15.8889 53.1695 16.2528C53.0326 16.4954 52.9565 16.8744 52.9565 17.1018V20.4449C52.9565 20.9983 53.0935 21.1726 53.4435 21.1726H54.2119C54.3108 21.1726 54.3489 21.203 54.3489 21.2939V21.6957C54.3489 21.7791 54.3108 21.817 54.2272 21.817C54.1054 21.817 53.3369 21.7639 52.0663 21.7639C50.7956 21.7639 50.1717 21.817 50.0348 21.817C49.9435 21.817 49.913 21.7791 49.913 21.6957V21.3167C49.913 21.2105 49.9511 21.1726 50.0652 21.1726H50.6739C50.9478 21.1726 51.1228 21.0362 51.1228 20.7026V17.2989H51.1304Z" fill="white"/>
<path d="M56.4565 19.5732C56.4413 19.505 56.4565 19.4519 56.5098 19.4292L56.8446 19.3306C56.913 19.3155 56.9663 19.3155 57.0043 19.3837L57.575 20.354C57.887 20.8771 58.2217 21.2864 59.0739 21.2864C59.7511 21.2864 60.3065 20.8771 60.3065 20.2327C60.3065 19.5429 59.8576 19.2245 58.6402 18.8834C57.4609 18.5347 56.5174 17.951 56.5174 16.7153C56.5174 15.9572 56.7989 15.328 57.4076 14.896C58.0163 14.479 58.5033 14.3198 59.2185 14.3198C60.0707 14.3198 60.5957 14.5321 60.9076 14.7064C61.1663 14.8429 61.2196 14.9111 61.2348 15.0172L61.463 16.1998C61.4783 16.2681 61.4783 16.3514 61.4478 16.3893L61.113 16.541C61.0598 16.5561 61.0065 16.541 60.9761 16.4727L60.1391 15.5403C59.9337 15.3129 59.6141 15.0021 59.0435 15.0021C58.3967 15.0021 57.8413 15.3811 57.8413 15.9876C57.8413 16.7001 58.3663 16.9048 59.4087 17.1777C60.2076 17.3824 60.7022 17.5947 61.1511 18.0798C61.5315 18.4589 61.6685 18.8758 61.6685 19.4671C61.6685 20.9226 60.4891 21.9611 58.7696 21.9611C57.8489 21.9611 57.0804 21.6655 56.8902 21.5139C56.8217 21.4456 56.7685 21.3926 56.7533 21.3243L56.4565 19.5732Z" fill="white"/>
<path d="M41.825 21.1651H41.1326C40.9576 21.1651 40.8891 21.0286 40.8511 20.7178C40.8131 20.5131 40.8131 19.884 40.8131 19.2244V17.3596C40.8131 15.9193 40.8131 14.8125 40.8511 14.5396C40.8663 14.3956 40.8131 14.3273 40.7141 14.3273C40.6076 14.3273 40.4707 14.3652 40.2957 14.4335C39.9989 14.5548 38.2794 15.1612 38.0359 15.2598C37.9446 15.2977 37.9141 15.328 37.9141 15.3962V15.5857C37.9141 15.6539 37.9294 15.707 38.0891 15.7373C38.8881 15.9496 38.9946 16.2907 38.9946 16.8138V19.2548C38.9946 19.7399 38.9794 20.2933 38.9565 20.8164C38.9413 21.0969 38.85 21.1651 38.6826 21.1651C38.6826 21.1651 38.5609 21.1878 37.8228 21.1878C37.0848 21.1878 36.887 21.1651 36.887 21.1651C36.5065 21.1651 36.4685 20.9225 36.4381 20.6117C36.4 20.0962 36.4 18.3299 36.4 17.5339V15.0399C36.4 14.0848 36.4381 10.4839 36.4685 9.55153C36.4685 9.30895 36.4 9.24072 36.2935 9.24072C36.225 9.24072 36.1185 9.27105 35.9131 9.34685C35.3576 9.69556 33.9957 10.1428 33.3033 10.3551C33.1967 10.3854 33.1663 10.4536 33.1663 10.4915V10.6962C33.1663 10.772 33.1663 10.8023 33.2728 10.8402L33.6228 10.9464C34.1783 11.1207 34.475 11.3936 34.5131 11.9849C34.5435 12.4322 34.5815 13.9256 34.5815 15.1385V20.5662C34.5815 21.0514 34.3152 21.1878 34.1478 21.1878C34.1478 21.1878 33.8891 21.2106 33.25 21.2106C32.6109 21.2106 32.3598 21.1878 32.3598 21.1878C31.9717 21.1878 31.9413 20.9452 31.9033 20.6344C31.8652 20.1189 31.8652 18.3527 31.8652 17.5567V15.0627C31.8652 14.1075 31.9033 10.5067 31.9337 9.57427C31.9337 9.33169 31.8652 9.26347 31.7587 9.26347C31.6902 9.26347 31.5837 9.29379 31.3783 9.36959C30.8228 9.7183 29.4685 10.1656 28.7685 10.3778C28.662 10.4081 28.6315 10.4764 28.6315 10.5143V10.7189C28.6315 10.7948 28.6315 10.8251 28.7381 10.863L29.0881 10.9691C29.6435 11.1435 29.9402 11.4164 29.9783 12.0077C30.0163 12.4549 30.0467 13.9483 30.0467 15.1612V20.5889C30.0467 21.0741 29.7881 21.2106 29.6131 21.2106H28.9511C28.7457 21.2106 28.7076 21.2409 28.7076 21.3546V21.6806C28.7076 21.7867 28.7457 21.8549 28.8446 21.8549C28.9131 21.8549 32.2457 21.8246 35.525 21.8246C38.8044 21.8246 41.8022 21.8549 41.8707 21.8549C41.9772 21.8549 42.0076 21.7867 42.0076 21.6806V21.3319C42.0076 21.1954 41.962 21.1651 41.825 21.1651Z" fill="white"/>
<path d="M19.6989 19.2624C19.5848 19.1562 19.387 18.9743 19.3717 18.9591C19.3489 18.9364 19.2881 18.9591 19.2728 18.9819C18.4968 19.9598 17.0663 20.8012 15.2707 20.8012C14.4337 20.8012 13.4294 20.6648 12.2804 19.4443C10.9946 18.057 10.6826 16.0179 10.6826 14.9414C10.6826 12.4474 11.8315 9.95334 14.6087 9.95334C15.9707 9.95334 16.8685 10.5067 17.637 11.2345C18.3674 11.9925 18.7859 12.8643 18.9913 13.4859C19.0446 13.6224 19.0978 13.6982 19.1815 13.6603L19.5087 13.5541C19.5772 13.539 19.6 13.4859 19.5772 13.3798C19.5087 12.8643 19.1587 10.0898 19.1587 9.77899C19.1587 9.5364 19.1283 9.4985 18.9152 9.4985C18.7022 9.4985 18.6718 9.4985 18.6413 9.60463L18.4967 10.0519C18.4663 10.1883 18.3902 10.1883 18.1468 10.0519C17.5228 9.71076 16.237 9.21802 14.6315 9.21802C12.5468 9.21802 11.0478 10.0519 10.112 11.0525C8.89458 12.3716 8.33914 14.0014 8.33914 15.6919C8.33914 17.2156 8.93262 19.2245 10.2185 20.3691C11.2989 21.3395 12.5468 21.999 14.7761 21.999C17.0054 21.999 18.6641 20.7785 19.7141 19.414C19.7446 19.3988 19.7522 19.3079 19.6989 19.2624Z" fill="white"/>
<path d="M40.7522 12.0911C40.7522 12.6748 40.2804 13.1448 39.6946 13.1448C39.1087 13.1448 38.637 12.6748 38.637 12.0911C38.637 11.5074 39.1087 11.0298 39.6946 11.0298C40.2804 11.0298 40.7522 11.5074 40.7522 12.0911Z" fill="white"/>
<path d="M9.65544 24.8721H9.07718V28.7609H9.65544V24.8721Z" fill="white"/>
<path d="M14.4413 28.7534H14.0609L11.763 25.8424V28.7534H11.1924V24.8721H11.7098L13.9467 27.7072V24.9479V24.8721H14.5174V28.7534H14.4413Z" fill="white"/>
<path d="M17.0054 28.7534V25.4179H15.75V24.8721H18.8467V25.4179H17.5913V28.6776V28.7534H17.0054Z" fill="white"/>
<path d="M20.0793 28.7534V24.8721H22.9478V24.9479V25.3345V25.4103H20.6652V26.5247H22.7043V27.0629H20.6652V28.2151H22.9707V28.7534H20.0793Z" fill="white"/>
<path d="M31.9717 28.7534H31.5989L29.3011 25.8424V28.7534H28.7304V24.8721H29.2402L31.4848 27.7072V24.9479V24.8721H32.0554V28.7534H31.9717Z" fill="white"/>
<path d="M36.6131 28.7534L36.1718 27.7679H34.2391L33.7978 28.7534H33.1891L34.962 24.8418H35.4565L37.237 28.7534H36.6131ZM34.475 27.2373H35.9359L35.2055 25.6074L34.475 27.2373Z" fill="white"/>
<path d="M38.8804 28.7534V25.4179H37.625V24.8721H40.7217V25.4179H39.4663V28.6776V28.7534H38.8804Z" fill="white"/>
<path d="M42.5783 24.8721H42V28.7609H42.5783V24.8721Z" fill="white"/>
<path d="M52.5 28.7534H52.1272L49.8293 25.8424V28.7534H49.2587V24.8721H49.7685L52.013 27.7072V24.9479V24.8721H52.5761V28.7534H52.5Z" fill="white"/>
<path d="M57.1413 28.7534L56.7 27.7679H54.7674L54.3261 28.7534H53.7174L55.4978 24.8418H55.9924L57.7652 28.7534H57.1413ZM55.0033 27.2373H56.4641L55.7337 25.6074L55.0033 27.2373Z" fill="white"/>
<path d="M58.9065 28.7534V24.9479V24.8721H59.4848V28.2076H61.5924V28.7534H58.9065Z" fill="white"/>
<path d="M25.9152 26.7672H24.8424V25.4103H25.9228C26.5087 25.4103 26.7978 25.6605 26.7978 26.0698C26.7978 26.5095 26.4554 26.7672 25.9152 26.7672ZM26.425 27.2069C26.9728 27.0705 27.3837 26.6838 27.3837 26.0622C27.3837 25.3421 26.7978 24.8721 25.9533 24.8721H24.2641V28.7609H24.8424V27.313H25.7935L26.8815 28.7609H27.5967L26.425 27.2069Z" fill="white"/>
<path d="M45.9413 28.2759C45.1348 28.2759 44.5489 27.624 44.5413 26.8128C44.5413 25.9941 45.1196 25.3573 45.9261 25.3573C46.7326 25.3573 47.3185 26.0093 47.3185 26.8204C47.3185 27.6315 46.7478 28.2683 45.9413 28.2759ZM45.9413 24.804C44.7543 24.804 43.9478 25.744 43.9478 26.8128C43.9478 27.8817 44.7467 28.8141 45.9337 28.8141C47.1206 28.8141 47.9272 27.8741 47.9272 26.8052C47.9272 25.7364 47.1206 24.804 45.9413 24.804Z" fill="white"/>
</g>
<defs>
<clipPath id="clip0_459_271">
<rect width="70" height="47" fill="white"/>
</clipPath>
</defs>
</svg>
