<svg width="126" height="23" viewBox="0 0 126 23" fill="none" xmlns="http://www.w3.org/2000/svg">
<g clip-path="url(#clip0_459_297)">
<path fill-rule="evenodd" clip-rule="evenodd" d="M97.1798 0.115234H100.386V3.37449H97.1798V0.115234ZM97.1798 6.62808H100.386V9.88733H97.1798V6.62808ZM97.1798 19.6538H100.386V22.913H97.1798V19.6538ZM103.587 13.1409H106.793V16.4002H103.587V13.1409ZM108.925 6.62808H112.131V9.88733H108.925V6.62808ZM115.332 0.115234H118.538V3.37449H115.332V0.115234ZM115.332 13.1409H118.538V16.4002H115.332V13.1409ZM122.807 0.115234H126.014V3.37449H122.807V0.115234Z" fill="#96B0CA"/>
<path fill-rule="evenodd" clip-rule="evenodd" d="M13.4619 4.45536C12.4989 3.66318 11.2799 3.27841 10.0441 3.36894C8.96426 3.35197 7.90109 3.61225 6.94924 4.12717C6.09759 4.45536 5.45189 5.10608 4.92309 5.86431C4.41098 6.69609 4.05474 7.61842 3.85435 8.58035C3.64282 9.61584 3.53706 10.6683 3.5315 11.7264C3.5315 12.711 3.63726 13.6956 3.85435 14.6575C4.05474 15.5515 4.41655 16.3946 4.92309 17.1529C5.35726 17.9224 5.98626 18.5562 6.73772 18.9975C7.6005 19.4275 8.55235 19.6539 9.51533 19.6482C11.2242 19.6482 12.5045 19.2125 13.4674 18.2393C14.436 17.1585 15.0372 15.7892 15.1763 14.3293H18.5941C18.2712 17.0454 17.3138 19.105 15.7107 20.6271C14.2133 22.0361 12.0814 22.8 9.51533 22.8C8.12931 22.8 6.63196 22.5849 5.3517 22.0417C4.22173 21.5834 3.23091 20.8365 2.46832 19.8689C1.61667 18.8221 0.998807 17.5999 0.653693 16.2871C0.219517 14.8442 0.00799561 13.3447 0.00799561 11.8396C0.00799561 10.2949 0.225083 8.76142 0.648126 7.27891C0.987674 5.93221 1.61111 4.67604 2.46276 3.58962C3.20865 2.39569 4.27739 1.63746 5.45189 0.986744C6.84348 0.330367 8.2295 0.115347 9.72685 0.115347C10.8457 0.0983719 11.959 0.245491 13.0388 0.551046C14.0018 0.879234 14.9592 1.30927 15.7107 1.95999C16.4621 2.61071 17.208 3.36894 17.6311 4.34785C18.1599 5.39466 18.4883 6.53766 18.5941 7.71461H15.0705C14.859 6.41317 14.3247 5.21925 13.4674 4.45536H13.4619ZM25.1011 0.658556V5.21925H25.2069C25.8526 3.6745 26.8824 2.32779 28.196 1.30927C29.2648 0.443536 30.7621 0.115347 32.471 0.115347V3.80464C31.3132 3.82727 30.1609 4.00834 29.0532 4.34785C28.157 4.69867 27.3833 5.30412 26.81 6.08498C26.1754 6.87151 25.7357 7.80514 25.5297 8.80103C25.2236 10.0063 25.0789 11.2455 25.1011 12.4903V22.0417H21.7891V0.658556H25.1011ZM48.5911 21.0628C46.988 22.2568 45.0676 22.9075 42.6129 22.9075C41.1155 22.9075 39.6237 22.6925 38.2322 22.0417C37.0298 21.5098 35.9666 20.6894 35.1373 19.6539C34.2912 18.5844 33.6399 17.3735 33.2169 16.0721C32.805 14.55 32.5545 12.9826 32.471 11.4039C32.4598 9.85349 32.7103 8.30874 33.2169 6.84321C33.7512 5.54178 34.3914 4.34785 35.3543 3.36894C36.1837 2.33345 37.2469 1.51298 38.4492 0.981086C39.6961 0.432219 41.0432 0.137981 42.4014 0.115347C44.049 0.019154 45.6911 0.437877 47.0994 1.30927C48.2961 2.0958 49.3203 3.13129 50.0885 4.34785C50.8399 5.58704 51.3799 6.94506 51.6916 8.36533C52.0089 9.75164 52.1202 11.1776 52.0144 12.5978H36.2116C36.2116 13.5145 36.3229 14.4255 36.5344 15.3139C36.7515 16.157 37.1523 16.9322 37.7089 17.5942C38.3045 18.2789 39.0337 18.8334 39.8464 19.2238C40.776 19.6765 41.8113 19.8632 42.8355 19.7671C44.1158 19.8746 45.396 19.4389 46.4648 18.6806C47.4445 17.8602 48.0957 16.7002 48.2794 15.4214H51.6972C51.1628 18.0243 50.1998 19.7614 48.6023 21.0685L48.5911 21.0628ZM47.7395 7.05823C47.4389 6.3283 47.0047 5.66626 46.4592 5.10608C44.6724 3.35197 42.0284 2.83705 39.7295 3.80464C39.0448 4.11019 38.427 4.55155 37.9149 5.10608C37.3638 5.64363 36.963 6.31698 36.7404 7.05823C36.4008 7.80514 36.2171 8.61996 36.206 9.44609H48.3796C48.2794 8.62562 48.0623 7.81646 47.7395 7.05823ZM56.8182 17.5886C57.1299 18.1261 57.5697 18.5731 58.0985 18.89C58.6607 19.2182 59.273 19.4389 59.9131 19.5407C60.5811 19.6652 61.2602 19.7388 61.9393 19.7557C62.5126 19.7727 63.0804 19.7388 63.6481 19.6482C64.1936 19.552 64.728 19.4106 65.2512 19.2125C65.7578 19.0145 66.2031 18.675 66.5315 18.2336C66.8655 17.7583 67.0492 17.1925 67.0659 16.604C67.0659 15.7383 66.743 14.9744 65.9971 14.5443C65.2512 14.0011 64.394 13.6786 63.4366 13.3504C62.3679 13.0222 61.1934 12.8072 60.1246 12.5922C58.978 12.3941 57.8591 12.032 56.8126 11.5058C55.8552 11.0531 54.9869 10.4307 54.2521 9.66111C53.612 8.90288 53.1834 7.81646 53.1834 6.40186C53.1667 5.40597 53.4227 4.42707 53.9293 3.5783C54.3913 2.8031 55.0091 2.1354 55.7439 1.62615C56.5176 1.0886 57.386 0.720799 58.3044 0.539729C59.234 0.234174 60.2081 0.0927135 61.1878 0.10403C62.3011 0.10403 63.4088 0.21154 64.4998 0.432219C65.4461 0.630264 66.3478 0.998061 67.1716 1.51864C67.912 2.0675 68.5298 2.76915 68.9863 3.5783C69.5206 4.55721 69.7321 5.75114 69.8379 6.83755H66.4202C66.4257 5.64363 65.7633 4.54589 64.7113 4.014C64.266 3.68581 63.7539 3.46513 63.214 3.36328C62.6517 3.2388 62.0784 3.16524 61.5051 3.14826C60.9707 3.13129 60.4308 3.16524 59.902 3.25577C59.3899 3.35197 58.8889 3.49343 58.4046 3.69147C57.9816 3.88386 57.6142 4.18375 57.3359 4.55721C57.0353 4.96462 56.885 5.46256 56.9073 5.96616C56.9073 6.50937 57.1188 7.16008 57.5474 7.48827C58.015 7.91265 58.5605 8.2465 59.1505 8.46718C59.8686 8.78405 60.62 9.00473 61.3938 9.1179C62.1897 9.43477 63.0136 9.6894 63.8485 9.87613C64.7169 10.0798 65.5741 10.3345 66.409 10.6344C67.1549 10.8494 67.9064 11.2851 68.6523 11.7208C69.2868 12.1621 69.799 12.7619 70.1496 13.4579C70.5727 14.2557 70.7953 15.1554 70.7898 16.0608C70.7898 17.2547 70.5782 18.3411 70.0439 19.32C69.5373 20.1631 68.8415 20.8704 68.0177 21.3797C67.1494 21.9625 66.1641 22.336 65.1343 22.4661C64.0823 22.6811 63.008 22.7887 61.9281 22.7943C60.8148 22.7943 59.7071 22.6925 58.6161 22.4661C57.6309 22.2285 56.6958 21.8267 55.8385 21.2722C54.9869 20.729 54.3412 19.8632 53.9181 18.9918C53.3838 17.9054 53.1722 16.7115 53.0665 15.5176H56.4842C56.2727 16.2758 56.4842 16.9265 56.8071 17.5772L56.8182 17.5886ZM89.387 22.9075C88.6077 22.9188 87.8506 22.6529 87.2495 22.1493C86.7151 21.606 86.5036 20.7403 86.5036 19.5464C85.6519 20.6328 84.4774 21.4985 83.1916 22.1493C81.9002 22.6698 80.5197 22.9301 79.1337 22.9075C78.232 22.9075 77.3358 22.7943 76.4619 22.5793C75.6603 22.353 74.8977 21.9852 74.2186 21.4929C73.6008 20.9836 73.0942 20.3612 72.7213 19.6482C72.2927 18.7825 72.1869 17.8036 72.1869 16.8247C72.1869 15.7779 72.404 14.7424 72.827 13.7861C73.239 13.0448 73.7845 12.3828 74.4302 11.8339C75.087 11.3021 75.8551 10.9286 76.6734 10.7475L79.2339 10.0968C80.1969 9.88179 81.1543 9.76862 82.0115 9.66111C82.7686 9.57057 83.5145 9.42345 84.2548 9.22541C84.8003 9.08395 85.3124 8.82366 85.7521 8.46718C86.1807 8.03148 86.3923 7.48827 86.2865 6.94506C86.2976 6.26605 86.1529 5.59836 85.8579 4.99291C85.6185 4.52892 85.2456 4.1498 84.7891 3.90649C84.3438 3.68015 83.8818 3.49908 83.4031 3.36328C82.8743 3.27275 82.3399 3.2388 81.8 3.25577C80.5197 3.25577 79.3452 3.47079 78.1707 4.12151C77.2078 4.66472 76.6734 5.75114 76.5676 7.38076H73.1499C73.1666 6.16986 73.4616 4.98159 74.0015 3.90649C74.4302 3.04075 75.0703 2.16935 75.9219 1.62615C76.7736 1.07162 77.7143 0.669873 78.6995 0.432219C79.7683 0.217199 80.837 -0.00347973 82.0115 0.10403C82.9411 0.121006 83.8651 0.194565 84.7891 0.31905C85.6575 0.443536 86.4924 0.737774 87.2439 1.18479C88.0009 1.62615 88.6244 2.26555 89.0585 3.02944C89.5873 3.98571 89.81 5.08344 89.6987 6.17552V17.3566C89.682 17.9733 89.7154 18.5901 89.8044 19.2012C89.9102 19.6369 90.233 19.7444 90.7674 19.7444C91.1292 19.7274 91.491 19.6539 91.8361 19.5294V22.353C91.0903 22.7887 90.233 22.8962 89.3814 22.8962L89.387 22.9075ZM84.5832 11.9415C83.8373 12.049 83.1972 12.2696 82.4457 12.2696C81.6998 12.3772 80.9484 12.4847 80.0967 12.5978C79.3564 12.7167 78.6383 12.9317 77.9592 13.2485C77.3191 13.4636 76.8905 13.8993 76.4619 14.4425C76.0277 15.0762 75.8384 15.8458 75.9275 16.6153C75.9219 17.1415 76.0277 17.6621 76.2504 18.1374C76.4452 18.5335 76.7402 18.8674 77.102 19.1163C77.5083 19.3427 77.937 19.5237 78.3823 19.6595C78.8721 19.784 79.3731 19.8576 79.8796 19.8746C80.8593 19.8915 81.8334 19.7444 82.763 19.4389C83.4922 19.2125 84.1546 18.8051 84.6834 18.2449C85.1565 17.7696 85.5573 17.2208 85.8579 16.6153C86.0638 16.1004 86.1752 15.5459 86.1807 14.9857V11.2964C85.7521 11.5114 85.2177 11.8396 84.5776 11.9471L84.5832 11.9415Z" fill="#7396B9"/>
</g>
<defs>
<clipPath id="clip0_459_297">
<rect width="126" height="22.8261" fill="white" transform="translate(0.00799561 0.0869141)"/>
</clipPath>
</defs>
</svg>
