<svg width="159" height="33" viewBox="0 0 159 33" fill="none" xmlns="http://www.w3.org/2000/svg">
<g clip-path="url(#clip0_459_300)">
<path d="M23.2503 0.041748V32.9584H33.0284V7.36019L23.2503 0.041748Z" fill="#7396B9"/>
<path d="M19.3823 2.92726V32.9583H21.4178V1.39307L19.3823 2.93379V2.92726Z" fill="#7396B9"/>
<path d="M15.5077 32.9585H17.5432V4.37671L15.5077 5.81951V32.965V32.9585Z" fill="#7396B9"/>
<path d="M11.6332 32.9584H13.6686V7.26221L11.6332 8.80293V32.9649V32.9584Z" fill="#7396B9"/>
<path d="M34.8675 14.77V32.9584H44.6455V22.0819L34.8675 14.77Z" fill="#7396B9"/>
<path d="M7.75859 17.6557V32.9585H9.79405V16.2129L7.75859 17.6557Z" fill="#7396B9"/>
<path d="M3.89056 32.9584H5.92602V19.0984L3.89056 20.5412V32.9584Z" fill="#7396B9"/>
<path d="M0.0159912 32.9585H2.05145V21.9841L0.0159912 23.5249V32.9585Z" fill="#7396B9"/>
<path d="M69.8172 18.3282C66.9178 18.3282 65.0787 16.6895 65.0787 13.5167V7.35376H67.4937V13.5167C67.4937 15.2467 68.3642 16.2129 69.9153 16.2129C71.3683 16.2129 72.2388 15.2532 72.2388 13.5167V7.35376H74.6604V13.4187C74.6604 16.7874 72.7231 18.3282 69.8172 18.3282Z" fill="#7396B9"/>
<path d="M81.8205 18.3281C80.1777 18.3281 78.5284 17.7536 77.2718 16.598L78.6266 14.9594C79.5952 15.7298 80.662 16.2129 81.9186 16.2129C82.8873 16.2129 83.4698 15.8277 83.4698 15.2532V15.1553C83.4698 14.5807 83.0836 14.287 81.2445 13.8104C79.1109 13.2359 77.6579 12.5569 77.6579 10.4417C77.6579 8.41784 79.2091 7.1709 81.4343 7.1709C83.0836 7.1709 84.4319 7.65401 85.4987 8.51577L84.2421 10.3437C83.3716 9.67131 82.403 9.28613 81.4343 9.28613C80.5639 9.28613 80.0795 9.67131 80.0795 10.2458C80.0795 10.9183 80.5638 11.2055 82.403 11.6886C84.6282 12.2631 85.8914 13.0335 85.8914 14.9594C85.8914 17.1726 84.2421 18.3281 81.8205 18.3281Z" fill="#7396B9"/>
<path d="M95.9574 18.2366V13.8103H91.5069V18.2366H89.0918V7.36011H91.5069V11.5971H95.9574V7.36011H98.379V18.2366H95.9574Z" fill="#7396B9"/>
<path d="M137.589 18.2366L132.458 11.4012V18.2366H130.135V7.36011H132.36L137.491 14.2934V7.36011H139.815V18.2366H137.589Z" fill="#7396B9"/>
<path d="M90.6364 32.9584L87.2462 28.3363L85.9896 29.6811V32.9519H83.568V22.0754H85.9896V26.8869L90.4401 22.0754H93.3395L88.8889 26.6976L93.5358 32.9519H90.6299L90.6364 32.9584Z" fill="#7396B9"/>
<path d="M96.2519 32.9585V22.082H104.387V24.1973H98.5754V26.4104H103.707V28.5257H98.5754V30.8367H104.485V32.952H96.2519V32.9585Z" fill="#7396B9"/>
<path d="M119.486 32.9585H121.81V22.082H119.486V32.9585Z" fill="#7396B9"/>
<path d="M125.39 32.9585V22.082H133.525V24.1973H127.811V26.4104H132.844V28.5257H127.811V30.8367H133.617V32.952H125.39V32.9585Z" fill="#7396B9"/>
<path d="M137.203 32.9585V22.082H139.618V30.8433H145.044V32.9585H137.203Z" fill="#7396B9"/>
<path d="M152.211 32.9585H147.95V22.082H152.211C155.699 22.082 158.023 24.491 158.023 27.4746V27.5725C158.023 30.6539 155.699 32.965 152.211 32.965V32.9585ZM155.503 27.566C155.503 25.6401 154.148 24.2952 152.211 24.2952H150.372V30.8433H152.211C154.148 30.8433 155.503 29.4984 155.503 27.5725V27.566Z" fill="#7396B9"/>
<path d="M58.0102 16.2129C55.9747 16.2129 54.6199 14.6722 54.6199 12.8442V12.7463C54.6199 10.9183 55.8766 9.37758 57.8138 9.37758C58.8807 9.27965 59.8493 9.76276 60.5234 10.5331L62.0746 8.70514C61.0077 7.74545 59.5613 7.06649 57.8138 7.16442C54.4236 7.16442 52.0085 9.76276 52.1002 12.8442C52.1983 16.0236 54.6199 18.4261 58.0102 18.3281C59.7511 18.3281 61.3023 17.5578 62.2709 16.4022L60.6281 14.8615C60.0456 15.6319 59.077 16.115 58.0167 16.2064L58.0102 16.2129Z" fill="#7396B9"/>
<path d="M110.579 7.36011H113.19V18.2366H110.867V11.114L107.771 15.7362H107.679L104.577 11.114V18.2366H102.352V7.36011H104.865L107.771 11.8844L110.579 7.36011Z" fill="#7396B9"/>
<path d="M120.455 7.36011L115.808 18.2366H118.328L119.296 15.7362H123.943L124.912 18.2366H127.425L122.778 7.36011H120.455ZM120.167 13.6144L121.62 10.1478L123.073 13.6144H120.167Z" fill="#7396B9"/>
<path d="M73.9797 22.082L69.3328 32.9585H71.7544L72.8213 30.5495H77.37L78.4302 32.9585H80.8518L76.205 22.082H73.9797ZM73.5936 28.4343L75.0465 24.8697L76.4995 28.4343H73.5936Z" fill="#7396B9"/>
<path d="M110.291 24.2952V26.6063H115.422V28.8194H110.291V32.9585H107.869V22.082H116.194V24.2952H110.291Z" fill="#7396B9"/>
<path d="M66.7214 22.082L64.2082 29.6877L61.695 22.082H59.3715L56.8583 29.6877L54.3451 22.082H51.7336L55.6998 32.9585H58.1214L60.5431 25.5487L63.0563 32.9585H65.3797L69.3525 22.082H66.7411H66.7214Z" fill="#7396B9"/>
<path d="M155.11 15.5404L156.367 14.0976L154.914 12.5568L153.749 13.8103L152.394 12.1717C153.264 11.6886 153.847 10.7289 153.847 9.76265C153.749 8.22192 152.59 7.16431 151.039 7.16431C150.267 7.16431 149.586 7.45156 149.102 7.93467C148.618 8.41778 148.33 9.09021 148.33 9.86058C148.428 10.7289 148.912 11.4013 149.298 11.8844C148.042 12.3675 147.073 13.7124 147.165 15.0638C147.263 16.8918 148.814 18.4325 150.751 18.4325C151.818 18.4325 152.976 17.858 153.749 16.9897L154.717 18.2432H157.525L155.104 15.5469L155.11 15.5404ZM152.499 15.4424C151.916 16.1149 151.34 16.4021 150.758 16.4021C149.985 16.4021 149.305 15.8276 149.305 14.9593C149.213 14.4762 149.593 13.8038 150.66 13.3207L152.499 15.4359V15.4424ZM151.144 10.9182C150.856 10.6309 150.47 10.2458 150.372 9.86058C150.372 9.47539 150.561 9.09021 151.144 8.99229C151.628 8.99229 151.916 9.37747 151.916 9.86058C151.916 10.3437 151.432 10.7289 151.144 10.9182Z" fill="#7396B9"/>
</g>
<defs>
<clipPath id="clip0_459_300">
<rect width="158" height="32.9167" fill="white" transform="translate(0.0159912 0.041748)"/>
</clipPath>
</defs>
</svg>
