<svg width="133" height="26" viewBox="0 0 133 26" fill="none" xmlns="http://www.w3.org/2000/svg">
<g clip-path="url(#clip0_459_375)">
<path d="M38.1322 11.9561H45.234V19.6749H50.3287V0.302246H45.234V7.79403H38.1322V0.302246H32.9603V19.6749H38.1322V11.9561Z" fill="#7396B9"/>
<path d="M71.4796 19.6749L64.3778 0.302246H57.7392L50.7147 19.6749H56.1954L57.2761 16.2696H64.841L65.9217 19.6749H71.4796ZM58.5111 12.5615L61.1357 4.313L63.7603 12.5615H58.5111Z" fill="#7396B9"/>
<path d="M91.2409 0.302246H86.069V12.3345L76.9602 0.302246H71.7883V19.6749H76.9602V7.64268L86.069 19.6749H91.2409V0.302246Z" fill="#7396B9"/>
<path d="M111.929 0.302246H106.834V12.3345L97.648 0.302246H92.476V19.6749H97.648V7.64268L106.834 19.6749H111.929V0.302246Z" fill="#7396B9"/>
<path d="M118.722 16.2696H126.287L127.367 19.6749H132.848L125.823 0.302246H119.108L112.083 19.6749H117.564L118.722 16.2696ZM122.504 4.313L125.129 12.5615H119.88L122.504 4.313Z" fill="#7396B9"/>
<path d="M34.9673 21.4155C34.427 21.4155 33.8866 21.6426 33.5006 22.0209C32.7287 22.8533 32.7287 24.2155 33.5006 25.0479C33.8866 25.4263 34.427 25.6533 34.9673 25.6533C35.1989 25.6533 35.3533 25.6533 35.5848 25.5776C35.7392 25.5776 35.8936 25.502 36.048 25.4263V24.2155C35.8164 24.5182 35.4305 24.6695 35.0445 24.6695C34.7357 24.6695 34.427 24.5939 34.2726 24.3668C34.041 24.1398 33.9638 23.9128 33.9638 23.6101C33.9638 23.3074 34.041 23.0047 34.2726 22.7777C34.5041 22.5506 34.7357 22.475 35.0445 22.475C35.4305 22.475 35.7392 22.6263 36.048 22.929V21.7182C35.8936 21.6426 35.7392 21.5669 35.5848 21.5669C35.3533 21.4155 35.1989 21.4155 34.9673 21.4155Z" fill="#527CA5"/>
<path d="M39.6761 21.4155C39.0585 21.4155 38.5182 21.6426 38.055 22.0209C37.2059 22.8533 37.2059 24.1398 38.055 24.9722C38.9813 25.8047 40.2936 25.8047 41.2199 24.9722C42.0691 24.1398 42.0691 22.8533 41.2199 22.0209C40.834 21.5669 40.2936 21.4155 39.6761 21.4155ZM40.5252 24.2912C40.062 24.6695 39.3673 24.6695 38.9041 24.2912C38.6726 24.0641 38.5954 23.8371 38.5954 23.5344C38.5954 22.929 39.0585 22.475 39.5989 22.475H39.6761C39.9848 22.475 40.2936 22.5506 40.448 22.7777C40.6796 23.0047 40.7568 23.2317 40.7568 23.5344C40.834 23.7614 40.6796 24.0641 40.5252 24.2912Z" fill="#527CA5"/>
<path d="M46.469 21.4912L45.6971 23.9885L44.9252 21.4912H43.8445L43.2269 25.502H44.3076L44.6164 23.0804L45.3112 25.502H46.0831L46.7778 23.0804L47.1638 25.502H48.2445L47.5498 21.4912H46.469Z" fill="#527CA5"/>
<path d="M53.0304 21.4912L52.3357 23.9885L51.5638 21.4912H50.4059L49.7883 25.502H50.869L51.1778 23.0804L51.9497 25.502H52.6445L53.4164 23.0804L53.7252 25.502H54.8059L54.1883 21.4912H53.0304Z" fill="#527CA5"/>
<path d="M56.5813 25.502H58.9743V24.5939H57.662V23.9128H58.8971V23.0804H57.662V22.3993H58.9743V21.4912H56.5813V25.502Z" fill="#527CA5"/>
<path d="M63.6831 23.5343C63.8374 23.3073 63.9146 23.0803 63.9146 22.7776C63.9146 22.3992 63.7602 22.0208 63.5287 21.7938C63.0655 21.5668 62.6024 21.4154 62.1392 21.4911H60.9041V25.5019H61.9848V23.9127L62.9111 25.5019H64.1462L62.9883 23.9127C63.2199 23.837 63.5287 23.6857 63.6831 23.5343ZM62.6024 23.3073C62.448 23.383 62.2936 23.4587 62.062 23.4587H61.8304V22.3992H62.062C62.2164 22.3992 62.448 22.3992 62.6024 22.5506C62.6795 22.6262 62.7567 22.8533 62.7567 23.0046C62.8339 23.0803 62.7567 23.156 62.6024 23.3073Z" fill="#527CA5"/>
<path d="M67.6971 21.4155C67.1568 21.4155 66.6164 21.6426 66.2304 22.0209C65.4585 22.8533 65.4585 24.2155 66.2304 25.0479C66.6164 25.4263 67.1568 25.6533 67.6971 25.6533C67.9287 25.6533 68.0831 25.6533 68.3147 25.5776C68.469 25.5776 68.6234 25.502 68.7778 25.4263V24.2155C68.5462 24.5182 68.1603 24.6695 67.7743 24.6695C67.4655 24.6695 67.1568 24.5939 67.0024 24.3668C66.7708 24.1398 66.6936 23.9128 66.6936 23.6101C66.6936 23.3074 66.7708 23.0047 67.0024 22.7777C67.2339 22.5506 67.4655 22.475 67.7743 22.475C68.1603 22.475 68.469 22.6263 68.7778 22.929V21.7182C68.6234 21.6426 68.469 21.5669 68.3147 21.5669C68.0831 21.4155 67.9287 21.4155 67.6971 21.4155Z" fill="#527CA5"/>
<path d="M71.634 21.4912H70.5533V25.502H71.634V21.4912Z" fill="#527CA5"/>
<path d="M74.6445 21.4912L73.1779 25.502H74.3358L74.5673 24.8209H76.1112L76.3428 25.502H77.5007L76.034 21.4912H74.6445ZM74.7989 24.0641L75.3393 22.3236L75.8796 24.0641H74.7989Z" fill="#527CA5"/>
<path d="M80.2024 21.4912H79.1217V25.502H81.3603V24.5939H80.2024V21.4912Z" fill="#527CA5"/>
<path d="M89.0024 23.5343C89.1568 23.3073 89.234 23.0803 89.234 22.7776C89.234 22.3992 89.0796 22.0208 88.848 21.7938C88.3849 21.5668 87.9217 21.4154 87.4586 21.4911H86.2235V25.5019H87.3042V23.9127L88.2305 25.5019H89.4656L88.3077 23.9127C88.6165 23.837 88.848 23.6857 89.0024 23.5343ZM87.9217 23.3073C87.7673 23.383 87.6129 23.4587 87.3814 23.4587H87.1498V22.3992H87.3814C87.5357 22.3992 87.7673 22.3992 87.9217 22.5506C87.9989 22.6262 88.0761 22.8533 88.0761 23.0046C88.1533 23.0803 88.0761 23.156 87.9217 23.3073Z" fill="#527CA5"/>
<path d="M91.0866 25.502H93.4796V24.5939H92.1673V23.9128H93.4024V23.0804H92.1673V22.3993H93.4796V21.4912H91.0866V25.502Z" fill="#527CA5"/>
<path d="M96.4129 21.4912L94.9462 25.502H96.1041L96.3357 24.8209H97.8795L98.1111 25.502H99.269L97.8023 21.4912H96.4129ZM96.5672 24.0641L97.1076 22.3236L97.6479 24.0641H96.5672Z" fill="#527CA5"/>
<path d="M101.971 21.4912H100.813V25.502H103.052V24.5939H101.971V21.4912Z" fill="#527CA5"/>
<path d="M107.915 25.502H110.23V24.5939H108.995V23.9128H110.153V23.0804H108.995V22.3993H110.23V21.4912H107.915V25.502Z" fill="#527CA5"/>
<path d="M113.704 23.0047C113.241 22.929 113.009 22.7777 113.009 22.5506C113.009 22.475 113.087 22.3993 113.164 22.3236C113.241 22.2479 113.395 22.2479 113.473 22.2479C113.627 22.2479 113.781 22.2479 113.859 22.3236C114.013 22.3993 114.09 22.475 114.245 22.5506L114.553 21.7182C114.399 21.5669 114.167 21.4912 114.013 21.4155C113.781 21.3398 113.55 21.3398 113.395 21.3398C113.009 21.3398 112.623 21.4155 112.392 21.6425C112.16 21.8696 112.006 22.1723 112.006 22.5506C112.006 22.8533 112.083 23.0804 112.238 23.3074C112.469 23.5344 112.778 23.6858 113.087 23.7614C113.318 23.7614 113.473 23.8371 113.627 23.9885C113.704 24.0641 113.781 24.1398 113.781 24.2912C113.781 24.4425 113.704 24.5182 113.627 24.5939C113.55 24.6695 113.395 24.7452 113.241 24.7452C113.087 24.7452 112.855 24.7452 112.701 24.6695C112.546 24.5939 112.392 24.4425 112.238 24.2912L111.774 25.0479C112.006 25.2749 112.238 25.4263 112.469 25.5019C112.701 25.5776 113.009 25.6533 113.241 25.6533C113.627 25.6533 114.09 25.5776 114.399 25.2749C114.708 25.0479 114.785 24.6695 114.785 24.2912C114.785 23.9885 114.708 23.6858 114.476 23.5344C114.322 23.2317 114.013 23.0804 113.704 23.0047Z" fill="#527CA5"/>
<path d="M116.406 22.3993H117.255V25.502H118.336V22.3993H119.185V21.4912H116.406V22.3993Z" fill="#527CA5"/>
<path d="M121.887 21.4912L120.42 25.502H121.578L121.809 24.8209H123.353L123.585 25.502H124.743L123.276 21.4912H121.887ZM122.041 24.0641L122.581 22.3236L123.122 24.0641H122.041Z" fill="#527CA5"/>
<path d="M126.055 22.3993H126.904V25.502H127.985V22.3993H128.834V21.4912H126.055V22.3993Z" fill="#527CA5"/>
<path d="M132.848 22.3993V21.4912H130.532V25.502H132.848V24.5939H131.536V23.9128H132.771V23.0804H131.536V22.3993H132.848Z" fill="#527CA5"/>
<path d="M12.5041 0.302246H0.847992V11.7291H12.5041V0.302246Z" fill="#7396B9"/>
<path d="M26.6304 0.302246H14.9743V11.7291H26.6304V0.302246Z" fill="#527CA5"/>
<path d="M12.5041 14.1506H0.847992V25.5775H12.5041V14.1506Z" fill="#527CA5"/>
<path d="M26.6304 14.1506H14.9743V25.5775H26.6304V14.1506Z" fill="#7396B9"/>
</g>
<defs>
<clipPath id="clip0_459_375">
<rect width="132" height="25.351" fill="white" transform="translate(0.847992 0.302246)"/>
</clipPath>
</defs>
</svg>
