<svg width="91" height="43" viewBox="0 0 91 43" fill="none" xmlns="http://www.w3.org/2000/svg">
<g clip-path="url(#clip0_459_328)">
<path fill-rule="evenodd" clip-rule="evenodd" d="M54.5739 8.81673H44.3961V9.80505C44.8065 9.838 45.2087 9.89565 45.6109 9.98624C45.931 10.0439 46.2347 10.1839 46.4891 10.3898C47.0965 10.9416 47.0801 11.9629 47.0801 13.816V26.2688C47.0801 28.8055 47.2935 32.3881 43.8954 32.3469C42.1717 32.2234 40.76 30.9386 40.4809 29.2255H39.3154C39.8078 32.5858 41.5069 34.8589 45.6026 34.8589H45.6191C49.0992 34.8589 52.21 33.1705 52.21 27.4218V13.816C52.21 11.9629 52.1936 10.9828 52.801 10.431C53.2935 10.011 53.9255 9.78034 54.5739 9.80505V8.81673ZM66.2456 8.81673H56.0678V9.80505C56.7162 9.78034 57.3482 10.011 57.8407 10.4392C58.3249 10.8757 58.4152 11.5923 58.4317 12.8112V28.9537C58.4317 29.4149 58.4317 29.8267 58.4317 30.1973C58.4152 31.4245 58.3249 32.141 57.8407 32.5775C57.3482 33.0058 56.7162 33.2282 56.0678 33.2117V34.2H71.4412L73.0664 29.2255H71.8762C71.2196 31.2104 69.2743 32.4787 67.1977 32.2728C65.8352 32.2728 64.9241 32.1987 64.2839 31.7539C63.7668 31.408 63.5698 30.4774 63.5616 28.9125V13.816C63.5616 11.9629 63.5452 10.9416 64.1608 10.3898C64.7846 9.99448 65.5151 9.78858 66.2538 9.80505V8.81673H66.2456ZM83.2032 8.81673H73.0254V9.80505C73.6738 9.78034 74.3058 10.011 74.7983 10.4392C75.2825 10.8757 75.3728 11.5923 75.3892 12.8112V28.9537C75.3892 29.4149 75.3892 29.8267 75.3892 30.1973C75.3728 31.4245 75.2825 32.141 74.7983 32.5775C74.3058 33.0058 73.6738 33.2282 73.0254 33.2117V34.2H88.3988L90.024 29.2255H88.8338C88.169 31.2104 86.2319 32.4787 84.1553 32.2728C82.7928 32.2728 81.8817 32.1987 81.2415 31.7539C80.7244 31.408 80.5274 30.4774 80.5192 28.9125V13.816C80.5192 11.9629 80.5028 10.9416 81.1102 10.3898C81.734 9.99448 82.4645 9.78858 83.2032 9.80505V8.81673ZM87.4549 8.73438C87.7011 8.73438 87.9474 8.80026 88.1526 8.93204C88.3824 9.05558 88.563 9.25324 88.6779 9.48385C88.9323 9.9533 88.9323 10.5133 88.6779 10.9828C88.5548 11.2134 88.3742 11.4028 88.1526 11.5346C87.7176 11.7982 87.1758 11.7982 86.7408 11.5346C86.5192 11.4028 86.3386 11.2134 86.2155 10.9828C86.0924 10.7522 86.0267 10.4969 86.0267 10.2333C86.0267 9.96977 86.0924 9.71446 86.2155 9.48385C86.3304 9.25324 86.5192 9.05558 86.7408 8.93204C86.9542 8.80026 87.1922 8.73438 87.4385 8.73438M87.4385 9.03087C87.0281 9.03087 86.6505 9.26148 86.4535 9.62386C86.355 9.81329 86.2976 10.0192 86.2976 10.2333C86.2976 10.4392 86.3468 10.6534 86.4453 10.8345C86.5438 11.0157 86.6916 11.1722 86.8639 11.2793C87.2087 11.5017 87.6519 11.5017 87.9966 11.2793C88.1772 11.1722 88.3249 11.0157 88.4152 10.8345C88.5137 10.6534 88.5712 10.4475 88.563 10.2333C88.563 10.0192 88.5055 9.81329 88.407 9.62386C88.3085 9.44267 88.1608 9.28618 87.9802 9.18735C87.8078 9.08852 87.6191 9.03087 87.4221 9.03087M86.7818 11.0404V9.44267H87.0855C87.3728 9.44267 87.5288 9.4509 87.5698 9.4509C87.6519 9.4509 87.734 9.47561 87.8078 9.51679C87.8653 9.54974 87.9145 9.60739 87.9474 9.66504C87.9884 9.73916 88.0048 9.81329 88.0048 9.89565C88.0048 10.0027 87.972 10.1098 87.8981 10.1921C87.8407 10.2745 87.775 10.3157 87.6601 10.3486C87.6929 10.3898 87.775 10.4722 87.8078 10.5216C87.816 10.5381 87.8571 10.6039 87.9228 10.7192L88.1033 11.0404H87.7258L87.6026 10.7769C87.5534 10.6534 87.4795 10.5463 87.3892 10.4475C87.3236 10.4063 87.2497 10.3816 87.1758 10.3816H87.0938V11.0404H86.7901H86.7818ZM87.0855 10.1345H87.2087C87.3154 10.1345 87.4303 10.1345 87.537 10.1098C87.578 10.0933 87.6109 10.0686 87.6355 10.0357C87.6601 10.0027 87.6765 9.9533 87.6765 9.91212C87.6765 9.87094 87.6601 9.82976 87.6437 9.79682C87.6191 9.76387 87.578 9.73916 87.5452 9.72269C87.4385 9.69798 87.3236 9.68975 87.2169 9.69798H87.0938V10.1345H87.0855Z" fill="#7396B9"/>
<path fill-rule="evenodd" clip-rule="evenodd" d="M18.6806 10.8757C19.485 13.4371 19.9693 16.0891 20.1334 18.774C20.1909 19.6717 20.2155 20.5859 20.2155 21.5001C20.2155 22.4143 20.1909 23.3285 20.1334 24.2344C19.9446 27.5041 19.2552 30.7244 18.0896 33.7882C17.63 34.9659 17.0801 36.1025 16.4481 37.1979C16.3003 37.445 16.1608 37.7085 16.0048 37.9638C15.6847 38.4662 15.3318 38.9604 14.9624 39.4463C14.5438 39.9981 14.0924 40.5252 13.6081 41.0276C13.0992 41.5547 12.5493 42.0406 11.9665 42.4854C11.9255 42.5265 11.8762 42.5595 11.827 42.5924V42.6501C12.9187 42.6089 13.9775 42.3371 14.9542 41.8512C15.4303 41.6206 15.8817 41.3406 16.3085 41.0276C16.3988 40.9617 16.4973 40.9041 16.5794 40.8299C17.1211 40.3934 17.6218 39.924 18.0814 39.4051C18.6888 38.7215 19.2388 37.9803 19.723 37.1979C20.1088 36.5719 20.4617 35.9213 20.7819 35.2706C22.013 32.6516 22.842 29.8596 23.2442 26.9853C23.7613 23.345 23.7613 19.6552 23.2442 16.0149C22.842 13.1488 22.013 10.3568 20.7819 7.73777C20.6341 7.43304 20.4864 7.13654 20.3222 6.84005C19.6574 8.1331 19.1074 9.4838 18.6724 10.8757M21.7996 4.36102C21.9556 4.59163 22.1033 4.814 22.2511 5.04461C24.7545 9.20378 26.1745 13.923 26.3879 18.774C26.4453 19.6717 26.4699 20.5859 26.4782 21.5001C26.4864 22.4143 26.4453 23.3285 26.3879 24.2344C26.1745 29.0854 24.7545 33.8046 22.2511 37.9638C21.931 38.4662 21.5862 38.9604 21.2087 39.4463C20.7901 39.9981 20.3386 40.5252 19.8544 41.0276C19.3455 41.5547 18.8037 42.0406 18.221 42.4854C18.1799 42.5265 18.1307 42.5595 18.0814 42.5924V42.6501C19.1731 42.6089 20.2319 42.3371 21.2087 41.8512C21.6847 41.6206 22.1362 41.3488 22.563 41.0358C22.6533 40.9617 22.7518 40.9041 22.8338 40.8299C24.6314 39.3145 26.0678 37.4202 27.0363 35.2706C28.2675 32.6516 29.0965 29.8596 29.4987 26.9853C29.7613 25.1651 29.8927 23.3367 29.8844 21.5001C29.8844 19.6635 29.7613 17.8351 29.4905 16.0149C29.0883 13.1488 28.2593 10.3568 27.0281 7.73777C26.1252 5.76114 24.8366 3.98216 23.2278 2.51616C22.7107 3.10091 22.2347 3.71861 21.7832 4.36102M24.3359 0.40775C25.9939 1.68433 27.4057 3.2574 28.5055 5.04461C31.0089 9.20378 32.4289 13.923 32.6423 18.774C32.6998 19.6717 32.7326 20.5859 32.7326 21.5001C32.7326 22.4143 32.6998 23.3285 32.6423 24.2344C32.4289 29.0854 31.0089 33.8046 28.5055 37.9638C27.4057 39.751 25.9939 41.3159 24.3359 42.5924V42.6501C26.076 42.5677 27.7422 41.9253 29.0883 40.8299C30.8858 39.3145 32.3222 37.4202 33.2907 35.2706C34.5219 32.6516 35.3509 29.8596 35.7531 26.9853C36.2702 23.345 36.2702 19.6552 35.7531 16.0149C35.3509 13.1488 34.5219 10.3568 33.2907 7.73777C32.3222 5.58818 30.8858 3.68567 29.0883 2.17025C27.734 1.07486 26.0678 0.432457 24.3359 0.350098V0.40775ZM24.3359 0.350098C23.2442 0.383042 22.1772 0.654829 21.2087 1.14899C20.7326 1.3796 20.2812 1.65962 19.8544 1.97259C19.7641 2.03847 19.6656 2.09613 19.5835 2.17025C19.0418 2.60676 18.5411 3.08444 18.0814 3.60331C17.4658 4.2869 16.9159 5.02813 16.4399 5.81055C16.0541 6.43649 15.7011 7.07889 15.381 7.73777C14.1498 10.3568 13.3208 13.1488 12.9186 16.0149C12.4016 19.6552 12.4016 23.345 12.9186 26.9853C13.3208 29.8596 14.1498 32.6516 15.381 35.2706C15.5288 35.5671 15.6765 35.8636 15.8407 36.1601C16.5055 34.8671 17.0554 33.5164 17.4905 32.1245C16.6861 29.5631 16.2018 26.9111 16.0377 24.2344C15.9802 23.3285 15.9556 22.4143 15.9556 21.5001C15.9556 20.5859 15.972 19.6717 16.0377 18.774C16.2264 15.4961 16.9159 12.2758 18.0814 9.21201C18.5411 8.03427 19.091 6.8977 19.723 5.81055C19.8708 5.55524 20.0103 5.29169 20.1663 5.04461C20.4864 4.53397 20.8393 4.03982 21.2087 3.55389C21.6273 3.00208 22.0787 2.47498 22.563 1.97259C23.0719 1.44548 23.6136 0.95956 24.1964 0.514817C24.2456 0.481873 24.2866 0.440693 24.3359 0.40775V0.350098ZM18.0814 0.350098C16.9898 0.383042 15.9228 0.654829 14.9542 1.14899C14.4782 1.3796 14.0267 1.65962 13.5999 1.97259C13.5096 2.03847 13.4111 2.09613 13.329 2.17025C11.5315 3.68567 10.0951 5.58818 9.12659 7.73777C7.89539 10.3568 7.06639 13.1488 6.66421 16.0149C6.14711 19.6552 6.14711 23.345 6.66421 26.9853C7.06639 29.8596 7.89539 32.6516 9.12659 35.2706C10.0295 37.2473 11.3263 39.018 12.9269 40.484C13.444 39.8993 13.9282 39.2816 14.3715 38.6392C14.2155 38.4168 14.0678 38.1862 13.92 37.9638C11.4166 33.8046 9.99663 29.0854 9.78322 24.2344C9.72576 23.3285 9.69293 22.4143 9.69293 21.5001C9.69293 20.5859 9.72576 19.6717 9.78322 18.774C9.99663 13.923 11.4166 9.20378 13.92 5.04461C14.2401 4.53397 14.5931 4.03982 14.9624 3.55389C15.381 3.00208 15.8325 2.47498 16.3167 1.97259C16.8256 1.44548 17.3756 0.95956 17.9583 0.514817C18.0076 0.481873 18.0486 0.440693 18.0979 0.40775V0.350098H18.0814ZM11.827 0.350098C10.0869 0.432457 8.4207 1.07486 7.0746 2.17025C5.27706 3.68567 3.84068 5.58818 2.87214 7.73777C1.63274 10.3568 0.803741 13.1488 0.401552 16.0149C0.179938 17.5633 0.0486106 19.1281 0.0239868 20.693V22.3484C0.0568185 23.8968 0.179938 25.4451 0.401552 26.9853C0.803741 29.8596 1.63274 32.6516 2.86393 35.2706C3.83247 37.412 5.26886 39.3145 7.06639 40.8299C8.4207 41.9253 10.0869 42.5677 11.8188 42.6501V42.5924C10.1608 41.3159 8.74902 39.7428 7.64916 37.9638C5.14574 33.8046 3.72576 29.0854 3.51236 24.2344C3.4549 23.3285 3.43028 22.4143 3.42207 21.5001C3.41386 20.5859 3.4467 19.6717 3.51236 18.774C3.72576 13.923 5.14574 9.20378 7.64916 5.04461C8.75723 3.2574 10.169 1.68433 11.827 0.40775V0.350098ZM19.1813 40.484C19.6984 39.8993 20.1745 39.2816 20.6259 38.6392C20.4699 38.4168 20.3222 38.1862 20.1745 37.9638C20.0185 37.7085 19.879 37.4532 19.7312 37.1979C19.247 37.9803 18.697 38.7215 18.0896 39.4051C18.4344 39.784 18.8037 40.1463 19.1895 40.484M22.5712 41.0358C22.1444 41.3488 21.6929 41.6206 21.2169 41.8512C22.1936 42.3454 23.2606 42.6171 24.3441 42.6501V42.5924C23.7121 42.123 23.1211 41.6041 22.5712 41.0358ZM17.4987 42.6089C17.671 42.5924 17.8352 42.5595 18.0076 42.5265C17.8352 42.403 17.6628 42.2712 17.4987 42.1312C17.0801 41.7853 16.6861 41.4229 16.3167 41.0276C15.8899 41.3406 15.4385 41.6206 14.9624 41.8512C15.6026 42.1724 16.2921 42.3948 16.998 42.5265C17.1622 42.5595 17.3345 42.5924 17.5069 42.6089M18.0979 42.6501V42.5924C18.0979 42.5924 18.0404 42.5513 18.0158 42.5265C17.8516 42.5595 17.6793 42.5924 17.5069 42.6089C17.7039 42.6336 17.9009 42.6501 18.0979 42.6501ZM16.998 2.51616C16.4809 3.10091 16.0048 3.71861 15.5534 4.36102C15.7093 4.59163 15.8571 4.814 16.0048 5.04461C16.1608 5.29169 16.3003 5.55524 16.4481 5.81055C16.9323 5.02813 17.4823 4.2869 18.0896 3.59507C17.7449 3.21622 17.3756 2.85384 16.9898 2.51616M13.6081 1.97259C14.0349 1.65962 14.4864 1.3796 14.9624 1.14899C13.9857 0.654829 12.9187 0.383042 11.827 0.350098V0.40775C12.459 0.8772 13.0582 1.4043 13.5999 1.97259M21.2087 1.14899C20.5602 0.83602 19.879 0.605413 19.1731 0.473637C19.0089 0.440693 18.8366 0.415985 18.6642 0.391278C18.4672 0.36657 18.2702 0.350098 18.0732 0.350098V0.40775C18.0732 0.40775 18.1307 0.448929 18.1553 0.473637C18.3277 0.597177 18.5 0.728953 18.6642 0.868964C19.0828 1.21488 19.4768 1.57726 19.8461 1.97259C20.273 1.65962 20.7244 1.3796 21.2005 1.14899" fill="#96B0CA"/>
</g>
<defs>
<clipPath id="clip0_459_328">
<rect width="90" height="42.3" fill="white" transform="translate(0.0239868 0.350098)"/>
</clipPath>
</defs>
</svg>
