<svg width="171" height="45" viewBox="0 0 171 45" fill="none" xmlns="http://www.w3.org/2000/svg">
<g clip-path="url(#clip0_459_335)">
<path d="M64.2911 11.6936H66.3066V21.2376H71.1217V23.0334H64.2833V11.7014L64.2911 11.6936Z" fill="#96B0CA"/>
<path d="M73.145 11.6936H80.65V13.4581H75.1605V16.3362H80.3598V18.0301H75.1605V21.2297H80.9402V23.0256H73.145V11.6936Z" fill="#96B0CA"/>
<path d="M83.5829 11.6936H91.0878V13.4581H85.5983V16.3362H90.7977V18.0301H85.5983V21.2297H91.378V23.0256H83.5829V11.6936Z" fill="#96B0CA"/>
<path d="M102.702 12.9558C102.334 12.9558 102.02 13.0734 101.761 13.3087C101.51 13.544 101.377 13.8498 101.377 14.2184C101.377 14.5399 101.463 14.8458 101.644 15.1438C101.816 15.4418 102.067 15.7398 102.381 16.0221C102.6 15.928 102.812 15.8182 103.008 15.7006C103.204 15.5829 103.377 15.4496 103.526 15.3006C103.675 15.1516 103.792 14.9869 103.879 14.8066C103.965 14.6262 104.004 14.4301 104.004 14.2106C104.004 13.8655 103.886 13.5753 103.635 13.3244C103.392 13.0734 103.079 12.948 102.694 12.948M101.761 17.9591C101.549 18.0297 101.346 18.1238 101.165 18.2336C100.977 18.3434 100.812 18.4689 100.671 18.6179C100.53 18.7669 100.412 18.9472 100.326 19.1511C100.24 19.355 100.201 19.5981 100.201 19.8648C100.201 20.1393 100.256 20.3902 100.365 20.6176C100.475 20.8451 100.624 21.0254 100.804 21.1823C100.985 21.3313 101.189 21.4489 101.416 21.5273C101.644 21.6058 101.855 21.6528 102.075 21.6528C102.545 21.6528 102.945 21.5509 103.275 21.347C103.604 21.1431 103.91 20.8529 104.184 20.4843L101.769 17.967L101.761 17.9591ZM106.561 20.3118L109.203 23.0173H106.639L105.392 21.7234C105.016 22.1625 104.569 22.5233 104.028 22.8134C103.494 23.1036 102.82 23.2448 101.996 23.2448C101.495 23.2448 101.016 23.1742 100.553 23.0409C100.099 22.8997 99.6909 22.6958 99.3458 22.4135C99.0007 22.139 98.7184 21.794 98.5145 21.3783C98.3106 20.9705 98.2008 20.4922 98.2008 19.9432C98.2008 19.5276 98.2714 19.1511 98.4126 18.8139C98.5537 18.4767 98.7341 18.1787 98.9694 17.9121C99.2046 17.6454 99.4634 17.418 99.7536 17.222C100.052 17.0337 100.357 16.8691 100.679 16.7279C100.303 16.3436 100.005 15.9437 99.785 15.5359C99.5654 15.1281 99.4556 14.6732 99.4556 14.187C99.4556 13.7008 99.5497 13.293 99.7379 12.9401C99.9261 12.5872 100.169 12.2971 100.475 12.0696C100.781 11.8422 101.118 11.6697 101.502 11.5677C101.879 11.4579 102.271 11.4109 102.663 11.4109C103.055 11.4109 103.463 11.4658 103.839 11.5756C104.216 11.6854 104.553 11.8579 104.843 12.0853C105.133 12.3127 105.361 12.6029 105.541 12.948C105.714 13.293 105.808 13.7008 105.808 14.1557C105.808 14.5164 105.745 14.8536 105.62 15.1595C105.494 15.4653 105.329 15.7398 105.125 15.9907C104.914 16.2417 104.671 16.4613 104.388 16.6573C104.106 16.8455 103.8 17.0181 103.486 17.1671L105.345 19.1041L106.655 17.0416H108.851L106.576 20.3275L106.561 20.3118Z" fill="#7396B9"/>
<path d="M76.1643 34.2634L74.4233 29.6522L72.6431 34.2634H76.1643ZM73.5999 27.2524H75.3409L80.2265 38.5844H77.9209L76.8622 35.9887H71.9452L70.9179 38.5844H68.6593L73.592 27.2524H73.5999Z" fill="#96B0CA"/>
<path d="M87.8021 29.6206C87.5904 29.3461 87.2845 29.1109 86.9003 28.9226C86.5082 28.7344 86.116 28.6403 85.7239 28.6403C85.4887 28.6403 85.2534 28.6717 85.0181 28.7266C84.7829 28.7893 84.5711 28.8756 84.3751 29.0011C84.1869 29.1265 84.03 29.2834 83.9045 29.4794C83.7791 29.6755 83.7163 29.9108 83.7163 30.1931C83.7163 30.4519 83.7712 30.6715 83.881 30.8518C83.9908 31.0322 84.132 31.189 84.3202 31.3145C84.5084 31.44 84.7358 31.5576 85.0024 31.6517C85.2691 31.7458 85.5592 31.8399 85.8808 31.9419C86.2415 32.0595 86.6179 32.1928 87.0101 32.3418C87.4022 32.4908 87.7551 32.6869 88.0844 32.9379C88.4138 33.181 88.6804 33.4947 88.8843 33.8632C89.0882 34.2397 89.198 34.7024 89.198 35.2591C89.198 35.8708 89.0882 36.3963 88.8608 36.8511C88.6334 37.306 88.3354 37.6824 87.9668 37.9804C87.5904 38.2784 87.1591 38.5058 86.6572 38.6548C86.1553 38.8038 85.6298 38.8822 85.073 38.8822C84.3359 38.8822 83.6144 38.7489 82.9164 38.4744C82.2106 38.2 81.6381 37.8 81.1911 37.2668L82.6341 35.9257C82.9086 36.31 83.285 36.6158 83.7477 36.8354C84.2104 37.0629 84.6652 37.1726 85.1201 37.1726C85.3553 37.1726 85.5985 37.1413 85.8416 37.0864C86.0847 37.0236 86.3121 36.9295 86.5082 36.7884C86.7042 36.6472 86.8689 36.4747 86.9865 36.2708C87.112 36.0669 87.1747 35.8003 87.1747 35.4944C87.1747 35.1886 87.1042 34.9455 86.963 34.7494C86.8218 34.5533 86.6336 34.3808 86.4062 34.2397C86.1709 34.0907 85.8965 33.9652 85.5749 33.8632C85.2534 33.7534 84.9162 33.6437 84.5633 33.526C84.2182 33.4241 83.881 33.2908 83.5359 33.1418C83.1987 32.9928 82.8929 32.7967 82.6184 32.5457C82.3439 32.3026 82.1244 31.9968 81.9518 31.6439C81.7793 31.2832 81.693 30.844 81.693 30.3107C81.693 29.7304 81.8107 29.2363 82.0538 28.8207C82.2969 28.4051 82.6106 28.06 83.0027 27.7855C83.3948 27.5111 83.834 27.315 84.328 27.1738C84.8221 27.0405 85.3318 26.9778 85.8416 26.9778C86.4219 26.9778 87.0022 27.0797 87.5982 27.2836C88.1942 27.4875 88.704 27.7934 89.1431 28.1933L87.8335 29.6363L87.8021 29.6206Z" fill="#96B0CA"/>
<path d="M97.6675 29.6206C97.4557 29.3461 97.1499 29.1109 96.7656 28.9226C96.3813 28.7344 95.9814 28.6403 95.5893 28.6403C95.354 28.6403 95.1187 28.6717 94.8835 28.7266C94.6482 28.7893 94.4365 28.8756 94.2404 29.0011C94.0444 29.1265 93.8875 29.2834 93.7699 29.4794C93.6444 29.6755 93.5895 29.9108 93.5895 30.1931C93.5895 30.4519 93.6444 30.6715 93.7464 30.8518C93.8562 31.0322 93.9973 31.189 94.1855 31.3145C94.3737 31.44 94.6012 31.5576 94.8678 31.6517C95.1344 31.7458 95.4246 31.8399 95.7461 31.9419C96.1069 32.0595 96.4833 32.1928 96.8754 32.3418C97.2675 32.4908 97.6204 32.6869 97.9498 32.9379C98.2792 33.181 98.538 33.4947 98.7497 33.8632C98.9536 34.2397 99.0634 34.7024 99.0634 35.2591C99.0634 35.8708 98.9536 36.3963 98.7262 36.8511C98.4987 37.306 98.2007 37.6824 97.8322 37.9804C97.4557 38.2784 97.0166 38.5058 96.5225 38.6548C96.0284 38.8038 95.4952 38.8822 94.9384 38.8822C94.2012 38.8822 93.4797 38.7489 92.7739 38.4744C92.0681 38.2 91.4957 37.8 91.0486 37.2668L92.4916 35.9257C92.7661 36.31 93.1425 36.6158 93.6052 36.8354C94.0679 37.0629 94.5227 37.1726 94.9776 37.1726C95.2129 37.1726 95.456 37.1413 95.6991 37.0864C95.9422 37.0236 96.1696 36.9295 96.3657 36.7884C96.5617 36.6472 96.7264 36.4747 96.844 36.2708C96.9695 36.0669 97.0322 35.8003 97.0322 35.4944C97.0322 35.1886 96.9617 34.9455 96.8283 34.7494C96.6872 34.5533 96.499 34.3808 96.2716 34.2397C96.0363 34.0907 95.7618 33.9652 95.4403 33.8632C95.1188 33.7534 94.7815 33.6437 94.4286 33.526C94.0914 33.4241 93.7464 33.2908 93.4013 33.1418C93.0641 32.9928 92.7504 32.7967 92.4838 32.5457C92.2093 32.3026 91.9897 31.9968 91.8172 31.6439C91.6446 31.2832 91.5584 30.844 91.5584 30.3107C91.5584 29.7304 91.676 29.2363 91.9191 28.8207C92.1622 28.4051 92.4759 28.06 92.868 27.7855C93.2602 27.5111 93.6993 27.315 94.1934 27.1738C94.6874 27.0405 95.1972 26.9778 95.7069 26.9778C96.2872 26.9778 96.8676 27.0797 97.4636 27.2836C98.0517 27.4875 98.5693 27.7934 99.0085 28.1933L97.6988 29.6363L97.6675 29.6206Z" fill="#96B0CA"/>
<path d="M103.392 32.8911C103.392 33.5028 103.487 34.0596 103.675 34.5615C103.863 35.0712 104.13 35.5104 104.475 35.879C104.82 36.2554 105.227 36.5455 105.706 36.7494C106.184 36.9533 106.71 37.0631 107.282 37.0631C107.855 37.0631 108.388 36.9612 108.866 36.7494C109.345 36.5377 109.76 36.2475 110.105 35.879C110.45 35.5104 110.717 35.0634 110.905 34.5615C111.093 34.0517 111.188 33.4949 111.188 32.8911C111.188 32.2872 111.093 31.7618 110.905 31.2599C110.717 30.758 110.45 30.3188 110.113 29.9503C109.768 29.5738 109.36 29.2837 108.882 29.0719C108.404 28.8602 107.87 28.7504 107.282 28.7504C106.694 28.7504 106.161 28.8602 105.69 29.0719C105.22 29.2837 104.804 29.5817 104.467 29.9503C104.13 30.3267 103.863 30.758 103.675 31.2599C103.487 31.7618 103.392 32.3029 103.392 32.8911ZM101.197 32.8911C101.197 31.9814 101.353 31.1658 101.651 30.4365C101.957 29.7071 102.381 29.0876 102.914 28.57C103.455 28.0603 104.09 27.6603 104.835 27.3859C105.58 27.1114 106.388 26.9702 107.259 26.9702C108.129 26.9702 108.96 27.1114 109.705 27.3859C110.45 27.6603 111.093 28.0603 111.642 28.57C112.191 29.0798 112.615 29.7071 112.913 30.4365C113.219 31.1658 113.368 31.9892 113.368 32.8911C113.368 33.7929 113.219 34.585 112.913 35.3143C112.607 36.0436 112.184 36.671 111.642 37.2043C111.101 37.7376 110.45 38.1454 109.705 38.4355C108.96 38.7335 108.145 38.8747 107.259 38.8747C106.372 38.8747 105.573 38.7257 104.835 38.4355C104.09 38.1454 103.455 37.7297 102.914 37.2043C102.373 36.6789 101.949 36.0436 101.651 35.3143C101.346 34.585 101.197 33.7772 101.197 32.8911Z" fill="#96B0CA"/>
<path d="M124.19 29.9108C123.892 29.503 123.5 29.205 123.021 29.0247C122.543 28.8364 122.072 28.7423 121.61 28.7423C121.022 28.7423 120.488 28.8521 120.01 29.0639C119.532 29.2756 119.116 29.5736 118.771 29.9422C118.426 30.3186 118.159 30.7499 117.971 31.2518C117.783 31.7537 117.689 32.2949 117.689 32.883C117.689 33.5026 117.783 34.0672 117.963 34.5769C118.144 35.0867 118.402 35.5258 118.74 35.8944C119.077 36.263 119.477 36.5453 119.947 36.7492C120.418 36.9531 120.943 37.0551 121.531 37.0551C122.12 37.0551 122.676 36.9374 123.147 36.6943C123.617 36.4512 123.994 36.1375 124.284 35.7454L125.899 36.8825C125.398 37.5099 124.786 38.004 124.057 38.349C123.327 38.6941 122.48 38.8666 121.508 38.8666C120.622 38.8666 119.806 38.7176 119.069 38.4275C118.324 38.1373 117.689 37.7217 117.155 37.1962C116.622 36.6708 116.207 36.0356 115.909 35.3063C115.611 34.5769 115.462 33.7692 115.462 32.883C115.462 31.9969 115.618 31.1577 115.932 30.4284C116.246 29.6991 116.677 29.0717 117.226 28.562C117.775 28.0522 118.426 27.6523 119.171 27.3778C119.916 27.1033 120.731 26.9622 121.602 26.9622C121.963 26.9622 122.347 26.9935 122.739 27.0641C123.131 27.1347 123.515 27.2366 123.876 27.3856C124.237 27.5268 124.582 27.7072 124.896 27.9189C125.217 28.1306 125.492 28.3894 125.711 28.6874L124.174 29.903L124.19 29.9108Z" fill="#96B0CA"/>
<path d="M129.836 27.2524H127.821V38.5844H129.836V27.2524Z" fill="#96B0CA"/>
<path d="M139.121 34.2634L137.38 29.6522L135.6 34.2634H139.121ZM136.565 27.2524H138.314L143.199 38.5844H140.894L139.835 35.9887H134.918L133.898 38.5844H131.64L136.573 27.2524H136.565Z" fill="#96B0CA"/>
<path d="M146.313 29.0169H142.839V27.2524H151.802V29.0169H148.328V38.5923H146.313V29.0169Z" fill="#96B0CA"/>
<path d="M153.786 27.2524H161.291V29.0169H155.802V31.895H161.001V33.5968H155.802V36.7964H161.581V38.5923H153.786V27.2603V27.2524Z" fill="#96B0CA"/>
<path d="M170.004 29.6206C169.792 29.3461 169.486 29.1109 169.102 28.9226C168.71 28.7344 168.318 28.6403 167.926 28.6403C167.69 28.6403 167.455 28.6717 167.22 28.7266C166.985 28.7893 166.773 28.8756 166.577 29.0011C166.381 29.1265 166.224 29.2834 166.106 29.4794C165.981 29.6755 165.918 29.9108 165.918 30.1931C165.918 30.4519 165.973 30.6715 166.075 30.8518C166.185 31.0322 166.326 31.189 166.514 31.3145C166.702 31.44 166.93 31.5576 167.196 31.6517C167.463 31.7458 167.753 31.8399 168.075 31.9419C168.435 32.0595 168.812 32.1928 169.204 32.3418C169.588 32.4908 169.949 32.6869 170.278 32.9379C170.6 33.181 170.867 33.4947 171.078 33.8632C171.282 34.2397 171.392 34.7024 171.392 35.2591C171.392 35.8708 171.282 36.3963 171.055 36.8511C170.827 37.306 170.529 37.6824 170.161 37.9804C169.784 38.2784 169.353 38.5058 168.851 38.6548C168.349 38.8038 167.824 38.8822 167.267 38.8822C166.53 38.8822 165.808 38.7489 165.103 38.4744C164.397 38.2 163.824 37.8 163.377 37.2668L164.82 35.9257C165.095 36.31 165.471 36.6158 165.934 36.8354C166.397 37.0629 166.859 37.1726 167.306 37.1726C167.541 37.1726 167.777 37.1413 168.028 37.0864C168.271 37.0236 168.498 36.9295 168.694 36.7884C168.89 36.6472 169.055 36.4747 169.173 36.2708C169.298 36.0669 169.361 35.8003 169.361 35.4944C169.361 35.1886 169.29 34.9455 169.149 34.7494C169.008 34.5533 168.82 34.3808 168.592 34.2397C168.357 34.0907 168.083 33.9652 167.761 33.8632C167.44 33.7534 167.102 33.6437 166.749 33.526C166.412 33.4241 166.067 33.2908 165.722 33.1418C165.377 32.9928 165.071 32.7967 164.805 32.5457C164.53 32.3026 164.31 31.9968 164.138 31.6439C163.965 31.2832 163.879 30.844 163.879 30.3107C163.879 29.7304 163.997 29.2363 164.24 28.8207C164.483 28.4051 164.797 28.06 165.181 27.7855C165.565 27.5111 166.012 27.315 166.506 27.1738C167 27.0405 167.51 26.9778 168.02 26.9778C168.6 26.9778 169.18 27.0797 169.776 27.2836C170.372 27.4875 170.882 27.7934 171.321 28.1933L170.012 29.6363L170.004 29.6206Z" fill="#96B0CA"/>
<mask id="mask0_459_335" style="mask-type:luminance" maskUnits="userSpaceOnUse" x="0" y="5" width="17" height="34">
<path d="M2.79264 5.2627C1.3732 5.28622 0.228241 6.44687 0.228241 7.87415V35.9884C0.228241 37.4314 1.39673 38.5999 2.83969 38.5999H8.86251C8.86251 38.5999 10.7603 38.5999 12.7914 36.2472C13.3639 35.5806 14.7442 33.3613 16.4459 30.5381H14.9637C13.5208 30.5381 12.3523 29.3696 12.3523 27.9267V7.87415C12.3523 6.44687 11.2073 5.28622 9.78788 5.2627H2.79264Z" fill="white"/>
</mask>
<g mask="url(#mask0_459_335)">
<path d="M8.16456 43.2112L-14.3661 27.8561L4.2513 0.541748L26.7898 15.8968L8.1724 43.2112H8.16456Z" fill="#7396B9"/>
</g>
<mask id="mask1_459_335" style="mask-type:luminance" maskUnits="userSpaceOnUse" x="36" y="11" width="22" height="28">
<path d="M42.8035 11.615C42.0115 11.615 40.6469 11.7718 39.7686 12.8541C39.0236 13.7638 38.5844 14.4068 38.459 14.6107C37.8551 15.5753 36.718 17.23 36.4121 17.779C36.4121 17.779 36.2945 17.9907 36.0828 18.3593L44.5916 35.9885C44.8425 36.3101 45.4307 38.6 47.6971 38.6H56.2529C57.5861 38.6 58.3311 37.5099 57.539 36.0042L45.564 13.2226C44.968 12.062 44.0818 11.6699 43.4152 11.6228C43.3682 11.6307 43.18 11.6228 42.8976 11.615H42.7957H42.8035Z" fill="white"/>
</mask>
<g mask="url(#mask1_459_335)">
<path d="M53.7434 44.262L29.5031 27.7463L41.7056 9.83472L65.9459 26.3504L53.7434 44.262Z" fill="url(#paint0_linear_459_335)"/>
</g>
<path d="M30.8834 11.6149H32.0597C32.0597 11.6149 43.4623 11.5757 43.4388 11.6228C43.4074 11.6855 41.0626 11.2699 39.7686 12.854C39.0315 13.7637 38.5845 14.4067 38.459 14.6106C37.8551 15.5674 36.718 17.2299 36.4122 17.7789C36.4122 17.7789 26.2252 35.6356 25.9271 36.3414C25.6291 37.0472 24.5312 38.5999 21.8414 38.5999H8.86252C8.86252 38.5999 10.7603 38.5999 12.7915 36.2473C14.5638 34.1926 23.9431 17.4103 27.08 13.5127C27.08 13.5127 28.5151 11.6149 30.8756 11.6149" fill="#7396B9"/>
</g>
<defs>
<linearGradient id="paint0_linear_459_335" x1="65.3186" y1="26.7349" x2="36.6478" y2="7.19897" gradientUnits="userSpaceOnUse">
<stop stop-color="#7396B9"/>
<stop offset="1" stop-color="#7396B9"/>
</linearGradient>
<clipPath id="clip0_459_335">
<rect width="170.96" height="43.9163" fill="white" transform="translate(0.0400391 0.541748)"/>
</clipPath>
</defs>
</svg>
