<svg width="147" height="22" viewBox="0 0 147 22" fill="none" xmlns="http://www.w3.org/2000/svg">
<g clip-path="url(#clip0_459_435)">
<path d="M35.1155 10.877C35.1155 14.0836 32.2803 15.7896 28.8373 15.7896C25.0442 15.7896 22.1705 14.1456 22.1089 10.7568H26.4714C26.6137 11.9277 27.5101 12.4822 28.9181 12.4822C29.7529 12.4822 30.7723 12.1526 30.7723 11.2686C30.7723 10.3845 29.7952 10.1597 27.9986 9.706C25.552 9.08949 22.5975 8.24809 22.5975 5.12291C22.5975 1.75345 25.3288 0.477783 28.6141 0.477783C31.6302 0.477783 34.4038 1.75345 34.4654 4.95618H30.2453C30.1222 4.15356 29.5528 3.64174 28.391 3.64174C27.4524 3.64174 26.8022 4.07213 26.8022 4.66925C26.8022 5.53391 28.0448 5.65411 30.226 6.18919C32.6727 6.78631 35.1194 7.75179 35.1194 10.8731L35.1155 10.877ZM36.0965 4.40559H40.2166V15.4407H44.479V4.40559H48.6568V0.745324H36.1003V4.40171L36.0965 4.40559ZM54.8966 9.46172H60.8286V6.23572H54.8966V4.24274H61.9904V0.745324H50.6342V15.4368H62.1943V11.7571H54.8966V9.45784V9.46172ZM64.4178 15.4407H68.6803V0.745324H64.4178V15.4368V15.4407ZM80.302 9.00806H80.2597L75.4856 0.745324H71.2231V15.4368H75.3432V7.11589H75.3855L80.0134 15.4368H84.4182V0.745324H80.302V9.00419V9.00806ZM99.8522 11.001C99.8522 12.583 99.2213 13.7734 98.1788 14.514C97.3017 15.1305 96.1591 15.4368 94.6511 15.4368H86.9649V0.745324H94.5088C95.936 0.745324 96.9939 1.09429 97.771 1.69141C98.6481 2.36995 99.1559 3.37808 99.1559 4.58783C99.1559 5.98369 98.5635 6.86774 97.344 7.40282V7.46486C98.9328 7.98055 99.8522 9.33377 99.8522 11.001ZM91.1466 6.46061H93.7971C94.6127 6.46061 95.1628 6.06899 95.1628 5.28964C95.1628 4.51028 94.5934 4.07601 93.7779 4.07601H91.1466V6.46061ZM95.7321 10.6327C95.7321 9.68661 95.0397 9.21357 94.1626 9.21357H91.1466V12.0712H94.1857C95.1012 12.0712 95.736 11.5167 95.736 10.6327H95.7321ZM115.956 8.14728C115.956 12.5443 113.059 15.7896 108.535 15.7896C104.011 15.7896 101.156 12.5443 101.156 8.14728C101.156 3.75031 104.011 0.477783 108.535 0.477783C113.059 0.477783 115.956 3.74643 115.956 8.1434V8.14728ZM111.635 8.14728C111.635 5.74329 110.597 3.91316 108.558 3.91316C106.519 3.91316 105.48 5.74329 105.48 8.14728C105.48 10.5513 106.519 12.3581 108.558 12.3581C110.597 12.3581 111.635 10.5513 111.635 8.14728ZM130.924 15.2158V15.4407H126.723C126.316 15.1537 126.477 13.343 126.173 12.0286C125.908 10.8964 125.419 10.3225 124.177 10.3225H122.199V15.4407H117.937V0.745324H125.173C128.151 0.745324 130.678 2.1218 130.678 5.12291C130.678 6.8057 129.824 7.99994 128.293 8.69787V8.75991C129.474 9.21357 130.086 10.0356 130.332 11.1833C130.72 12.9514 130.393 15.0684 130.924 15.2119V15.2158ZM126.377 5.70064C126.377 4.73517 125.765 4.11866 124.542 4.11866H122.199V7.26323H124.484C125.708 7.26323 126.381 6.72815 126.381 5.70064H126.377ZM141.892 0.745324V9.00419H141.85L137.079 0.745324H132.817V15.4368H136.937V7.11589H136.979L141.607 15.4368H146.012V0.745324H141.896H141.892Z" fill="#7396B9"/>
<path d="M22.8629 18.9187C22.7437 19.1164 22.6821 19.3646 22.6821 19.6554C22.6821 19.9462 22.7437 20.1905 22.8629 20.3921C22.9822 20.5937 23.1438 20.7449 23.3438 20.8496C23.5438 20.9543 23.767 21.0047 24.0132 21.0047C24.2017 21.0047 24.3748 20.9737 24.5287 20.9117C24.6825 20.8496 24.8095 20.7604 24.9172 20.6402C25.0249 20.52 25.1057 20.3766 25.1557 20.2099H25.6443C25.6135 20.4735 25.5212 20.7023 25.3788 20.8884C25.2327 21.0784 25.0442 21.2219 24.8095 21.3227C24.5748 21.4235 24.3094 21.4739 24.0132 21.4739C23.7439 21.4739 23.4977 21.4312 23.2746 21.3498C23.0514 21.2684 22.8552 21.1482 22.6898 20.9931C22.5244 20.838 22.3936 20.648 22.3013 20.4192C22.2089 20.1943 22.1628 19.9384 22.1628 19.6554C22.1628 19.3723 22.2089 19.1126 22.3013 18.8915C22.3936 18.6667 22.5244 18.4767 22.6898 18.3177C22.8552 18.1587 23.0514 18.0385 23.2746 17.9571C23.4977 17.8757 23.7439 17.833 24.0132 17.833C24.3132 17.833 24.5825 17.8834 24.8172 17.9881C25.0519 18.0928 25.2404 18.2363 25.3865 18.4263C25.5327 18.6162 25.6212 18.845 25.652 19.1087H25.1557C25.1096 18.9381 25.0326 18.7946 24.9249 18.6744C24.8172 18.5542 24.6864 18.465 24.5325 18.3991C24.3786 18.3371 24.2055 18.3022 24.017 18.3022C23.7747 18.3022 23.5515 18.3565 23.3476 18.4611C23.1476 18.5658 22.986 18.7171 22.8668 18.9187H22.8629ZM32.0764 18.686C32.238 18.9575 32.3188 19.2832 32.3188 19.6593C32.3188 20.0354 32.238 20.3533 32.0764 20.6247C31.9148 20.8962 31.6956 21.1055 31.4147 21.2529C31.1339 21.4002 30.8108 21.4739 30.4453 21.4739C30.0798 21.4739 29.7605 21.4002 29.4797 21.2529C29.1989 21.1055 28.9758 20.8962 28.818 20.6247C28.6603 20.3533 28.5795 20.0315 28.5795 19.6593C28.5795 19.287 28.6603 18.9575 28.818 18.686C28.9758 18.4146 29.1989 18.2052 29.4797 18.0579C29.7605 17.9106 30.0837 17.8369 30.4453 17.8369C30.8069 17.8369 31.1339 17.9106 31.4147 18.0579C31.6956 18.2052 31.9148 18.4146 32.0764 18.686ZM31.7917 19.6593C31.7917 19.3646 31.734 19.1164 31.6148 18.9148C31.4955 18.7171 31.3378 18.5658 31.1339 18.4611C30.9339 18.3565 30.703 18.3061 30.4453 18.3061C30.1875 18.3061 29.9644 18.3565 29.7605 18.4611C29.5566 18.5658 29.3951 18.7171 29.2758 18.9148C29.1566 19.1126 29.0989 19.3607 29.0989 19.6593C29.0989 19.9578 29.1566 20.206 29.2758 20.4037C29.3951 20.6015 29.5566 20.7527 29.7605 20.8535C29.9644 20.9543 30.1914 21.0047 30.4453 21.0047C30.6992 21.0047 30.9339 20.9543 31.1339 20.8535C31.3339 20.7527 31.4955 20.6015 31.6148 20.4037C31.734 20.206 31.7917 19.9578 31.7917 19.6593ZM37.5199 20.9155L35.9118 17.895H35.3963V21.4196H35.9118V18.9575L37.2467 21.4196H37.7892L39.124 18.9536V21.4196H39.6395V17.895H39.124L37.516 20.9155H37.5199ZM44.9945 20.9155L43.3865 17.895H42.871V21.4196H43.3865V18.9575L44.7214 21.4196H45.2638L46.5987 18.9536V21.4196H47.1142V17.895H46.5987L44.9907 20.9155H44.9945ZM50.8611 19.8919H52.6961V19.4344H50.8611V18.3603H53.1078V17.895H50.3456V21.4196H53.1155V20.9543H50.865V19.8958L50.8611 19.8919ZM58.6359 19.7601C58.5551 19.7872 58.4704 19.8027 58.382 19.8182C58.5166 19.8299 58.6359 19.8493 58.7397 19.8764C58.8821 19.9152 58.9936 19.9888 59.0706 20.0897C59.1475 20.1943 59.186 20.3456 59.186 20.5472V21.4157H58.6628V20.5627C58.6628 20.4231 58.6397 20.3107 58.5935 20.2331C58.5474 20.1517 58.4666 20.0974 58.3512 20.0664C58.2358 20.0354 58.0742 20.016 57.8665 20.016H56.7508V21.4157H56.2353V17.8912H58.0357C58.2858 17.8912 58.5051 17.9299 58.6859 18.0036C58.8667 18.0773 59.0052 18.1897 59.1013 18.3409C59.1975 18.4922 59.2475 18.6822 59.2475 18.9148C59.2475 19.0738 59.2206 19.2095 59.1706 19.3181C59.1206 19.4305 59.0475 19.5197 58.959 19.5933C58.8705 19.667 58.7628 19.7213 58.6397 19.7601H58.6359ZM58.5512 19.384C58.6666 19.2676 58.7282 19.1164 58.7282 18.9264C58.7282 18.7364 58.6705 18.6046 58.5512 18.5077C58.4358 18.4107 58.2627 18.3603 58.0319 18.3603H56.7508V19.5546H58.0319C58.2627 19.5546 58.4358 19.4964 58.5512 19.3801V19.384ZM63.4061 18.4611C63.6061 18.3565 63.8293 18.3022 64.0755 18.3022C64.264 18.3022 64.4371 18.3332 64.591 18.3991C64.7448 18.4611 64.8756 18.5542 64.9833 18.6744C65.0911 18.7946 65.168 18.9381 65.2142 19.1087H65.7104C65.6796 18.845 65.5873 18.6162 65.445 18.4263C65.3026 18.2363 65.1103 18.0889 64.8756 17.9881C64.641 17.8834 64.3755 17.833 64.0716 17.833C63.8023 17.833 63.5561 17.8757 63.333 17.9571C63.1099 18.0385 62.9137 18.1626 62.7483 18.3177C62.5828 18.4767 62.452 18.6667 62.3597 18.8915C62.2674 19.1164 62.2212 19.3723 62.2212 19.6554C62.2212 19.9384 62.2674 20.1905 62.3597 20.4192C62.452 20.6441 62.5828 20.838 62.7483 20.9931C62.9137 21.1482 63.1099 21.2684 63.333 21.3498C63.5561 21.4312 63.8023 21.4739 64.0716 21.4739C64.3678 21.4739 64.6333 21.4235 64.8679 21.3227C65.1026 21.2219 65.2911 21.0784 65.4373 20.8884C65.5835 20.7023 65.672 20.4735 65.7027 20.2099H65.2142C65.1642 20.3766 65.0834 20.52 64.9757 20.6402C64.8679 20.7604 64.7371 20.8496 64.5871 20.9117C64.4332 20.9737 64.264 21.0047 64.0716 21.0047C63.8293 21.0047 63.6061 20.9543 63.4022 20.8496C63.1984 20.7449 63.0406 20.5937 62.9214 20.3921C62.8021 20.1905 62.7406 19.9462 62.7406 19.6554C62.7406 19.3646 62.8021 19.1164 62.9214 18.9187C63.0406 18.7209 63.2022 18.5697 63.4022 18.4611H63.4061ZM68.8957 21.4157H69.4112V17.8912H68.8957V21.4157ZM74.4007 17.8912L75.8395 21.4157H75.2778L74.9354 20.5433H73.3197L72.9773 21.4157H72.4234L73.8506 17.8912H74.4007ZM74.7508 20.0741L74.1237 18.4805L73.5005 20.0741H74.7508ZM79.2594 17.8912H78.7439V21.4157H81.3176V20.9504H79.2594V17.895V17.8912ZM90.3425 19.7601C90.2617 19.7872 90.1771 19.8027 90.0886 19.8182C90.2233 19.8299 90.3425 19.8493 90.4464 19.8764C90.5887 19.9152 90.7003 19.9888 90.7772 20.0897C90.8542 20.1943 90.8927 20.3456 90.8927 20.5472V21.4157H90.3695V20.5627C90.3695 20.4231 90.3464 20.3107 90.3002 20.2331C90.2541 20.1517 90.1733 20.0974 90.0579 20.0664C89.9425 20.0354 89.7809 20.016 89.5731 20.016H88.4575V21.4157H87.942V17.8912H89.7424C89.9925 17.8912 90.2117 17.9299 90.3925 18.0036C90.5734 18.0773 90.7118 18.1897 90.808 18.3409C90.9042 18.4922 90.9542 18.6822 90.9542 18.9148C90.9542 19.0738 90.9273 19.2095 90.8773 19.3181C90.8273 19.4305 90.7542 19.5197 90.6657 19.5933C90.5772 19.667 90.4695 19.7213 90.3464 19.7601H90.3425ZM90.2579 19.384C90.3733 19.2676 90.4349 19.1164 90.4349 18.9264C90.4349 18.7364 90.3772 18.6046 90.2579 18.5077C90.1425 18.4107 89.9694 18.3603 89.7386 18.3603H88.4575V19.5546H89.7386C89.9694 19.5546 90.1425 19.4964 90.2579 19.3801V19.384ZM94.5973 19.888H96.4323V19.4305H94.5973V18.3565H96.8439V17.8912H94.0818V21.4157H96.8516V20.9504H94.6011V19.8919L94.5973 19.888ZM101.626 17.8912L103.064 21.4157H102.503L102.16 20.5433H100.545L100.202 21.4157H99.6483L101.076 17.8912H101.626ZM101.976 20.0741L101.349 18.4805L100.725 20.0741H101.976ZM106.484 17.8912H105.969V21.4157H108.543V20.9504H106.484V17.895V17.8912ZM115.682 19.888H117.518V19.4305H115.682V18.3565H117.929V17.8912H115.167V21.4157H117.937V20.9504H115.686V19.8919L115.682 19.888ZM123.234 19.7484C123.126 19.6709 123.007 19.6089 122.872 19.5585C122.738 19.508 122.599 19.4654 122.457 19.4344C122.265 19.384 122.107 19.3374 121.98 19.2948C121.853 19.2521 121.753 19.2056 121.676 19.1591C121.599 19.1126 121.545 19.0621 121.514 19.004C121.484 18.9458 121.464 18.8799 121.464 18.8062C121.464 18.6318 121.534 18.5038 121.676 18.4224C121.818 18.3409 121.984 18.2983 122.184 18.2983C122.415 18.2983 122.599 18.3526 122.746 18.4573C122.888 18.5658 122.965 18.7403 122.976 18.9885H123.461C123.469 18.6356 123.365 18.3565 123.153 18.1471C122.938 17.9377 122.622 17.833 122.207 17.833C121.938 17.833 121.711 17.8757 121.518 17.9648C121.33 18.054 121.187 18.1703 121.091 18.3177C120.995 18.465 120.945 18.6279 120.945 18.8024C120.945 18.9691 120.984 19.1126 121.061 19.2289C121.137 19.3452 121.241 19.446 121.368 19.5313C121.495 19.6127 121.634 19.6825 121.788 19.7407C121.941 19.7989 122.095 19.8454 122.253 19.8842C122.434 19.9268 122.584 19.9733 122.707 20.016C122.83 20.0625 122.922 20.1168 122.98 20.1827C123.042 20.2486 123.073 20.3378 123.073 20.4503C123.073 20.5627 123.046 20.6596 122.988 20.7411C122.93 20.8225 122.849 20.8884 122.738 20.9349C122.626 20.9815 122.488 21.0047 122.319 21.0047C122.126 21.0047 121.953 20.9737 121.811 20.9078C121.668 20.8419 121.549 20.7527 121.464 20.6402C121.38 20.5278 121.334 20.3998 121.322 20.2564H120.826C120.814 20.3223 120.822 20.4037 120.845 20.5045C120.868 20.6054 120.914 20.7139 120.98 20.8264C121.045 20.9388 121.137 21.0435 121.253 21.1404C121.368 21.2374 121.515 21.3188 121.688 21.3808C121.861 21.4429 122.068 21.4739 122.303 21.4739C122.599 21.4739 122.846 21.4312 123.034 21.3421C123.223 21.2529 123.361 21.1327 123.45 20.9853C123.538 20.8341 123.584 20.6674 123.584 20.4851C123.584 20.3107 123.553 20.1633 123.488 20.047C123.423 19.9307 123.342 19.8299 123.23 19.7523L123.234 19.7484ZM126.265 18.3603H127.535V21.4157H128.058V18.3603H129.328V17.895H126.262V18.3603H126.265ZM133.586 17.895L135.025 21.4196H134.463L134.121 20.5472H132.505L132.163 21.4196H131.609L133.036 17.895H133.586ZM133.936 20.078L133.309 18.4844L132.686 20.078H133.936ZM137.233 18.3642H138.503V21.4196H139.026V18.3642H140.295V17.8989H137.229V18.3642H137.233ZM143.708 20.9543V19.8958H145.543V19.4383H143.708V18.3642H145.954V17.8989H143.192V21.4235H145.962V20.9582H143.711L143.708 20.9543Z" fill="#7396B9"/>
<path d="M1.13528 16.7318C1.12758 15.9486 1.07373 5.45249 3.6358 5.50677C7.16347 5.40984 7.09423 17.7904 7.04806 20.206L8.85998 21.2723L9.42549 21.4778V0.477783L0.0119629 3.53317V16.0688L1.13528 16.728V16.7318Z" fill="#7396B9"/>
<path d="M18.2158 16.7318C18.2235 15.9486 18.2735 5.45249 15.8615 5.50677C12.5338 5.40984 12.5992 17.7904 12.6416 20.206L10.9335 21.2723L10.3988 21.4778V0.477783L19.2737 3.53317V16.0688L18.2158 16.728V16.7318Z" fill="#7396B9"/>
</g>
<defs>
<clipPath id="clip0_459_435">
<rect width="146" height="21" fill="white" transform="translate(0.0119629 0.477783)"/>
</clipPath>
</defs>
</svg>
