<svg width="164" height="12" viewBox="0 0 164 12" fill="none" xmlns="http://www.w3.org/2000/svg">
<g clip-path="url(#clip0_459_363)">
<path d="M4.76858 1.79618H0V0.179688H11.294V1.79618H6.53007V11.7756H4.76858V1.79618Z" fill="#7396B9"/>
<path d="M41.6483 0.179688H42.7545L48.5502 11.7756H46.6539L45.1899 8.82792H39.2269L37.7628 11.7756H35.8991L41.6483 0.179688ZM44.4044 7.29701L42.2154 2.8469L39.9891 7.29701H44.4044Z" fill="#7396B9"/>
<path d="M66.8251 6.01333C66.8251 9.35091 64.5989 11.7661 60.6762 11.7661H55.6659V0.179688H60.6762C64.4966 0.179688 66.8251 2.68525 66.8251 6.01333ZM57.4135 1.83897V10.0973H60.7041C63.5206 10.0973 65.0125 8.3715 65.0125 5.9848C65.0125 3.59809 63.3626 1.83897 60.7041 1.83897H57.4135Z" fill="#7396B9"/>
<path d="M75.0284 0.179688H85.616V1.877H76.7899V4.76767H82.5857V6.43646H76.7899V10.1021H86.104V11.7756H75.0284V0.179688Z" fill="#7396B9"/>
<path d="M94.0424 0.179688H95.5017L100.136 6.9642L104.76 0.179688H106.229V11.7756H104.472V3.43169L100.136 9.88339L95.8039 3.43169V11.7756H94.0424V0.179688Z" fill="#7396B9"/>
<path d="M119.094 0.179688H120.204L126 11.7756H124.109L122.645 8.82792H116.686L115.227 11.7756H113.358L119.098 0.179688H119.094ZM121.854 7.29701L119.665 2.8469L117.448 7.29701H121.859H121.854Z" fill="#7396B9"/>
<path d="M153.217 0.208252H154.983V5.35249L160.96 0.208252H163.294L158.553 4.32555L164 11.7757H162.02L157.307 5.38102L154.983 7.41114V11.7757H153.217V0.208252Z" fill="#7396B9"/>
<path d="M141.789 6.68363C143.392 6.48395 144.596 5.08616 144.582 3.43163C144.582 1.38724 143.197 0.222412 140.901 0.222412H133.121V11.7756H134.882V1.87694H140.91C142.123 1.87694 142.779 2.4332 142.779 3.43163C142.779 4.43005 142.123 5.01959 140.91 5.01959H136.769V6.71216H139.813L143.002 11.7756H144.921L141.784 6.68363H141.789Z" fill="#7396B9"/>
<path d="M27.166 6.68363C28.7648 6.47919 29.9639 5.0814 29.9546 3.43163C29.9546 1.38724 28.5789 0.222412 26.2736 0.222412H18.498V11.7756H20.2548V6.71216V5.01959V1.87694H26.2736C27.4867 1.87694 28.1467 2.4332 28.1467 3.43163C28.1467 4.43005 27.4913 5.01959 26.2736 5.01959H22.1557V6.71216H25.1907L28.3837 11.7756H30.3079L27.166 6.68363Z" fill="#7396B9"/>
</g>
<defs>
<clipPath id="clip0_459_363">
<rect width="164" height="11.596" fill="white" transform="translate(0 0.179688)"/>
</clipPath>
</defs>
</svg>
