<svg width="130" height="26" viewBox="0 0 130 26" fill="none" xmlns="http://www.w3.org/2000/svg">
<path d="M35.4334 0.581543H37.426L40.5175 8.4642L43.5944 0.581543H45.5431L41.2794 10.911H39.697L35.4334 0.581543Z" fill="#7396B9"/>
<path d="M47.1113 0.581543H48.9135V10.8377H47.1113V0.581543Z" fill="#7396B9"/>
<path d="M54.9553 10.9845C54.1642 10.9845 53.4072 10.8527 52.6843 10.589C51.9615 10.3154 51.2924 9.90032 50.677 9.34354L51.7613 8.05421C52.2595 8.48396 52.7625 8.81612 53.2704 9.05049C53.7783 9.27518 54.3546 9.3875 54.9993 9.3875C55.5561 9.3875 55.9957 9.27028 56.3179 9.03584C56.6501 8.80147 56.8161 8.48887 56.8161 8.09817V8.06886C56.8161 7.88329 56.782 7.72211 56.7136 7.58534C56.6549 7.43881 56.5377 7.30211 56.3619 7.17508C56.1959 7.04811 55.9614 6.93089 55.6587 6.82349C55.3656 6.71601 54.9798 6.60856 54.5011 6.50112C53.9542 6.37414 53.4658 6.23251 53.036 6.07622C52.616 5.91016 52.2595 5.71481 51.9664 5.49015C51.6831 5.25572 51.4633 4.97245 51.3071 4.64035C51.1606 4.30824 51.0873 3.90776 51.0873 3.43891V3.4096C51.0873 2.97005 51.1752 2.56957 51.351 2.20816C51.5269 1.83698 51.7661 1.52441 52.069 1.27045C52.3815 1.00672 52.7527 0.801593 53.1825 0.655078C53.6123 0.508561 54.0811 0.435303 54.589 0.435303C55.3412 0.435303 56.0152 0.547633 56.611 0.772295C57.2166 0.987186 57.7832 1.30464 58.3106 1.72466L57.3436 3.08727C56.8747 2.74539 56.4108 2.48655 55.9517 2.31073C55.4926 2.12513 55.0286 2.03234 54.5597 2.03234C54.0323 2.03234 53.6221 2.14955 53.329 2.38398C53.036 2.61841 52.8895 2.90656 52.8895 3.24844V3.27774C52.8895 3.47309 52.9237 3.64891 52.992 3.8052C53.0604 3.95172 53.1825 4.08847 53.3583 4.21545C53.5439 4.33266 53.793 4.44499 54.1056 4.55244C54.4279 4.65988 54.8333 4.77222 55.3217 4.88943C55.8589 5.02618 56.3326 5.17758 56.7429 5.34363C57.1629 5.50969 57.5096 5.71481 57.7832 5.95901C58.0567 6.19344 58.2618 6.47181 58.3985 6.79415C58.545 7.10672 58.6183 7.47303 58.6183 7.89303V7.92234C58.6183 8.40096 58.5255 8.83071 58.3399 9.21167C58.1641 9.59263 57.915 9.91498 57.5927 10.1787C57.2703 10.4425 56.8845 10.6427 56.4352 10.7794C55.9859 10.9162 55.4926 10.9845 54.9553 10.9845Z" fill="#7396B9"/>
<path d="M60.5469 0.581543H62.3491V10.8377H60.5469V0.581543Z" fill="#7396B9"/>
<path d="M64.8017 0.581543H66.472L71.9663 7.67298V0.581543H73.7393V10.8377H72.2304L66.5745 3.54119V10.8377H64.8017V0.581543Z" fill="#7396B9"/>
<path d="M78.604 2.25184H75.3516V0.581543H83.6738V2.25184H80.4208V10.8377H78.604V2.25184Z" fill="#7396B9"/>
<path d="M90.6249 6.76655L88.8519 2.66406L87.0936 6.76655H90.6249ZM88.046 0.510254H89.7162L94.2295 10.8397H92.3247L91.2843 8.3636H86.4343L85.3797 10.8397H83.5334L88.046 0.510254Z" fill="#7396B9"/>
<path d="M95.7973 0.581543H97.5993V10.8377H95.7973V0.581543Z" fill="#7396B9"/>
<path d="M100.052 0.581543H101.722L107.217 7.67298V0.581543H108.99V10.8377H107.48L101.825 3.54119V10.8377H100.052V0.581543Z" fill="#7396B9"/>
<path d="M111.774 0.581543H119.379V2.19323H113.577V4.85985H118.719V6.47154H113.577V9.22605H119.452V10.8377H111.774V0.581543Z" fill="#7396B9"/>
<path d="M125.736 5.66569C126.381 5.66569 126.894 5.51429 127.275 5.21149C127.656 4.89892 127.846 4.4789 127.846 3.95144V3.92214C127.846 3.36537 127.66 2.94536 127.289 2.66209C126.918 2.36905 126.395 2.22254 125.721 2.22254H123.099V5.66569H125.736ZM121.297 0.581543H125.868C126.513 0.581543 127.084 0.674337 127.582 0.859925C128.08 1.03575 128.496 1.28483 128.828 1.60716C129.101 1.89043 129.311 2.21765 129.458 2.58883C129.604 2.96001 129.677 3.37026 129.677 3.81958V3.84888C129.677 4.2689 129.614 4.64984 129.487 4.99172C129.37 5.32382 129.204 5.62174 128.989 5.88547C128.774 6.13944 128.515 6.35921 128.212 6.5448C127.919 6.72062 127.592 6.85736 127.231 6.95502L130 10.8377H127.875L125.355 7.26271H125.326H123.099V10.8377H121.297V0.581543Z" fill="#7396B9"/>
<path d="M41.1772 25.8009C40.3763 25.8009 39.6486 25.6691 38.9941 25.4054C38.3397 25.1318 37.778 24.7607 37.3092 24.2918C36.8501 23.8132 36.4936 23.2564 36.2396 22.6215C35.9856 21.9768 35.8587 21.2784 35.8587 20.5263V20.497C35.8587 19.784 35.9856 19.1051 36.2396 18.4604C36.5033 17.8157 36.8696 17.2541 37.3385 16.7755C37.8074 16.2871 38.3641 15.9013 39.0088 15.618C39.6632 15.3347 40.3763 15.1931 41.1479 15.1931C41.5972 15.1931 42.0026 15.2273 42.364 15.2957C42.7352 15.3543 43.0771 15.4422 43.3897 15.5594C43.7022 15.6766 43.9952 15.8232 44.2687 15.9989C44.552 16.165 44.8255 16.3604 45.0892 16.585L43.9464 17.9476C43.7511 17.7816 43.5508 17.6302 43.3457 17.4934C43.1406 17.3567 42.9257 17.2444 42.701 17.1564C42.4763 17.0588 42.2273 16.9855 41.9537 16.9367C41.6901 16.8781 41.397 16.8488 41.0747 16.8488C40.6058 16.8488 40.1662 16.9464 39.756 17.1418C39.3555 17.3371 39.0039 17.6009 38.7011 17.933C38.408 18.2553 38.1736 18.6363 37.9978 19.0758C37.8318 19.5154 37.7487 19.9794 37.7487 20.4677V20.497C37.7487 21.0245 37.8318 21.5129 37.9978 21.9622C38.1638 22.4115 38.3983 22.7974 38.7011 23.1197C39.0137 23.4421 39.3799 23.696 39.7999 23.8816C40.2297 24.0672 40.7084 24.1599 41.2358 24.1599C41.7242 24.1599 42.1784 24.0916 42.5984 23.9548C43.0282 23.8083 43.3994 23.6178 43.7119 23.3834V21.4641H41.0893V19.8963H45.4556V24.2039C45.2016 24.4188 44.9183 24.6239 44.6057 24.8193C44.3029 25.0146 43.9708 25.1856 43.6094 25.3321C43.2578 25.4787 42.8768 25.591 42.4666 25.6691C42.0563 25.757 41.6265 25.8009 41.1772 25.8009Z" fill="#7396B9"/>
<path d="M51.9486 20.4511C52.5933 20.4511 53.1061 20.2997 53.4871 19.9969C53.868 19.6843 54.0585 19.2643 54.0585 18.7368V18.7075C54.0585 18.1507 53.8729 17.7307 53.5017 17.4475C53.1305 17.1544 52.608 17.0079 51.934 17.0079H49.3113V20.4511H51.9486ZM47.5092 15.3669H52.0805C52.7252 15.3669 53.2966 15.4597 53.7947 15.6453C54.2929 15.8212 54.7081 16.0702 55.0402 16.3925C55.3137 16.6758 55.5237 17.003 55.6701 17.3742C55.8167 17.7454 55.8899 18.1556 55.8899 18.605V18.6343C55.8899 19.0543 55.8265 19.4352 55.6994 19.7771C55.5823 20.1092 55.4162 20.4071 55.2013 20.6709C54.9864 20.9248 54.7276 21.1446 54.4248 21.3302C54.1317 21.506 53.8045 21.6427 53.4431 21.7404L56.2123 25.6231H54.0878L51.5677 22.0481H51.5384H49.3113V25.6231H47.5092V15.3669Z" fill="#7396B9"/>
<path d="M62.727 24.1453C63.2349 24.1453 63.6989 24.0525 64.1189 23.8669C64.5487 23.6716 64.9149 23.4128 65.2178 23.0904C65.5206 22.7583 65.755 22.3724 65.921 21.9329C66.0968 21.4934 66.1848 21.0245 66.1848 20.5263V20.497C66.1848 19.9988 66.0968 19.53 65.921 19.0905C65.755 18.6412 65.5157 18.2553 65.2031 17.933C64.9003 17.6009 64.534 17.3371 64.1042 17.1418C63.6745 16.9464 63.2056 16.8488 62.6977 16.8488C62.1897 16.8488 61.7209 16.9464 61.2911 17.1418C60.871 17.3274 60.5096 17.5862 60.2068 17.9183C59.9041 18.2406 59.6647 18.6216 59.489 19.0612C59.3229 19.5007 59.2399 19.9695 59.2399 20.4677V20.497C59.2399 20.9952 59.3229 21.4689 59.489 21.9182C59.6647 22.3578 59.9041 22.7437 60.2068 23.0758C60.5195 23.3981 60.8906 23.6569 61.3204 23.8523C61.7502 24.0476 62.219 24.1453 62.727 24.1453ZM62.6977 25.8009C61.9064 25.8009 61.1836 25.6642 60.5292 25.3907C59.8748 25.1074 59.3131 24.7265 58.8443 24.2479C58.3754 23.7692 58.0091 23.2125 57.7453 22.5776C57.4817 21.9329 57.3498 21.2491 57.3498 20.5263V20.497C57.3498 19.7742 57.4817 19.0953 57.7453 18.4604C58.0091 17.8157 58.3803 17.2541 58.8589 16.7755C59.3375 16.2871 59.9041 15.9013 60.5585 15.618C61.2129 15.3347 61.9357 15.1931 62.727 15.1931C63.5181 15.1931 64.241 15.3347 64.8954 15.618C65.5499 15.8915 66.1115 16.2676 66.5804 16.7462C67.0492 17.2248 67.4155 17.7865 67.6792 18.4311C67.943 19.0661 68.075 19.7449 68.075 20.4677V20.497C68.075 21.2198 67.943 21.9036 67.6792 22.5483C67.4155 23.1832 67.0443 23.7448 66.5657 24.2332C66.0871 24.7118 65.5206 25.0928 64.8661 25.3761C64.2117 25.6593 63.4888 25.8009 62.6977 25.8009Z" fill="#7396B9"/>
<path d="M74.1651 25.7843C73.5003 25.7843 72.9001 25.6915 72.3624 25.506C71.8254 25.3106 71.3663 25.0224 70.9852 24.6415C70.6042 24.2605 70.3111 23.7916 70.1061 23.2349C69.9011 22.6684 69.799 22.014 69.799 21.2716V15.3669H71.6009V21.1983C71.6009 22.1556 71.8301 22.8833 72.2892 23.3814C72.7482 23.8796 73.3834 24.1286 74.194 24.1286C74.9951 24.1286 75.6249 23.8894 76.084 23.4108C76.543 22.9321 76.7729 22.2191 76.7729 21.2716V15.3669H78.5748V21.1837C78.5748 21.9455 78.4673 22.6146 78.2529 23.191C78.0472 23.7672 77.7542 24.2508 77.3738 24.6415C76.9927 25.0224 76.5289 25.3106 75.9818 25.506C75.4441 25.6915 74.8385 25.7843 74.1651 25.7843Z" fill="#7396B9"/>
<path d="M85.2382 20.7002C85.9224 20.7002 86.4594 20.5292 86.8499 20.1873C87.2505 19.8455 87.4508 19.4059 87.4508 18.8687V18.8394C87.4508 18.2338 87.2505 17.7796 86.8499 17.4768C86.4493 17.1642 85.9123 17.0079 85.2382 17.0079H83.1432V20.7002H85.2382ZM81.3412 15.3669H85.3847C85.9809 15.3669 86.5179 15.45 86.9964 15.616C87.4851 15.7723 87.8951 16.0018 88.2271 16.3046C88.5692 16.6074 88.828 16.9689 89.0041 17.3889C89.1896 17.8089 89.2823 18.2778 89.2823 18.7954V18.8247C89.2823 19.401 89.1748 19.9089 88.9597 20.3485C88.7453 20.7783 88.4523 21.1397 88.0806 21.4328C87.7096 21.7257 87.2747 21.9504 86.7767 22.1067C86.2786 22.2532 85.7463 22.3265 85.1797 22.3265H83.1432V25.6231H81.3412V15.3669Z" fill="#7396B9"/>
<path d="M11.3217 10.733L4.94261 0.85425C4.55987 0.341065 4.04954 0.0844727 3.53921 0.0844727H0.859985L7.877 20.0986L11.3217 10.733Z" fill="#96B0CA"/>
<path d="M19.9975 0.0839844H28.2903L19.4872 25.23C19.3596 25.6149 18.9769 25.8715 18.5941 25.8715H9.91855L18.5941 1.23865C18.8493 0.468872 19.3596 0.0839844 19.9975 0.0839844Z" fill="#7396B9"/>
</svg>
